<svg width="30" height="30" viewBox="0 0 30 30" fill="none" xmlns="http://www.w3.org/2000/svg">
<path d="M1.6665 13.9998C1.11422 13.9998 0.666504 14.4476 0.666504 14.9998C0.666504 15.5521 1.11422 15.9998 1.6665 15.9998L1.6665 13.9998ZM28.3332 15.9998C28.8855 15.9998 29.3332 15.5521 29.3332 14.9998C29.3332 14.4476 28.8855 13.9998 28.3332 13.9998L28.3332 15.9998ZM15.9998 1.6665C15.9998 1.11422 15.5521 0.666504 14.9998 0.666504C14.4476 0.666504 13.9998 1.11422 13.9998 1.6665H15.9998ZM13.9998 28.3332C13.9998 28.8855 14.4476 29.3332 14.9998 29.3332C15.5521 29.3332 15.9998 28.8855 15.9998 28.3332L13.9998 28.3332ZM1.6665 15.9998L14.9998 15.9998L14.9998 13.9998L1.6665 13.9998L1.6665 15.9998ZM14.9998 15.9998L28.3332 15.9998L28.3332 13.9998L14.9998 13.9998L14.9998 15.9998ZM13.9998 1.6665V14.9998H15.9998V1.6665H13.9998ZM13.9998 14.9998L13.9998 28.3332L15.9998 28.3332L15.9998 14.9998L13.9998 14.9998Z" fill="#616265"/>
</svg>
