<svg width="102" height="86" viewBox="0 0 102 86" fill="none" xmlns="http://www.w3.org/2000/svg">
<path fill-rule="evenodd" clip-rule="evenodd" d="M48.9662 0.0903341L47.9726 0.180668L46.9081 0.348009L45.8436 0.515455L44.607 0.829509L43.3704 1.14356L42.5336 1.42059L41.6969 1.69752L40.8078 2.06457L39.9188 2.43162L38.8161 2.99986L37.7136 3.56799L36.628 4.25247L35.5424 4.93686L34.3132 5.89837L33.084 6.85989L31.8642 8.08438L30.6445 9.30886L29.7984 10.3808L28.9523 11.4529L28.3023 12.4578L27.6521 13.4626L27.1945 14.3089L26.7368 15.1551L26.199 16.3211L25.6612 17.487L25.2785 18.5953L24.8958 19.7035L24.5879 20.9729L24.2799 22.2422L24.0681 23.6702L23.8563 25.0982L23.7929 26.9493L23.7295 28.8004L23.856 30.0697L23.9823 31.3391L24.1377 32.3352L24.2932 33.3313L24.6455 34.7152L24.9979 36.0991L25.3314 37.0511L25.6649 38.0031L26.177 39.1614L26.6892 40.3197L27.2811 41.3828L27.873 42.4457L28.2918 43.0804L28.7106 43.7151L29.604 44.8786L30.4973 46.0422L31.8087 47.3709L33.1201 48.6997L33.9569 49.3727L34.7936 50.0456L36.2057 50.9861L37.6177 51.9267L38.8205 52.5371L40.0234 53.1476L41.1216 53.5778L42.2199 54.0081L43.0656 54.2755L43.9114 54.5429L44.8437 54.7603L45.7761 54.9777L46.6651 55.1298L47.5542 55.282L48.8616 55.4096L50.169 55.5373L52.0518 55.4743L53.9345 55.4113L54.9804 55.255L56.0263 55.0986L57.0723 54.8698L58.1182 54.6409L59.4315 54.2337L60.7448 53.8263L61.5873 53.4617L62.4298 53.097L63.1504 52.7486L63.8709 52.4002L64.8646 51.8259L65.8582 51.2515L66.8391 50.5627L67.82 49.8739L68.7218 49.1127L69.6237 48.3515L70.4709 47.5142L71.3181 46.6768L71.9474 45.9364L72.5769 45.1959L73.367 44.1153L74.1572 43.0346L74.7571 42.0038L75.3569 40.9731L76.0148 39.5939L76.6726 38.2146L77.1017 36.9453L77.5306 35.676L77.8337 34.4595L78.1368 33.2431L78.3689 31.7093L78.601 30.1755L78.6045 27.7955L78.6078 25.4155L78.4243 24.1462L78.2407 22.8769L78.038 21.9249L77.8353 20.9729L77.4562 19.7035L77.0771 18.4342L76.6619 17.3764L76.2467 16.3186L75.6824 15.208L75.1181 14.0973L74.4293 12.9866L73.7404 11.876L72.9894 10.8711L72.2385 9.8662L70.6173 8.21945L68.9961 6.57271L67.6737 5.57501L66.3514 4.57732L65.268 3.92869L64.1847 3.28006L63.348 2.85801L62.5112 2.43585L61.3084 1.95065L60.1055 1.46534L58.7622 1.09311L57.419 0.720981L56.622 0.554487L55.825 0.387993L54.6705 0.233346L53.5161 0.0786987L51.738 0.0393495L49.9599 0L48.9662 0.0903341ZM59.2906 11.0033L59.5058 11.2413L59.6665 11.5633L59.8272 11.8854L59.985 12.5153L60.143 13.1453L60.2082 13.78L60.2734 14.4146L60.3154 14.6262L60.3574 14.8378L61.1585 14.8025L61.9596 14.7673L62.6538 14.888L63.348 15.0087L63.9189 15.2712L64.4897 15.5338L64.8199 15.7885L65.1503 16.0433L65.3871 16.5511L65.624 17.0591L65.9201 17.9539L66.2162 18.8486L66.414 19.1174L66.6117 19.3862L67.1932 19.4176L67.7747 19.4491L68.6351 19.2325L69.4955 19.016H69.6974H69.8994L69.6801 19.3274L69.4608 19.6388L69.4478 19.9889L69.4348 20.339L69.6106 20.6828L69.7864 21.0267L70.1757 21.2855L70.565 21.5444L71.0363 21.6499L71.5077 21.7555L71.9016 21.6657L72.2955 21.5758L72.5637 21.3981L72.832 21.2204L72.8848 21.2739L72.9377 21.3274L72.7617 21.9435L72.5856 22.5595L72.154 23.4057L71.7225 24.252L70.8823 25.1008L70.042 25.9496L69.3003 26.3407L68.5585 26.7317L67.9447 26.8934L67.3309 27.0551L66.6992 27.0535L66.0674 27.0519L65.4085 26.8948L64.7496 26.7377L64.4148 26.5672L64.0801 26.3967L63.7313 26.0648L63.3824 25.7329L63.2387 25.4554L63.0949 25.1779L63.1604 25.1116L63.2259 25.0453H63.6302H64.0344L64.1008 24.8701L64.1674 24.695L63.9185 24.4912L63.6697 24.2875L63.1951 24.3574L62.7204 24.4272L62.2794 24.6858L61.8385 24.9443L61.5734 25.2957L61.3084 25.6471V25.8092V25.9714L61.4662 26.1039L61.6241 26.2364L61.9833 25.8511L62.3426 25.466L62.659 25.931L62.9754 26.3961L63.3186 26.689L63.6618 26.982L64.2685 27.2728L64.8752 27.5637L65.7328 27.6912L66.5904 27.8189L67.1657 27.7042L67.7409 27.5897L68.0024 27.5195L68.2639 27.4494L67.8606 27.8764L67.4573 28.3035L66.7471 28.6344L66.037 28.9655L65.32 29.1191L64.6031 29.2727L63.4457 29.2746L62.2881 29.2764L61.6676 29.1652L61.0469 29.0541L60.367 28.8332L59.6872 28.6123L58.9908 28.2674L58.2943 27.9223L57.631 27.4717L56.9677 27.0211L56.2056 26.2267L55.4434 25.4323L54.9657 24.7054L54.4878 23.9785L54.1191 23.064L53.7504 22.1494L53.8095 21.3495L53.8685 20.5497L54.09 19.7035L54.3116 18.8573L54.6141 18.1968L54.9166 17.5362L55.2038 17.139L55.491 16.7417L55.7868 16.4173L56.0826 16.0929L56.3368 15.0422L56.591 13.9915L56.8498 13.3309L57.1086 12.6704L57.4304 12.1145L57.7523 11.5586L57.9353 11.3438L58.1182 11.129L58.3769 10.9471L58.6355 10.7653H58.8554H59.0754L59.2906 11.0033ZM64.3802 11.4541L64.5384 11.6141L64.6124 12.1137L64.6866 12.6132L64.5622 13.5572L64.438 14.5012L64.3842 14.5892L64.3304 14.6772L63.9698 14.5248L63.6092 14.3724L63.0128 14.2609L62.4164 14.1495L62.3345 14.0666L62.2527 13.9839L62.7709 12.9158L63.2891 11.8475L63.6142 11.5708L63.9393 11.2942H64.0807H64.2221L64.3802 11.4541ZM58.7605 13.4198L58.4949 13.9587L58.3676 14.5341L58.2403 15.1093L58.3361 15.2033L58.432 15.2974L58.9933 15.1216L59.5545 14.9457L59.4852 14.1716L59.4158 13.3974L59.3188 13.1391L59.2217 12.8809H59.1238H59.026L58.7605 13.4198ZM37.142 17.2442L37.477 18.2226L37.7972 18.8023L38.1173 19.382L38.5391 19.9659L38.9609 20.5497L39.6687 21.2495L40.3766 21.9492L40.8736 22.2822L41.3708 22.6152L41.743 22.7147L42.1153 22.8141L43.2001 22.925L44.2849 23.0358L46.0765 23.1031L47.868 23.1704L50.0122 23.0436L52.1563 22.9167L52.3906 22.8592L52.6249 22.8015L52.8344 23.3152L53.0439 23.8289L53.3744 24.4635L53.7048 25.0982L54.1501 25.7329L54.5955 26.3675L55.1322 26.9712L55.6688 27.5748L56.5161 28.2203L57.3632 28.8659L58.1902 29.2863L59.0171 29.7069L59.9274 30.0126L60.8377 30.3183L61.3358 30.3913L61.834 30.4644L61.8907 30.5572L61.9473 30.6499L61.5086 31.5029L61.0697 32.3559L60.3776 33.1032L59.6854 33.8504L58.6404 33.9958L57.5953 34.1411L57.0411 34.3164L56.487 34.4917L56.4015 34.3963L56.3161 34.3008L56.1908 33.633L56.0655 32.9651L55.8666 32.4959L55.6677 32.0266H55.4676H55.2675L55.1433 32.178L55.019 32.3294L55.274 33.1564L55.529 33.9835L55.5987 34.3764L55.6683 34.7691L55.1413 35.0392L54.6143 35.3093V35.5061V35.7029L54.7741 35.8371L54.934 35.9712L55.5884 35.6485L56.243 35.3257L56.9191 35.0995L57.5953 34.8732L58.3854 34.7585L59.1754 34.644L59.7583 34.8153L60.3412 34.9867L60.7076 35.3968L61.0739 35.8069L61.3041 36.429L61.5343 37.0511L61.6421 37.6328L61.7499 38.2146L61.6933 38.9022L61.6366 39.5897L61.4982 39.9071L61.3599 40.2244L61.1613 40.5214L60.9626 40.8183L60.5469 41.0329L60.1312 41.2474L59.5946 41.3033L59.0581 41.3594L58.6928 41.2045L58.3274 41.0498L57.9957 40.7668L57.6639 40.4839L57.447 40.0307L57.23 39.5776L57.2035 38.8546L57.1769 38.1316L57.0152 38.0286L56.8535 37.9256L56.3132 38.2618L55.7728 38.598L55.1674 38.8153L54.562 39.0327L53.9226 39.0865L53.2832 39.1404L52.7627 38.9655L52.2421 38.7907L51.8046 38.4652L51.3671 38.1398L51.0494 37.6729L50.7319 37.2061L50.5152 36.5997L50.2984 35.9933L50.2792 34.7311L50.26 33.469L50.0858 33.3578L49.9115 33.2467L49.7265 33.4342L49.5415 33.6218L49.5509 34.6753L49.5602 35.7288L49.2371 35.7284L48.9139 35.728L47.9294 35.5665L46.9448 35.4051L46.0467 35.1496L45.1485 34.8942L44.7563 34.7283L44.364 34.5624V34.5093V34.4562L44.7234 33.9026L45.0828 33.3488L45.2857 32.7142L45.4886 32.0795L45.5499 31.5918L45.6112 31.104L45.4765 30.9177L45.3418 30.7314L45.1351 30.7977L44.9285 30.864L44.8157 31.6565L44.7027 32.4489L44.4241 33.025L44.1453 33.601L43.6712 34.1343L43.1971 34.6677L42.4213 35.0555L41.6455 35.4432L40.8715 35.4935L40.0975 35.5437L39.5374 35.4102L38.9774 35.2768L38.5067 35.0378L38.0361 34.7988L37.5651 34.3788L37.0941 33.9587L36.6884 33.257L36.2826 32.5555H36.1001H35.9175L35.7853 32.7166L35.6531 32.8777L35.8465 33.3115L36.04 33.7453L36.332 34.1169L36.624 34.4886L36.6237 34.6592L36.6234 34.8297L36.2185 35.4456L35.8136 36.0613L35.3142 36.5884L34.8147 37.1156L34.351 37.4381L33.8874 37.7607L33.3233 37.9613L32.7593 38.1617L32.0506 38.1607L31.342 38.1596L30.819 37.9097L30.2961 37.6596L30.0151 37.3553L29.7341 37.0511L29.6229 36.7533L29.5116 36.4555L29.512 36.0129L29.5123 35.5702L29.7212 35.2238L29.9301 34.8773L30.2176 34.7633L30.5052 34.6492L31.1349 34.7725L31.7646 34.896L32.0263 34.7953L32.2881 34.6945L32.6344 34.339L32.9807 33.9835L33.4364 33.0315L33.8921 32.0795L34.3304 30.8631L34.7687 29.6466L35.1621 28.7839L35.5555 27.9212L35.8229 27.7439L36.0904 27.5667L36.6486 27.5616L37.2068 27.5566L37.6285 27.774L38.0501 27.9916L38.1601 28.1316L38.2701 28.2715L38.398 28.8227L38.5257 29.374L38.7245 29.4378L38.9232 29.5016L39.0256 29.4376L39.1281 29.3735L39.1268 28.0292L39.1254 26.6849L39.2895 26.0502L39.4536 25.4155L39.7083 24.8885L39.9631 24.3616L39.1853 23.5663L38.4076 22.7711L37.9775 22.1893L37.5473 21.6075L37.1451 20.8045L36.743 20.0014L36.5638 19.3236L36.3847 18.6457L36.3736 17.7466L36.3625 16.8475L36.443 16.5566L36.5234 16.2657H36.6652H36.807L37.142 17.2442ZM65.0947 18.8256L64.9692 18.9525V19.3416V19.7305L65.1349 19.8696L65.3006 20.0086L65.4748 19.8983L65.6491 19.7878L65.682 19.3945L65.7148 19.0012L65.5907 18.8499L65.4665 18.6986H65.3434H65.2202L65.0947 18.8256ZM72.2041 19.0853L72.3954 19.2603V19.4371V19.6137L72.1404 19.8561L71.8855 20.0983L71.4205 20.1513L70.9556 20.2043L70.7341 19.9803L70.5127 19.7564V19.6072V19.4579L70.8345 19.1841L71.1563 18.9102H71.5846H72.0129L72.2041 19.0853ZM63.0132 19.175L62.7887 19.3339L62.6702 19.6973L62.5516 20.0605L62.6208 20.434L62.6902 20.8075L62.8745 21.0224L63.0588 21.2373H63.3179H63.577L63.7625 21.0301L63.948 20.8228L63.9996 20.36L64.0512 19.8972L63.8815 19.5655L63.7119 19.2338L63.5106 19.1249L63.3094 19.016H63.2735H63.2376L63.0132 19.175ZM65.8807 32.6778L66.3625 32.9286L66.7047 33.4307L67.0469 33.933L67.2778 34.54L67.5087 35.1471L67.5588 36.0065L67.609 36.866L67.4808 37.2585L67.3527 37.651L67.0255 38.0279L66.6982 38.4048L66.3601 38.5477L66.0218 38.6906H65.5619H65.102L64.839 38.4814L64.576 38.2723L64.3624 37.8126L64.1488 37.353L63.9905 36.5795L63.8321 35.806L63.7168 35.6893L63.6013 35.5725L62.9517 35.8192L62.302 36.0659L62.1204 36.1209L61.9387 36.1759L61.7385 35.7035L61.5382 35.2311L61.2077 34.8504L60.8771 34.4697L60.6743 34.4045L60.4716 34.3395V34.1917V34.0438L60.6649 33.9393L60.8581 33.8347L61.214 33.3569L61.5699 32.8792L61.8993 32.7655L62.2289 32.6519L62.9453 32.5011L63.6618 32.3504L64.5303 32.3887L65.3989 32.427L65.8807 32.6778ZM44.2575 35.3146L44.8307 35.535L44.9044 35.5811L44.9781 35.6271L44.6668 36.392L44.3555 37.1568L43.945 37.8567L43.5346 38.5565L43.1244 39.0814L42.7142 39.6062L42.1118 40.0105L41.5094 40.4148L40.871 40.6181L40.2326 40.8214L39.3958 40.7863L38.559 40.7512L38.0884 40.5158L37.6177 40.2805L37.3874 39.9351L37.1571 39.5897L37.0879 39.1502L37.0189 38.7107L37.2048 38.3923L37.3908 38.0739L37.6399 37.9592L37.889 37.8444L38.3286 37.8469L38.7682 37.8495L39.1798 37.9459L39.5913 38.0425L39.92 37.9035L40.2488 37.7646L40.3728 37.4607L40.4969 37.1568L40.5756 36.6876L40.6545 36.2183L41.0188 36.1804L41.3831 36.1425L41.9061 35.9924L42.429 35.8423L43.0043 35.479L43.5796 35.1157L43.6319 35.105L43.6842 35.0943L44.2575 35.3146ZM0.303535 62.9742L0.0158992 63.132L0.00795121 63.4195L0 63.707L0.00868218 65.5296L0.017259 67.3521L0.232934 67.935L0.448501 68.5177L0.872006 68.9375L1.29541 69.3574L1.8324 69.5468L2.36928 69.7364L3.2622 69.7248L4.15513 69.7133L4.66137 69.4868L5.16761 69.2604H5.20662H5.24563V70.9292V72.5982L5.40849 72.8332L5.57124 73.0684H6.38593H7.20051L7.37361 72.8749L7.54672 72.6815V67.9726V63.2638L7.32654 63.0623L7.10637 62.8608H6.37599H5.6455L5.44562 63.1106L5.24563 63.3603V65.2409V67.1215L4.77611 67.3447L4.30658 67.5679H3.66981H3.03304L2.74059 67.2721L2.44804 66.9763L2.33016 66.4207L2.21239 65.8651V64.4978V63.1307L1.90383 62.9693L1.59517 62.8079L1.09322 62.8122L0.59117 62.8164L0.303535 62.9742ZM10.3954 62.9149L10.1586 63.0138L10.0523 63.2964L9.94612 63.5789L9.9754 68.1736L10.0047 72.7682L10.2077 72.9183L10.4107 73.0684H13.094H15.7773L15.9504 72.8749L16.1235 72.6815V71.9922V71.3029L15.9352 71.1306L15.7468 70.9582L14.0264 70.9291L12.3058 70.8999L12.2755 69.9744L12.2453 69.0488H13.6662H15.0871L15.3559 68.777L15.6246 68.5052L15.5795 67.8747L15.5344 67.2441L15.3547 67.0623L15.175 66.8804L13.7404 66.8582L12.3058 66.8358V65.959V65.0821L13.9476 65.0531L15.5894 65.024L15.8042 64.7479L16.0189 64.4718V63.9161V63.3603L15.8191 63.1106L15.6193 62.8608L13.1258 62.8383L10.6323 62.8159L10.3954 62.9149ZM18.2677 62.882L18.0585 62.9355L17.8754 63.0997L17.6924 63.2638V63.975V64.686L17.8648 64.8312L18.0371 64.9764L19.2507 65.0293L20.4642 65.0821L20.48 65.3466L20.4959 65.611L20.5061 69.1735L20.5165 72.7359L20.6808 72.9022L20.8452 73.0684L21.596 73.0668L22.3469 73.0651L22.5038 72.9649L22.6606 72.8647L22.7129 68.9734L22.7652 65.0821L24.0946 65.0293L25.424 64.9764L25.5818 64.7648L25.7395 64.5533L25.7428 63.9568L25.7462 63.3603L25.5463 63.1106L25.3465 62.8608L21.9116 62.8446L18.4769 62.8283L18.2677 62.882ZM27.8381 62.8914L27.6812 62.9413L27.4982 63.1025L27.3151 63.2638V67.9428V72.6218L27.4997 72.8524L27.6842 73.0829L29.3563 73.0803L31.0282 73.0778L31.5788 72.9236L32.1294 72.7694L32.5843 72.4998L33.0392 72.2302L33.3823 71.8349L33.7256 71.4396L33.926 70.9813L34.1265 70.5229L34.1877 69.7849L34.2489 69.0468L34.0671 68.3676L33.8852 67.6883L33.6365 67.3473L33.3877 67.0063L32.9018 66.657L32.4159 66.3076L31.6307 66.1309L30.8456 65.9543L30.2309 66.0106L29.6162 66.0669V64.7136V63.3603L29.4332 63.1427L29.2501 62.9251L28.6225 62.8833L27.995 62.8416L27.8381 62.8914ZM35.6304 62.9343L35.4212 63.0543L35.3443 63.1692L35.2675 63.2839L35.2659 68.0011L35.2643 72.7182L35.4556 72.8933L35.6468 73.0684H36.3515H37.0561L37.2585 72.9589L37.4608 72.8494V67.9934V63.1372L37.2283 62.9726L36.9959 62.8079L36.4177 62.8111L35.8396 62.8144L35.6304 62.9343ZM40.3178 62.919L40.0894 63.0075L39.9779 63.2181L39.8665 63.4287V68.0135V72.5982L40.0293 72.8332L40.1921 73.0684H41.0101H41.8281L41.9718 72.8939L42.1153 72.7195L42.1676 71.175L42.2199 69.6306L42.7951 69.6644L43.3704 69.6983L44.035 69.5892L44.6996 69.4802L45.181 69.2445L45.6624 69.0088L46.039 68.6647L46.4156 68.3206L46.6963 67.7592L46.977 67.1977L47.0414 66.563L47.1058 65.9284L46.9538 65.3437L46.8017 64.759L46.5226 64.3118L46.2434 63.8646L45.8096 63.5468L45.3758 63.2289L44.8437 63.0594L44.3117 62.8898L42.429 62.8602L40.5463 62.8305L40.3178 62.919ZM49.4175 62.9071L49.1891 63.0075L49.0776 63.2181L48.9662 63.4287V68.0135V72.5982L49.1291 72.8332L49.2918 73.0684H52.0518H54.8117L54.9744 72.8332L55.1373 72.5982V72.0073V71.4163L54.9891 71.211L54.8409 71.0057L53.0802 70.9528L51.3196 70.8999L51.2894 69.9744L51.2591 69.0488H52.652H54.0448L54.2772 68.8841L54.5097 68.7195L54.5082 68.0114L54.5065 67.3035L54.4275 67.1779L54.3485 67.0523L54.0381 66.9329L53.7276 66.8135L52.5236 66.8408L51.3196 66.8681L51.2894 65.9487L51.2591 65.0293H52.8612H54.4632L54.6956 64.8646L54.9281 64.7V63.9163V63.1327L54.6928 63.0051L54.4574 62.8775L52.0518 62.8422L49.6461 62.8068L49.4175 62.9071ZM61.9116 62.9303L61.6257 63.0359L61.5253 63.4244L61.425 63.8128L61.3093 65.3466L61.1937 66.8804L61.0386 67.8853L60.8836 68.8901L60.7121 69.5129L60.5407 70.1356L60.1593 70.5177L59.778 70.8999L59.4972 71.09L59.2165 71.28V72.066V72.8519L59.4812 73.0274L59.746 73.2028L60.2586 73.1415L60.7711 73.08L61.1835 72.8673L61.5958 72.6546L61.8755 72.3184L62.1552 71.9823L62.3576 71.581L62.5601 71.1797L62.8137 70.2944L63.0673 69.4092L63.2881 67.9333L63.509 66.4573L63.5854 65.7697L63.6618 65.0821L64.7862 65.0521L65.9105 65.0221V68.8701V72.7182L66.1018 72.8933L66.293 73.0684H67.0895H67.886L68.0488 72.8332L68.2116 72.5982V67.931V63.2638L67.9916 63.0623L67.7716 62.8608L64.9845 62.8427L62.1974 62.8246L61.9116 62.9303ZM73.8978 62.9317L73.6744 63.0411L73.5447 63.3212L73.4151 63.6013L72.5501 65.7168L71.6852 67.8324L70.7852 70.0219L69.8851 72.2114V72.5304V72.8494L70.0874 72.9589L70.2898 73.0684H70.969H71.6481L71.8483 72.8109L72.0486 72.5534L72.3372 71.7531L72.6258 70.9528H74.6853H76.7449L77.0987 71.9109L77.4526 72.8692L77.6365 72.9687L77.8206 73.0684H78.5991H79.3776L79.5082 72.9094L79.6386 72.7504V72.493V72.2358L79.2455 71.2505L78.8524 70.2653L78.0981 68.467L77.3439 66.6688L76.6217 64.8815L75.8993 63.0941L75.5627 62.951L75.2262 62.8079L74.6737 62.8151L74.1212 62.8222L73.8978 62.9317ZM81.5375 63.0728L81.286 63.3272V67.9627V72.5982L81.4488 72.8332L81.6116 73.0684H82.4262H83.2408L83.4139 72.8749L83.587 72.6815V68.8529V65.0243L85.3913 65.0532L87.1956 65.0821L87.2231 68.8833L87.2506 72.6845L87.4223 72.8764L87.5941 73.0684H88.3461H89.0981L89.2712 72.8749L89.4443 72.6815V67.9604V63.2393L89.2129 63.0212L88.9814 62.8032L85.3852 62.8108L81.7892 62.8183L81.5375 63.0728ZM92.1178 63.0334L91.85 63.2464V67.9223V72.5982L92.0196 72.843L92.1891 73.0877L94.1376 73.0467L96.0861 73.0056L96.667 72.7346L97.2478 72.4637L97.6385 72.1169L98.0291 71.77L98.2749 71.335L98.5207 70.8999L98.6508 70.3303L98.7809 69.7608L98.7184 69.0847L98.656 68.4085L98.4378 67.9089L98.2196 67.4093L97.885 67.0561L97.5504 66.7028L97.0682 66.4534L96.5858 66.2041L95.8819 66.0802L95.178 65.9562L94.6646 66.0061L94.1511 66.0559V64.7081V63.3603L93.9571 63.118L93.7632 62.8757L93.0743 62.8481L92.3854 62.8204L92.1178 63.0334ZM100.221 62.9247L99.962 63.0301L99.8823 63.157L99.8025 63.2839L99.8008 68.01L99.7992 72.7359L99.9635 72.9022L100.128 73.0684H100.889H101.649L101.821 72.8773L101.991 72.6862L101.996 68.1438L102 63.6013L101.998 63.4203L101.996 63.2393L101.784 63.0398L101.572 62.8404L101.026 62.8299L100.479 62.8193L100.221 62.9247ZM44.0503 65.1639L44.3117 65.2954L44.5006 65.6853L44.6895 66.0753L44.6199 66.4506L44.5502 66.826L44.1872 67.1484L43.8241 67.4707L43.022 67.44L42.2199 67.4093L42.1902 66.2193L42.1607 65.0293L42.9747 65.0308L43.7888 65.0323L44.0503 65.1639ZM75.2496 67.2379L75.7424 68.4944V68.613V68.7315H74.6515H73.5606L73.8002 68.1233L74.04 67.515L74.3251 66.7481L74.6102 65.9813H74.6834H74.7567L75.2496 67.2379ZM31.0598 68.3505L31.3425 68.4982L31.5203 68.697L31.6982 68.8956L31.7542 69.316L31.8103 69.7364L31.6807 70.1029L31.5512 70.4695L31.189 70.7158L30.8269 70.962L30.2476 70.931L29.6685 70.8999L29.6387 69.6899L29.609 68.4799L29.6616 68.3413L29.7142 68.2026H30.2456H30.7771L31.0598 68.3505ZM95.943 68.6069L96.243 68.9464L96.2414 69.5001L96.24 70.0537L96.1092 70.3181L95.9786 70.5826L95.614 70.7701L95.2494 70.9576L94.7264 70.9288L94.2034 70.8999L94.1736 69.6899L94.1439 68.4799L94.2011 68.329L94.2584 68.1782L94.9507 68.2227L95.643 68.2673L95.943 68.6069ZM21.144 79.5341L20.6733 79.6243L20.255 79.9207L19.8366 80.2171L19.8041 80.4441L19.7714 80.671L20.028 80.841L20.2845 81.0109L20.6725 80.7446L21.0605 80.4784L21.4092 80.4122L21.758 80.3461L22.1345 80.4717L22.5112 80.5974L22.6715 80.8449L22.8319 81.0924L22.7986 81.4333L22.7652 81.7741L22.5035 81.9707L22.242 82.1672L21.7714 82.2485L21.3009 82.3297V82.6956V83.0614L21.8531 83.1418L22.4052 83.2222L22.6571 83.389L22.9088 83.5559L22.9744 83.8578L23.04 84.1596L22.8797 84.4732L22.7193 84.7867L22.3867 84.904L22.0542 85.0212H21.6385H21.2229L20.6069 84.6788L19.991 84.3363L19.8092 84.4516L19.6274 84.5668L19.5932 84.7998L19.559 85.0329L19.6912 85.194L19.8234 85.3551L20.3264 85.6129L20.8294 85.8706L21.4385 85.9349L22.0475 85.9994L22.6156 85.8271L23.1836 85.6547L23.4617 85.4042L23.7399 85.1537L23.9063 84.8283L24.0727 84.5028L24.0723 84.101L24.0719 83.699L23.8677 83.3604L23.6635 83.0217L23.3451 82.8552L23.0267 82.6887V82.64V82.5912L23.3985 82.246L23.7701 81.9008L23.87 81.4499L23.9698 80.9989L23.8176 80.6565L23.6654 80.3141L23.5246 80.1388L23.3838 79.9634L22.9699 79.7534L22.5561 79.5435L22.0854 79.4938L21.6147 79.4441L21.144 79.5341ZM27.1982 79.5548L26.8199 79.6978L26.4299 79.9415L26.04 80.1852L25.7421 80.6011L25.4442 81.0169L25.2687 81.5513L25.0932 82.0856L25.1405 82.8923L25.1878 83.699L25.3985 84.175L25.6094 84.651L26.0573 85.1016L26.505 85.5522L27.2338 85.7761L27.9627 86L28.5541 85.9312L29.1455 85.8626L29.6909 85.5947L30.2363 85.3267L30.6324 84.8716L31.0285 84.4165L31.212 83.899L31.3953 83.3817L31.3948 82.7398L31.3943 82.0979L31.2347 81.5545L31.0752 81.011L30.7379 80.5676L30.4007 80.1243L29.8347 79.8027L29.2686 79.4811L28.4227 79.4464L27.5766 79.4118L27.1982 79.5548ZM34.4275 79.5901L33.9569 79.755L33.5355 80.1018L33.114 80.4487L32.804 81.0161L32.494 81.5835L32.4933 82.6412L32.4925 83.699L32.7146 84.1844L32.9366 84.67L33.3046 85.0422L33.6727 85.4144L34.1809 85.6655L34.689 85.9165L35.5258 85.9129L36.3625 85.9092L36.9108 85.6642L37.459 85.4191L37.8378 84.9951L38.2165 84.5712L38.4396 84.0821L38.6626 83.5932L38.6631 82.6412L38.6636 81.6892L38.3674 81.0792L38.0713 80.4693L37.5932 80.1001L37.1151 79.731L36.5891 79.5731L36.0631 79.415L35.4806 79.4201L34.8982 79.4251L34.4275 79.5901ZM66.3156 79.5282L65.8316 79.6053L65.4003 79.854L64.969 80.1026L64.9058 80.3003L64.8426 80.498L64.9759 80.7498L65.1091 81.0017H65.3397H65.5702L66.0303 80.7958L66.4905 80.59L66.8834 80.6796L67.2762 80.7692L67.4301 80.8984L67.5841 81.0276V81.3335V81.6394L67.2441 81.8491L66.9042 82.0587L66.624 82.059L66.3439 82.0595L66.1795 82.2256L66.0151 82.3919L66.0167 82.6223L66.0184 82.8528L66.0952 82.9688L66.172 83.0849L66.7343 83.1506L67.2967 83.2162L67.5449 83.3807L67.7932 83.5452V83.9495V84.3538L67.5883 84.5413L67.3833 84.729L66.9051 84.7835L66.4269 84.8379L65.75 84.4904L65.073 84.143L64.8746 84.3245L64.6762 84.5061L64.6204 84.7222L64.5645 84.9384L64.8453 85.2022L65.1261 85.4661L65.5445 85.6862L65.9628 85.9063L66.695 85.9133L67.4272 85.9203L67.9233 85.6733L68.4194 85.4262L68.6554 85.0915L68.8915 84.7568V84.0307V83.3046L68.4535 82.9115L68.0154 82.5183L68.3304 82.1997L68.6455 81.881L68.704 81.4406L68.7624 81L68.5826 80.524L68.4028 80.048L67.9673 79.797L67.5318 79.5461L67.1657 79.4986L66.7996 79.4511L66.3156 79.5282ZM40.1391 79.7939L40.0757 79.9613V82.7874V85.6136L40.2012 85.7405L40.3267 85.8675H40.5986H40.8706L40.9961 85.7405L41.1216 85.6136V83.6779V81.7421H41.2113H41.3012L41.6672 82.2975L42.0333 82.8528L42.4689 83.4081L42.9046 83.9635H43.0482H43.1919L43.4903 83.6145L43.7888 83.2654L44.3117 82.5055L44.8347 81.7455L44.9132 81.7438L44.9916 81.7421V83.6386V85.535L45.1559 85.7013L45.3204 85.8675H45.5615H45.8027L45.9219 85.7223L46.0409 85.5772L46.0131 82.6283L45.9853 79.6795L45.5146 79.6484L45.0439 79.6174L44.066 80.9441L43.0879 82.271H43.0049H42.9221L42.8659 82.1231L42.8099 81.9752L41.9569 80.8009L41.1039 79.6266H40.6532H40.2026L40.1391 79.7939ZM49.7574 79.9644L49.6129 80.3141L48.5607 82.8793L47.5086 85.4446L47.569 85.6041L47.6296 85.7635L47.8872 85.829L48.1448 85.8943L48.3746 85.7884L48.6044 85.6826L48.8491 84.9817L49.0938 84.2808H50.3804H51.6672L51.9554 85.0237L52.2436 85.7666L52.4793 85.8263L52.7151 85.8862L52.8952 85.8504L53.0753 85.8146L53.1802 85.646L53.2852 85.4774L52.1703 82.7371L51.0553 79.9968L50.9675 79.8381L50.8798 79.6795L50.3908 79.6471L49.9018 79.6147L49.7574 79.9644ZM54.7913 79.6944L54.7189 79.7676V82.6906V85.6136L54.8444 85.7405L54.9699 85.8675L55.2367 85.8659L55.5034 85.8642L55.6509 85.7698L55.7984 85.6754L55.8252 85.4276L55.852 85.1799L55.8608 82.8928L55.8695 80.6057L56.8158 80.6082L57.7622 80.6107L57.8694 80.5023L57.9766 80.3939L57.9428 80.0367L57.9091 79.6795L56.3864 79.6503L54.8638 79.6212L54.7913 79.6944ZM60.6025 79.7535L60.4899 79.891L60.1776 80.6844L59.8652 81.4777L59.0702 83.3621L58.2751 85.2466V85.4383V85.63L58.4258 85.7564L58.5763 85.8828L58.8669 85.8486L59.1576 85.8146L59.2934 85.5501L59.4291 85.2857L59.6329 84.7832L59.8366 84.2808H61.1008H62.365L62.5169 84.6775L62.6686 85.0741L62.8515 85.4431L63.0342 85.812L63.2255 85.8492L63.4168 85.8862L63.67 85.822L63.9232 85.7577V85.5137V85.2697L63.1322 83.3738L62.341 81.4777L62.1343 80.9488L61.9275 80.4199L61.7483 80.0497L61.5691 79.6795L61.1421 79.6477L60.715 79.6161L60.6025 79.7535ZM70.8795 79.7312L70.8156 79.8358L70.816 82.763L70.8166 85.6901L70.9522 85.7771L71.088 85.8642L71.3756 85.8659L71.6633 85.8675L71.8556 85.6729L72.0478 85.4785L72.7708 84.4434L73.4937 83.4082L73.8396 82.919L74.1854 82.4297L74.3093 82.2446L74.433 82.0595H74.5125H74.5919V83.8365V85.6136L74.7174 85.7405L74.8429 85.8675H75.1284H75.4137L75.5781 85.7013L75.7424 85.535V82.7078V79.8804L75.6169 79.7535L75.4914 79.6266H75.0988H74.7062L73.8907 80.7714L73.0753 81.9161L72.6046 82.62L72.1339 83.3237L72.0555 83.3263L71.977 83.3288V81.6046V79.8804L71.8515 79.7535L71.726 79.6266H71.3347H70.9434L70.8795 79.7312ZM77.6949 79.6971L77.6251 79.7676V82.6906V85.6136L77.7507 85.7405L77.8762 85.8675H78.1616H78.447L78.6114 85.7013L78.7757 85.535V84.3904V83.2457L78.9158 83.1913L79.0559 83.1369L80.1448 83.1535L81.2337 83.1701L81.2635 84.3801L81.2932 85.5901L81.407 85.7288L81.5208 85.8675H81.8612H82.2017L82.3208 85.7223L82.4398 85.5772L82.412 82.6283L82.3842 79.6795L81.9847 79.6461L81.5851 79.6129L81.4355 79.7385L81.286 79.864V81.0146V82.1652H80.0308H78.7757V81.0632V79.9613L78.7122 79.7939L78.6487 79.6266H78.2067H77.7646L77.6949 79.6971ZM28.8124 80.4953L29.2358 80.6235L29.6236 80.9978L30.0115 81.3719L30.127 81.795L30.2426 82.2181L30.2431 82.7048L30.2438 83.1915L30.1232 83.551L30.0026 83.9106L29.8006 84.2039L29.5986 84.4971L29.1932 84.7063L28.7878 84.9155H28.2554H27.7231L27.4406 84.7662L27.1582 84.6171L26.8761 84.3167L26.594 84.0164L26.4316 83.6231L26.2692 83.2298L26.2715 82.6182L26.2738 82.0066L26.4668 81.5835L26.6599 81.1604L26.9253 80.9134L27.1906 80.6664L27.5928 80.5213L27.995 80.3763L28.192 80.3717L28.3891 80.367L28.8124 80.4953ZM36.3045 80.5849L36.7694 80.7983L37.0632 81.1311L37.357 81.4638L37.4606 81.841L37.5642 82.2181L37.5648 82.7545L37.5654 83.2908L37.2778 83.8652L36.9901 84.4395L36.5717 84.6818L36.1534 84.924L35.5008 84.8884L34.8482 84.8527L34.5655 84.6393L34.2828 84.4258L33.966 84.03L33.6493 83.6342L33.6079 82.8942L33.5665 82.1541L33.7374 81.7017L33.9083 81.2492L34.2084 80.9584L34.5086 80.6676L34.9126 80.522L35.3166 80.3763L35.5781 80.374L35.8396 80.3717L36.3045 80.5849ZM51.1022 82.985L51.1768 83.223H50.455H49.7332L49.674 83.1632L49.6148 83.1032L49.8733 82.4492L50.1318 81.795L50.2418 81.5306L50.352 81.2661L50.6898 82.0066L51.0277 82.747L51.1022 82.985ZM61.5116 82.2388L61.8314 82.9998V83.1114V83.223H61.0992H60.367V83.0981V82.9731L60.7015 82.1458L61.0359 81.3185L61.1138 81.3981L61.1918 81.4777L61.5116 82.2388Z" fill="white"/>
</svg>
