<svg width="148" height="67" viewBox="0 0 148 67" fill="none" xmlns="http://www.w3.org/2000/svg">
<path fill-rule="evenodd" clip-rule="evenodd" d="M33.8609 0.915281L33.801 0.938V1.0242V1.11044H33.7634H33.7258L33.634 1.25666L33.5422 1.40287L33.4559 1.4901L33.3696 1.57729V1.63821V1.69908L33.321 1.75342L33.2724 1.80777L33.1533 1.97846L33.0341 2.14919V2.19215V2.23516H32.9862H32.9383V2.32514V2.41512H32.8903H32.8424V2.462V2.50888L32.7825 2.57604L32.7226 2.64317L32.6627 2.70588L32.6028 2.7686V2.83932V2.91H32.5548H32.5069V2.97748V3.04496H32.459H32.411V3.13494V3.22492H32.3683H32.3256L32.2955 3.33739L32.2654 3.44986H32.2184H32.1714V3.53984V3.62982H32.1235H32.0755V3.6973V3.76479H32.0276H31.9797V3.85476V3.94474L31.9437 3.94515L31.9078 3.9456L31.8132 4.1476L31.7186 4.34964H31.6814H31.6442V4.43962V4.5296H31.5962H31.5483V4.64207V4.75454L31.5124 4.75481L31.4764 4.75513L31.3925 4.89342L31.3087 5.03176V5.0956V5.15944H31.2607H31.2128V5.24568V5.33188L31.1769 5.34691L31.1409 5.36189L31.0091 5.61005L30.8773 5.85821V5.91372V5.96924H30.8294H30.7814V6.05922V6.1492H30.7335H30.6856V6.26167V6.37414H30.6377H30.5897V6.46412V6.5541H30.547H30.5043L30.4742 6.66657L30.4441 6.77904H30.3971H30.3501V6.89151V7.00398H30.3022H30.2542V7.13522V7.2664L30.2183 7.28143L30.1823 7.29641L30.0505 7.55609L29.9187 7.81576V7.88226V7.94875H29.8708H29.8229V8.06122V8.17369H29.7749H29.727V8.28617V8.39864H29.6812H29.6355L29.604 8.5561L29.5725 8.71356H29.53H29.4874V8.84853V8.98349H29.4394H29.3915V9.09597V9.20844H29.3436H29.2956V9.29689V9.38533L29.2179 9.55557L29.1402 9.72581L29.0981 9.80391L29.056 9.88206V9.99511V10.1082H29.0081H28.9601V10.2657V10.4231H28.9122H28.8643V10.5266V10.6301L28.8233 10.6728L28.7823 10.7156L28.7035 10.949L28.6246 11.1824V11.2526V11.3229H28.5767H28.5288V11.5254V11.7278H28.4808H28.4329V11.8573V11.9868L28.361 12.1483L28.2891 12.3098V12.4237V12.5376H28.2412H28.1933V12.7401V12.9425H28.1453H28.0974V13.145V13.3474H28.0495H28.0015V13.5499V13.7523H27.9602H27.9189L27.8605 14.0335L27.8021 14.3147L27.7776 14.5509L27.753 14.7871H27.7095H27.666V15.057V15.3269H27.6226H27.579L27.5586 15.5631L27.5381 15.7993L27.4786 16.1367L27.4191 16.4741L27.3748 16.6123L27.3305 16.7505V17.0734V17.3964H27.2826H27.2347V17.8463V18.2962H27.1893H27.1438L27.115 18.9373L27.0862 19.5784L27.0839 21.7828L27.0815 23.9873L27.1146 24.6734L27.1476 25.3594H27.1911H27.2347V25.8543V26.3492H27.2826H27.3305V26.6497V26.9502L27.3759 27.0883L27.4212 27.2265L27.475 27.5414L27.5288 27.8563L27.5539 28.0925L27.579 28.3287H27.6226H27.666V28.5761V28.8236H27.7093H27.7526L27.7771 29.0373L27.8016 29.251L27.859 29.5209L27.9163 29.7908L27.9589 29.8336L28.0015 29.8763V30.0473V30.2182H28.0495H28.0974V30.4207V30.6231H28.1453H28.1933L28.1935 30.7469L28.1937 30.8706L28.3123 31.1855L28.4309 31.5004L28.4319 31.6241L28.4329 31.7479H28.4808H28.5288V31.9053V32.0628H28.5767H28.6246V32.1608V32.2588L28.6783 32.4195L28.732 32.5802L28.7981 32.7279L28.8643 32.8756V32.9641V33.0525H28.9122H28.9601V33.21V33.3675H29.0081H29.056V33.4998V33.6321L29.1039 33.6599L29.1518 33.6877L29.1521 33.7638L29.1524 33.8398L29.224 33.9687L29.2956 34.0976V34.1824V34.2672H29.3436H29.3915V34.4247V34.5822H29.4394H29.4874V34.692V34.8018L29.5353 34.8296L29.5832 34.8574V34.964V35.0706L29.6551 35.1381L29.727 35.2056V35.2988V35.392H29.7749H29.8229V35.5269V35.6619H29.8708H29.9187V35.7744V35.8868H29.9666H30.0146V35.9682V36.0496L30.0849 36.1369L30.1553 36.2243L30.1568 36.303L30.1584 36.3817H30.2063H30.2542V36.4942V36.6067H30.3022H30.3501V36.6726V36.7386L30.434 36.9088L30.5178 37.079L30.5538 37.094L30.5897 37.109V37.1952V37.2815H30.6377H30.6856V37.394V37.5064H30.7335H30.7814V37.5964V37.6864H30.8294H30.8773V37.7548V37.8232L30.9971 38.0013L31.1169 38.1795V38.2479V38.3162H31.1649H31.2128V38.4062V38.4962L31.2488 38.4964L31.2847 38.4965L31.3733 38.6988L31.4619 38.9011H31.5051H31.5483V38.9911V39.081H31.5962H31.6442V39.1485V39.216H31.6921H31.74V39.2799V39.3437L31.8239 39.482L31.9078 39.6203L31.9437 39.6206L31.9797 39.6209V39.7072V39.7934L32.0156 39.8084L32.0516 39.8234L32.1937 40.082L32.3358 40.3407H32.3734H32.411V40.4307V40.5207H32.459H32.5069V40.5882V40.6557H32.5548H32.6028V40.7263V40.7971L32.6627 40.8598L32.7226 40.9225L32.7825 40.9896L32.8424 41.0568V41.1037V41.1505H32.8903H32.9383V41.2405V41.3305H32.9787H33.019L33.1094 41.4879L33.1997 41.6454H33.2367H33.2738V41.7129V41.7804H33.3217H33.3696V41.8499V41.9194L33.4775 42.0277L33.5853 42.136L33.6452 42.2037L33.7051 42.2715V42.2951V42.3187L33.8357 42.4505L33.9664 42.5823L34.0994 42.4517L34.2324 42.3211V42.2963V42.2715L34.2812 42.2171L34.3301 42.1628L34.4489 42.0278L34.5678 41.8928L34.5678 41.8366L34.5679 41.7804H34.6158H34.6637V41.7129V41.6454H34.7117H34.7596V41.5887V41.532L34.8794 41.4107L34.9992 41.2894V41.22V41.1505H35.0472H35.0951V41.083V41.0156H35.143H35.1909V40.9449V40.8742L35.2509 40.8115L35.3108 40.7487L35.3707 40.6816L35.4306 40.6144V40.5676V40.5207H35.4785H35.5265V40.4307V40.3407L35.5624 40.3406L35.5983 40.3404L35.687 40.1381L35.7756 39.9358H35.8188H35.862V39.8684V39.8009H35.9099H35.9578V39.7109V39.6209H36.0057H36.0537V39.5571V39.4932L36.1376 39.3549L36.2214 39.2166L36.2574 39.2163L36.2933 39.216V39.126V39.0361H36.3413H36.3892V38.9236V38.8111L36.4251 38.8108L36.4611 38.8105L36.545 38.6722L36.6288 38.5339V38.4701V38.4062H36.6768H36.7247V38.3162V38.2263H36.7726H36.8205V38.1138V38.0013H36.8637H36.9069L36.9955 37.799L37.0842 37.5967L37.1201 37.5966L37.1561 37.5964V37.5064V37.4165H37.204H37.2519V37.304V37.1915H37.2998H37.3478L37.3493 37.1128L37.3508 37.0341L37.4212 36.9467L37.4916 36.8594V36.778V36.6966H37.5395H37.5874V36.5842V36.4717H37.6353H37.6833V36.3817V36.2917H37.7312H37.7791L37.7797 36.1905L37.7803 36.0893L37.8995 35.8935L38.0188 35.6977V35.5898V35.4819H38.0667H38.1146V35.3695V35.257H38.1626H38.2105V35.1951V35.1332L38.3303 34.8789L38.4501 34.6246V34.5359V34.4472H38.4981H38.546V34.3122V34.1773H38.5939H38.6419V34.0886V33.9999L38.7617 33.7455L38.8815 33.4912V33.3844V33.2775H38.9294H38.9774V33.12V32.9626H39.0253H39.0732V32.8051V32.6476L39.1092 32.6472L39.1451 32.6469L39.2325 32.3661L39.3198 32.0853L39.3643 32.0072L39.4087 31.929V31.7935V31.6579H39.4567H39.5046V31.5374V31.4168L39.5594 31.2562L39.6142 31.0955L39.6792 30.9259L39.7442 30.7563V30.6249V30.4935L39.7922 30.4657L39.8401 30.4379V30.2606V30.0833H39.888H39.936V29.9027V29.7221L39.9785 29.644L40.0211 29.5659L40.0804 29.296L40.1397 29.026L40.1626 28.8461L40.1854 28.6661L40.2284 28.6234L40.2715 28.5806V28.3422V28.1038H40.3194H40.3673V27.8413V27.5789L40.4033 27.5453L40.4392 27.5118L40.499 27.1217L40.5588 26.7316L40.5888 26.3604L40.619 25.9893H40.6609H40.7028V25.5619V25.1345H40.748H40.7932L40.8174 24.5834L40.8416 24.0323L40.8916 22.897L40.9416 21.7617L40.8915 20.6925L40.8414 19.6234L40.8173 19.0722L40.7932 18.5211H40.748H40.7028V18.1189V17.7166L40.6549 17.6888L40.607 17.661L40.6067 17.405L40.6064 17.149L40.5572 16.9827L40.508 16.8163L40.4577 16.5103L40.4074 16.2042L40.3833 15.923L40.3591 15.6418H40.3153H40.2715V15.3746V15.1073L40.2235 15.0795L40.1756 15.0517V14.8714V14.6912L40.1293 14.61L40.083 14.5288L40.0294 14.2643L39.9758 13.9998L39.9513 13.7861L39.9267 13.5724H39.8834H39.8401V13.3474V13.1225H39.7922H39.7442V12.9636V12.8047L39.6723 12.6432L39.6004 12.4816V12.3773V12.273L39.5525 12.2452L39.5046 12.2174V12.0401V11.8628H39.4567H39.4087V11.6828V11.5029H39.3608H39.3129L39.3113 11.4016L39.3098 11.3004L39.2225 11.0633L39.1352 10.8263L39.1042 10.7972L39.0732 10.7681V10.6406V10.5131H39.0253H38.9774V10.3557V10.1982H38.9294H38.8815V10.0659V9.93357L38.8393 9.90909L38.7972 9.88462L38.7195 9.66179L38.6419 9.43896V9.36869V9.29842H38.5939H38.546V9.16345V9.02848H38.4981H38.4501V8.91601V8.80354H38.4022H38.3543V8.71509V8.62664L38.2704 8.4564L38.1865 8.28617L38.1506 8.27119L38.1146 8.25616V8.12497V7.99374H38.0667H38.0188V7.88127V7.76879H37.9708H37.9229V7.68741V7.60603L37.8526 7.5187L37.7822 7.43138L37.7807 7.35265L37.7791 7.27392H37.7312H37.6833V7.18394V7.09396H37.6353H37.5874V6.98149V6.86902H37.5395H37.4916V6.78763V6.70625L37.4212 6.61892L37.3508 6.5316L37.3493 6.45287L37.3478 6.37414H37.2998H37.2519V6.28416V6.19418H37.204H37.1561V6.08171V5.96924H37.109H37.062L37.032 5.85677L37.0019 5.7443H36.9592H36.9164V5.65432V5.56434H36.8685H36.8205V5.45187V5.3394H36.7726H36.7247V5.24942V5.15944L36.6887 5.15917L36.6528 5.15886L36.5689 5.02056L36.485 4.88222V4.81838V4.75454H36.4371H36.3892V4.6683V4.5821L36.3532 4.56707L36.3173 4.55209L36.2214 4.37578L36.1256 4.19951L36.0783 4.11709L36.031 4.03472H35.9944H35.9578V3.94474V3.85476H35.9099H35.862V3.76479V3.67481H35.8192H35.7765L35.7464 3.56234L35.7163 3.44986H35.6693H35.6223V3.38238V3.3149H35.5744H35.5265V3.22492V3.13494H35.4785H35.4306V3.08901V3.04303L35.2988 2.85282L35.167 2.66256L35.131 2.64758L35.0951 2.63255V2.54635V2.46011H35.0472H34.9992V2.39263V2.32514H34.959H34.9188L34.8272 2.14568L34.7356 1.96627L34.6997 1.96573L34.6637 1.96523V1.89775V1.83026H34.6158H34.5679V1.74029V1.65031H34.5199H34.472V1.60343V1.55655L34.4121 1.48938L34.3522 1.42226L34.2923 1.35955L34.2324 1.29683V1.2486V1.20042H34.1844H34.1365V1.13343V1.06649L34.054 0.975971L33.9714 0.885498L33.9461 0.889052L33.9208 0.892606L33.8609 0.915281ZM34.054 4.30515L34.1365 4.39566V4.4851V4.57459H34.1844H34.2324V4.66456V4.75454H34.2803H34.3282V4.81654V4.87848L34.4001 4.9345L34.472 4.99051V5.07495V5.15944H34.5199H34.5679V5.22692V5.29441H34.6158H34.6637V5.38438V5.47436H34.7117H34.7596V5.53618V5.59799L34.8889 5.81736L35.0183 6.03672L35.0567 6.0517L35.0951 6.06673V6.17542V6.28416H35.143H35.1909L35.1902 6.3404L35.1895 6.39663L35.322 6.64407L35.4546 6.89151L35.4905 6.90649L35.5265 6.92152V7.05271V7.18394H35.5646H35.6027L35.6916 7.38639L35.7805 7.58884H35.8213H35.862V7.70131V7.81378H35.9099H35.9578V7.90376V7.99374H36.0057H36.0537V8.0753V8.15687L36.1735 8.39L36.2933 8.62313V8.66835V8.71356H36.3413H36.3892V8.84853V8.98349H36.4371H36.485V9.09597V9.20844H36.533H36.5809V9.28982V9.37121L36.6513 9.45853L36.7216 9.54585L36.7232 9.62459L36.7247 9.70332H36.7726H36.8205V9.86078V10.0182H36.8685H36.9164V10.0998V10.1814L37.0362 10.4145L37.1561 10.6476V10.7378V10.828H37.204H37.2519V10.963V11.098H37.2998H37.3478V11.2554V11.4129H37.3957H37.4436L37.4453 11.5141L37.447 11.6153L37.5155 11.7278L37.584 11.8403L37.5857 11.9415L37.5874 12.0427H37.6353H37.6833V12.2227V12.4026H37.7312H37.7791V12.5382V12.6738L37.8236 12.7519L37.8681 12.83L37.9434 13.0634L38.0188 13.2968V13.4121V13.5274H38.0667H38.1146V13.7298V13.9323H38.1626H38.2105V14.1272V14.3222L38.2441 14.3537L38.2777 14.3853L38.3631 14.7774L38.4485 15.1695L38.4493 15.2707L38.4501 15.3719H38.4981H38.546V15.6194V15.8668H38.5939H38.6419V16.1817V16.4966H38.6898H38.7377L38.738 16.7103L38.7382 16.924L38.7906 17.1012L38.8431 17.2784L38.8901 17.6186L38.9373 17.9588L38.9608 18.3299L38.9844 18.7011H39.0288H39.0732V19.2635V19.8258H39.1138H39.1544L39.1976 20.9168L39.2407 22.0078L39.2396 22.6376L39.2385 23.2675L39.1962 24.2685L39.1538 25.2695H39.1135H39.0732V25.8318V26.3942H39.0286H38.9839L38.962 26.8103L38.94 27.2265L38.86 27.6539L38.78 28.0813L38.7546 28.34L38.7292 28.5986H38.6855H38.6419V28.8461V29.0935H38.5958H38.5497L38.5267 27.6201L38.5038 26.1467L38.4593 25.5619L38.4148 24.977L38.3585 24.4372L38.3022 23.8973L38.2566 23.7398L38.211 23.5824L38.2108 23.3012L38.2105 23.02H38.1626H38.1146V22.6826V22.3452H38.0706H38.0266L38.0045 22.0415L37.9824 21.7378L37.9015 21.4004L37.8205 21.063L37.7952 20.8493L37.7699 20.6356H37.7266H37.6833V20.3882V20.1407H37.6404H37.5975L37.5738 19.972L37.5501 19.8033L37.469 19.5334L37.3879 19.2635L37.3626 19.1172L37.3373 18.971H37.2946H37.2519V18.7911V18.6111H37.204H37.1561L37.1559 18.4874L37.1556 18.3637L37.037 18.0487L36.9184 17.7338L36.9174 17.6551L36.9164 17.5764H36.8685H36.8205V17.4189V17.2614H36.7726H36.7247V17.1483V17.0353L36.6826 16.9571L36.6405 16.879L36.5628 16.7088L36.485 16.5386V16.4501V16.3617H36.4371H36.3892V16.2042V16.0467H36.3413H36.2933V15.9118V15.7768H36.2507H36.2082L36.1767 15.6194L36.1452 15.4619H36.0994H36.0537V15.3269V15.192H36.0057H35.9578V15.0795V14.967H35.9099H35.862V14.8768V14.7866L35.7421 14.5535L35.6223 14.3203V14.2388V14.1572H35.5744H35.5265V14.0485V13.9398L35.4905 13.9248L35.4546 13.9098L35.3641 13.6848L35.2736 13.4599L35.2206 13.3137L35.1675 13.1675H35.1313H35.0951V13.055V12.9425H35.0472H34.9992V12.887V12.8315L34.8674 12.5833L34.7356 12.3352L34.6997 12.3202L34.6637 12.3052V12.219V12.1327H34.6158H34.5679V12.0421V11.9515L34.508 11.8527L34.448 11.7538L34.3881 11.6926L34.3282 11.6314V11.5672V11.5029H34.2803H34.2324V11.4129V11.3229H34.1844H34.1365V11.2329V11.143H34.0937H34.051L34.0202 11.0275L33.9893 10.912L33.9071 10.9267L33.825 10.9414L33.8096 11.0422L33.7943 11.143H33.7497H33.7051V11.2329V11.3229L33.6692 11.3232L33.6332 11.3235L33.5494 11.4618L33.4655 11.6001V11.664V11.7278H33.4176H33.3696V11.8178V11.9078H33.3217H33.2738V12.0202V12.1327L33.2378 12.133L33.2019 12.1333L33.118 12.2716L33.0341 12.4099V12.4738V12.5376H32.9862H32.9383V12.6501V12.7626H32.8903H32.8424V12.8285V12.8945L32.7585 13.0647L32.6747 13.2349L32.6387 13.2499L32.6028 13.2649V13.3485V13.4321L32.5548 13.4599L32.5069 13.4877V13.62V13.7523H32.459H32.411V13.8423V13.9323H32.3631H32.3152V14.0361V14.14L32.2448 14.2274L32.1745 14.3147L32.1729 14.3934L32.1714 14.4721H32.1235H32.0755V14.6071V14.7421H32.0276H31.9797V14.8545V14.967H31.9437H31.9078L31.8137 15.2594L31.7197 15.5519H31.6819H31.6442V15.7093V15.8668H31.5962H31.5483V15.9555V16.0442L31.4285 16.2985L31.3087 16.5528V16.6597V16.7666H31.2607H31.2128V16.924V17.0815H31.1649H31.1169V17.2352V17.3889L31.081 17.4039L31.0451 17.4189L30.9612 17.6499L30.8773 17.8809V17.9734V18.0659L30.8294 18.0937L30.7814 18.1215V18.2539V18.3862H30.7335H30.6856V18.5886V18.7911H30.6431H30.6006L30.5746 18.9148L30.5486 19.0385L30.468 19.3084L30.3874 19.5784L30.3637 19.7471L30.34 19.9158H30.2971H30.2542V20.1182V20.3207H30.2109H30.1676L30.1432 20.5344L30.1187 20.7481L30.0374 21.063L29.9561 21.3779L29.933 21.6141L29.9098 21.8503H29.8663H29.8229V22.2102V22.5701H29.7789H29.7349L29.7095 22.8738L29.6841 23.1775L29.6324 23.6274L29.5807 24.0773L29.534 24.2691L29.4874 24.461V24.9552V25.4494H29.4394H29.3915V26.3717V27.294H29.3436H29.2956L29.2949 28.1375L29.2941 28.981L29.2541 29.0403L29.2142 29.0995L29.183 28.7844L29.1517 28.4693L29.1039 28.3511L29.056 28.2329V27.9209V27.6089H29.0081H28.9601V27.1365V26.6641H28.9151H28.8701L28.8485 26.158L28.827 25.6519L28.777 24.9545L28.727 24.2572L28.6731 23.2225L28.6193 22.1877L28.6734 21.243L28.7275 20.2982L28.7748 19.7583L28.8221 19.2185L28.8463 18.7573L28.8705 18.2962H28.9153H28.9601V17.9363V17.5764H29.0038H29.0475L29.0675 17.3177L29.0875 17.059L29.1487 16.7216L29.2099 16.3842L29.2528 16.3061L29.2956 16.2279V16.0024V15.7768H29.3436H29.3915V15.5069V15.2369H29.4394H29.4874L29.487 15.1132L29.4865 14.9895L29.5649 14.6746L29.6431 14.3597L29.6851 14.2816L29.727 14.2034V14.0229V13.8423H29.7749H29.8229V13.6398V13.4374H29.8708H29.9187V13.304V13.1705L29.9849 13.0228L30.051 12.875L30.1047 12.7144L30.1584 12.5537V12.4557V12.3577H30.2063H30.2542V12.2002V12.0427H30.3022H30.3501V11.9543V11.8658L30.4278 11.6956L30.5056 11.5254L30.5476 11.4473L30.5897 11.3691V11.2561V11.143H30.6377H30.6856V11.0305V10.918H30.7335H30.7814V10.8049V10.6919L30.8235 10.6137L30.8656 10.5356L30.9433 10.3654L31.0211 10.1951V10.1067V10.0182H31.069H31.1169V9.90577V9.79329H31.1649H31.2128V9.66098V9.52867L31.2607 9.50087L31.3087 9.47306V9.38893V9.30485L31.3806 9.23737L31.4525 9.16988V9.07667V8.98349H31.5004H31.5483V8.84853V8.71356H31.5962H31.6442V8.60109V8.48862H31.6921H31.74V8.40723V8.32585L31.8104 8.23852L31.8808 8.1512L31.8823 8.07247L31.8838 7.99374H31.9317H31.9797V7.88127V7.76879H32.0276H32.0755V7.63383V7.49886H32.1129H32.1503L32.2433 7.27392L32.3363 7.04897H32.3737H32.411V6.91401V6.77904H32.459H32.5069V6.68906V6.59908H32.5497H32.5924L32.6225 6.48661L32.6525 6.37414H32.6995H32.7465V6.26167V6.1492H32.7945H32.8424V6.05922V5.96924H32.8903H32.9383V5.85677V5.7443H32.9862H33.0341V5.65432V5.56434H33.0811H33.1282L33.1582 5.45187L33.1883 5.3394H33.231H33.2738V5.24942V5.15944H33.3217H33.3696V5.0956V5.03176L33.4535 4.89342L33.5374 4.75513L33.5733 4.75481L33.6093 4.75454V4.66456V4.57459H33.6572H33.7051V4.4851V4.39566L33.7877 4.30515L33.8702 4.21467H33.9208H33.9714L34.054 4.30515ZM23.2449 21.2464L23.2153 21.2742L22.6547 21.3162L22.0942 21.3583L22.0075 21.4019L21.9208 21.4454H21.585H21.2492L21.2195 21.4904L21.1899 21.5354H20.9291H20.6683V21.5804V21.6254H20.4076H20.1468L20.1172 21.6704L20.0875 21.7153H19.9285H19.7694L19.5973 21.7828L19.4252 21.8503H19.2828H19.1403L19.1106 21.8953L19.081 21.9403H18.9161H18.7512V21.9853V22.0303H18.5834H18.4157V22.0753V22.1202H18.2903H18.1649L17.9188 22.199L17.6728 22.2777L17.6568 22.3114L17.6408 22.3452H17.501H17.3612V22.3902V22.4352H17.1935H17.0257V22.4802V22.5251H16.9296H16.8335L16.5851 22.6376L16.3368 22.7501H16.2499H16.163V22.7951V22.8401H16.0432H15.9233V22.8851V22.93H15.8436H15.7638L15.58 23.0062L15.3961 23.0823V23.1186V23.155H15.2763H15.1565V23.2V23.245H15.086H15.0155L14.7385 23.3632L14.4615 23.4814L14.4455 23.5207L14.4295 23.5599H14.3137H14.1979V23.6049V23.6499H14.102H14.0062V23.6949V23.7398H13.9401H13.8741L13.8144 23.8073L13.7548 23.8748H13.6648H13.5748V23.9198V23.9648H13.5029H13.431V24.0098V24.0548H13.3352H13.2393V24.0998V24.1447H13.1493H13.0593L12.9996 24.2122L12.94 24.2797H12.874H12.8079V24.3247V24.3697H12.736H12.6641V24.4147V24.4597H12.5683H12.4724V24.4944V24.5292L12.3047 24.614L12.1369 24.6988V24.7367V24.7746H12.0411H11.9452V24.8108V24.8469L11.6936 24.9744L11.4419 25.1019L11.3644 25.1857L11.2869 25.2695H11.2326H11.1783V25.309V25.3485L11.0379 25.4031L10.8976 25.4577L10.8109 25.566L10.7242 25.6744H10.6603H10.5963L10.5358 25.7306L10.4752 25.7868L10.3414 25.8768L10.2077 25.9668L10.0961 26.068L9.98446 26.1692H9.95627H9.92814L9.85596 26.2255L9.78378 26.2817L9.66841 26.3829L9.55309 26.4842H9.52414H9.49524L9.28263 26.6866L9.06996 26.8891H9.02472H8.97942L7.99395 27.8113L7.00847 28.7335V28.7581V28.7827L6.90063 28.8926L6.79279 29.0026L6.68495 29.1139L6.57711 29.2253V29.2719V29.3185H6.52702H6.47689L6.35927 29.4289L6.2416 29.5393V29.5671V29.5948L6.18169 29.6541L6.12178 29.7134L6.02592 29.8383L5.93006 29.9632L5.87015 30.02L5.81024 30.0768V30.1281V30.1793L5.64249 30.3278L5.47473 30.4763V30.5398V30.6033L5.37887 30.6681L5.28302 30.733V30.7712V30.8095L5.2231 30.8722L5.16319 30.935L5.10328 31.0021L5.04337 31.0693V31.1161V31.163H4.99544H4.94751V31.2365V31.3099L4.86023 31.3827L4.77295 31.4554L4.68213 31.6016L4.59135 31.7479H4.55372H4.51615V31.8378V31.9278H4.46822H4.42029V31.976V32.0242L4.36038 32.0869L4.30046 32.1497L4.24055 32.2168L4.18064 32.2839V32.3533V32.4227H4.13271H4.08478V32.5187V32.6146L3.99578 32.6874L3.90677 32.7601L3.87274 32.8613L3.83866 32.9626H3.79399H3.74928V33.0525V33.1425H3.70135H3.65342V33.2288V33.315L3.61747 33.33L3.58152 33.345L3.44972 33.5931L3.31791 33.8413V33.8968V33.9523H3.26998H3.22205V34.0198V34.0873H3.17412H3.12619V34.1532V34.2192L3.04232 34.3894L2.95844 34.5597L2.92249 34.5746L2.88655 34.5897V34.6759V34.7621H2.83862H2.79069V34.8746V34.9871H2.74276H2.69483V35.0686V35.1502L2.57501 35.3833L2.45518 35.6165V35.6842V35.7519H2.40725H2.35932V35.8643V35.9768H2.3114H2.26347V36.0899V36.203L2.22138 36.2811L2.1793 36.3592L2.10156 36.5295L2.02382 36.6997V36.7881V36.8766H1.97589H1.92796V37.0341V37.1915H1.88003H1.8321V37.349V37.5064H1.78417H1.73624L1.73596 37.6077L1.73567 37.7089L1.66406 37.8377L1.59245 37.9666V38.0964V38.2263H1.54453H1.4966V38.4287V38.6312H1.44867H1.40074V38.8261V39.0211L1.36556 39.0541L1.33033 39.0871L1.26548 39.3428L1.20058 39.5984L1.17657 39.8571L1.15256 40.1158H1.1089H1.06523V40.4082V40.7006H1.0173H0.969373V41.083V41.4655H0.92638H0.883387L0.854582 42.0166L0.825776 42.5677L0.787912 43.31L0.75 44.0523L0.787864 44.7946L0.82568 45.5369L0.855493 46.0656L0.885353 46.5942H0.927339H0.969373V46.9991V47.404H1.0173H1.06523V47.6964V47.9888H1.11316H1.16109L1.16181 48.18L1.16253 48.3712L1.23159 48.5512L1.30066 48.7312L1.30277 48.8774L1.30488 49.0236H1.35281H1.40074V49.226V49.4285H1.44867H1.4966V49.6309V49.8334H1.54453H1.59245V49.9668V50.1003L1.6586 50.248L1.72474 50.3957L1.77842 50.5564L1.8321 50.7171V50.8151V50.9131H1.88003H1.92796V51.0706V51.228H1.97589H2.02382L2.0255 51.3293L2.02722 51.4305L2.09571 51.543L2.1642 51.6554L2.16593 51.7567L2.16761 51.8579H2.21554H2.26347V51.9704V52.0828H2.3114H2.35932V52.2178V52.3528H2.40725H2.45518V52.4166V52.4804L2.53518 52.6303L2.61517 52.7802L2.655 52.8583L2.69483 52.9364V53.0045V53.0726H2.74276H2.79069V53.1851V53.2975H2.83862H2.88655V53.3843V53.4711L2.95844 53.5385L3.03034 53.606V53.6741V53.7421L3.07827 53.7699L3.12619 53.7977V53.885V53.9724H3.17412H3.22205V54.0597V54.147L3.26998 54.1748L3.31791 54.2026V54.2899V54.3773L3.35386 54.3775L3.38981 54.3778L3.47368 54.5161L3.55756 54.6545V54.7183V54.7822H3.60549H3.65342V54.8721V54.9621H3.69617H3.73888L3.76898 55.0746L3.79903 55.1871H3.84605H3.89306V55.2545V55.322H3.94099H3.98892V55.412V55.502H4.03685H4.08478V55.592V55.6819H4.13271H4.18064V55.7386V55.7953L4.30046 55.9166L4.42029 56.0379V56.1074V56.1768H4.46822H4.51615V56.2443V56.3118H4.55521H4.59427L4.67474 56.458L4.75522 56.6042L4.81542 56.6936L4.87562 56.7829L4.95949 56.8563L5.04337 56.9297V56.9868V57.0438L5.16319 57.148L5.28302 57.2523V57.3219V57.3915H5.33095H5.37887V57.4385V57.4856L5.48672 57.5938L5.59456 57.7021L5.65447 57.7699L5.71438 57.8376V57.864V57.8905L5.8342 58.003L5.95403 58.1154V58.153V58.1905L6.14574 58.3759L6.33746 58.5613V58.5982V58.6351L6.55314 58.8464L6.76883 59.0577V59.0831V59.1086L6.93658 59.2615L7.10433 59.4144V59.438V59.4615L7.32001 59.6611L7.5357 59.8607V59.889V59.9173L7.60419 59.9816L7.67263 60.0459H7.69928H7.72588L8.27712 60.552L8.82835 61.0581L8.94717 61.1593L9.06603 61.2606H9.09331H9.12058L9.27937 61.4068L9.43816 61.553L9.5657 61.6542L9.69324 61.7554H9.71672H9.74021L9.91807 61.9129L10.0959 62.0704H10.1343H10.1727L10.3231 62.2053L10.4736 62.3403H10.5123H10.5509L10.6707 62.4528L10.7905 62.5652H10.8187H10.8468L10.9047 62.6111L10.9626 62.657L11.1064 62.7685L11.2502 62.8801L11.3101 62.8801L11.37 62.8802V62.9251V62.9701H11.4419H11.5138V63.0049V63.0396L11.6816 63.1244L11.8493 63.2092V63.2471V63.2851H11.9452H12.0411V63.33V63.375H12.091H12.1409L12.1988 63.4207L12.2567 63.4663L12.4386 63.5781L12.6205 63.69H12.6662H12.7121V63.7349V63.7799H12.8079H12.9038V63.8139V63.848L13.0596 63.9124L13.2153 63.9768L13.2786 64.0359L13.342 64.0949H13.4104H13.4789V64.1398V64.1848H13.5748H13.6707V64.2298V64.2748H13.7665H13.8624V64.3149V64.355L13.9822 64.3833L14.102 64.4115V64.4556V64.4998H14.1979H14.2937V64.5447V64.5897H14.4136H14.5334V64.6347V64.6797H14.6292H14.7251V64.7148V64.7499L14.9647 64.8372L15.2044 64.9244V64.9595V64.9946H15.3482H15.492V65.0396V65.0846H15.5567H15.6215L15.8468 65.1971L16.0722 65.3096H16.1655H16.2588V65.3545V65.3995H16.3787H16.4985V65.4445V65.4895H16.6383H16.7781L16.7941 65.5233L16.81 65.557L17.0561 65.6357L17.3022 65.7145H17.3796H17.4571V65.7594V65.8044H17.6009H17.7447V65.8494V65.8944H17.9124H18.0802V65.9305V65.9666L18.3318 66.0225L18.5834 66.0785L18.7152 66.104L18.847 66.1296V66.1694V66.2093H19.0627H19.2784V66.25V66.2906L19.5061 66.3118L19.7337 66.333L20.0213 66.4109L20.3089 66.4888L20.5485 66.5107L20.7882 66.5325L20.8337 66.5734L20.8792 66.6142H21.1572H21.4352V66.6559V66.6976L21.8306 66.7199L22.226 66.7421L22.8971 66.8165L23.5681 66.8909L24.8622 66.9142L26.1563 66.9375L26.8992 66.8665L27.6421 66.7956L27.8578 66.7694L28.0734 66.7431L28.4449 66.7202L28.8163 66.6974V66.6596V66.6219L29.1159 66.5988L29.4155 66.5756L29.6791 66.5297L29.9427 66.4839L30.2384 66.4254L30.5341 66.3668L30.5699 66.3331L30.6057 66.2993H30.7894H30.9732V66.2543V66.2093H31.1621H31.3509L31.3773 66.1693L31.4036 66.1293L31.5599 66.1043L31.7161 66.0794L31.9437 66.0216L32.1714 65.9639V65.9292V65.8944H32.3391H32.5069V65.8494V65.8044H32.6747H32.8424V65.7707V65.7369L33.1326 65.6499L33.4229 65.5628L33.447 65.5262L33.4711 65.4895H33.5881H33.7051V65.4445V65.3995H33.8461H33.9871L34.0167 65.3545L34.0463 65.3096H34.1393H34.2324V65.2666V65.2237L34.4001 65.1941L34.5679 65.1646V65.1246V65.0846H34.6637H34.7596V65.0396V64.9946H34.8794H34.9992V64.9496V64.9047H35.0859H35.1726L35.2657 64.8386L35.3587 64.7726L35.4426 64.7711L35.5265 64.7697V64.7247V64.6797H35.6223H35.7182V64.6347V64.5897H35.838H35.9578V64.5548V64.5199L36.1731 64.4311L36.3883 64.3423L36.3888 64.3086L36.3892 64.2748H36.485H36.5809V64.2298V64.1848H36.6528H36.7247V64.1398V64.0949H36.7927H36.8607L37.0081 64.0161L37.1554 63.9374L37.1558 63.9037L37.1561 63.8699H37.2519H37.3478V63.8359V63.8019L37.5035 63.7383L37.6593 63.6747L37.6833 63.6475L37.7072 63.6204L37.8374 63.5427L37.9675 63.465H38.0305H38.0935L38.1626 63.375L38.2317 63.2851H38.2815H38.3313L38.4605 63.1726L38.5898 63.0601H38.6637H38.7377V63.0151V62.9701H38.8096H38.8815V62.9282V62.8862L38.9654 62.8608L39.0493 62.8354L39.2024 62.7003L39.3556 62.5652H39.4066H39.4575L39.608 62.4303L39.7585 62.2953H39.7971H39.8357L39.9556 62.1828L40.0754 62.0704H40.1036H40.1317L40.2039 62.0141L40.2761 61.9579L40.3914 61.8567L40.5067 61.7554H40.5345H40.5622L40.7258 61.6092L40.8893 61.463L40.9618 61.4068L41.0343 61.3505H41.0591H41.0839L41.5202 60.9456L41.9566 60.5407H42.0247H42.0928V60.4943V60.4477L42.2589 60.2918L42.4251 60.1358H42.4746H42.5241V60.0719V60.0081L42.739 59.8133L42.9539 59.6185L42.9547 51.8466L42.9555 44.0748H34.0167H25.0778V47.6064V51.1381H25.1555H25.2331L25.4398 50.9356L25.6464 50.7332H25.6871H25.7277L25.7968 50.6432L25.8659 50.5532H25.9157H25.9655L26.0948 50.4407L26.224 50.3283H26.2979H26.3719V50.2833V50.2383H26.4438H26.5157V50.1933V50.1483H26.6116H26.7074L26.7077 50.1146L26.7081 50.0808L26.8554 50.0021L27.0028 49.9234H27.0708H27.1388V49.8784V49.8334H27.2586H27.3785V49.7884V49.7434H27.5222H27.666V49.7004V49.6575L27.8338 49.628L28.0015 49.5984V49.5585V49.5185H28.2172H28.4329V49.4735V49.4285H28.6965H28.9601V49.3835V49.3385H29.9906H31.0211V49.3835V49.4285H31.2847H31.5483V49.4735V49.5185H31.764H31.9797V49.5522V49.5859L32.2912 49.6742L32.6028 49.7625V49.7979V49.8334H32.7226H32.8424V49.8784V49.9234H32.9383H33.0341L33.0343 49.9571L33.0345 49.9908L33.25 50.074L33.4655 50.1572V50.1978V50.2383H33.5613H33.6572V50.2833V50.3283H33.7072H33.7572L33.8865 50.4407L34.0157 50.5532H34.0585H34.1013L34.1788 50.6324L34.2563 50.7117L34.4436 50.8426L34.6308 50.9735L34.9109 51.2388L35.1909 51.5041V51.5468V51.5895L35.3587 51.7424L35.5265 51.8954V51.9666V52.0378H35.5669H35.6072L35.6976 52.1953L35.7879 52.3528H35.8249H35.862V52.4202V52.4877H35.9099H35.9578V52.5777V52.6677H36.0057H36.0537V52.7577V52.8476H36.0964H36.1391L36.1692 52.9601L36.1993 53.0726H36.2463H36.2933V53.1851V53.2975H36.3413H36.3892V53.4325V53.5675H36.4371H36.485V53.6806V53.7936L36.5273 53.8718L36.5696 53.9499L36.6289 54.1523L36.6882 54.3548L36.7107 54.6135L36.7332 54.8721H36.7769H36.8205V55.7044V56.5367H36.7769H36.7332L36.7103 56.7954L36.6874 57.0541L36.6221 57.2866L36.5569 57.5191L36.5209 57.5528L36.485 57.5865V57.6915V57.7964H36.4371H36.3892V57.9539V58.1113H36.3413H36.2933V58.1669V58.2224L36.1615 58.4705L36.0297 58.7187L35.9938 58.7337L35.9578 58.7487V58.8349V58.9211H35.9099H35.862V58.9641V59.0071L35.7428 59.1778L35.6237 59.3485L35.5751 59.4029L35.5265 59.4572V59.4836V59.5101L35.4186 59.62L35.3108 59.7299L35.2029 59.8413L35.0951 59.9527V59.98V60.0073L35.0266 60.0715L34.9582 60.1358H34.9273H34.8965L34.8281 60.2001L34.7596 60.2644V60.2916V60.3188L34.5934 60.4747L34.4273 60.6307H34.3983H34.3693L34.3008 60.695L34.2324 60.7593V60.7882V60.8171L34.1639 60.8813L34.0954 60.9456H34.0378H33.9801L33.8218 61.1031L33.6636 61.2606H33.6231H33.5825L33.5134 61.3505L33.4443 61.4405H33.3765H33.3087L33.1977 61.553L33.0866 61.6655H33.0231H32.9594L32.8903 61.7554L32.8212 61.8454H32.7714H32.7216L32.5924 61.9579L32.4631 62.0704H32.3892H32.3152V62.1153V62.1603H32.2433H32.1714V62.2053V62.2503H32.0755H31.9797L31.9794 62.2841L31.9791 62.3178L31.8317 62.3965L31.6843 62.4753H31.6163H31.5483V62.5202V62.5652H31.4764H31.4045V62.6102V62.6552L31.3207 62.6558L31.2368 62.6563L31.0282 62.7682L30.8196 62.8802H30.7526H30.6856V62.9251V62.9701H30.5658H30.4459V63.0151V63.0601H30.3501H30.2542V63.1V63.1399L30.1224 63.1641L29.9906 63.1884L29.8109 63.2477L29.6311 63.3071V63.3411V63.375H29.4634H29.2956V63.42V63.465H29.1279H28.9601V63.51V63.555H28.8222H28.6842L28.5122 63.6225L28.3401 63.69H28.2188H28.0974V63.7349V63.7799H27.8338H27.5702V63.8214V63.8628L27.2227 63.8868L26.8752 63.9108L26.2761 63.959L25.677 64.0072H25.1258H24.5746L23.9755 63.9592L23.3764 63.9112L23.0528 63.8868L22.7293 63.8625V63.8212V63.7799H22.489H22.2487L22.1655 63.7403L22.0823 63.7005L21.8666 63.6461L21.6509 63.5917L21.4709 63.5686L21.2908 63.5455L21.2643 63.5052L21.2378 63.465H21.1208H21.0039V63.42V63.375H20.8361H20.6683V63.33V63.2851H20.5524H20.4365L20.2768 63.21L20.1172 63.1349L20.034 63.0975L19.9507 63.0601H19.8782H19.8056V63.0151V62.9701H19.6658H19.526L19.51 62.9364L19.4941 62.9027L19.2297 62.7789L18.9653 62.6552H18.9062H18.847V62.6102V62.5652H18.7512H18.6553V62.5202V62.4753H18.5868H18.5184L18.455 62.4163L18.3917 62.3573L18.2359 62.2928L18.0802 62.2284V62.1943V62.1603H17.9843H17.8884V62.1251V62.0897L17.7327 62.0045L17.5769 61.9193L17.4994 61.8374L17.4219 61.7554H17.3437H17.2656L17.0877 61.598L16.9099 61.4405H16.8721H16.8342L16.6306 61.2606L16.4271 61.0806H16.3904H16.3537L15.8004 60.5632L15.2472 60.0459H15.2019H15.1565V60.0059V59.9659L14.8449 59.6617L14.5334 59.3576V59.3156V59.2735L14.3656 59.1206L14.1979 58.9677V58.9094V58.851L14.102 58.7862L14.0062 58.7213V58.6831V58.6448L13.9462 58.5821L13.8863 58.5193L13.8264 58.4522L13.7665 58.385V58.3382V58.2913H13.7186H13.6707V58.2178V58.1444L13.5817 58.0716L13.4926 57.9989L13.4586 57.8976L13.4245 57.7964H13.3799H13.3352V57.7064V57.6165H13.2872H13.2393V57.549V57.4815H13.1914H13.1434V57.3915V57.3015L13.1075 57.3011L13.0715 57.3007L12.9769 57.0987L12.8823 56.8966H12.8451H12.8079V56.7842V56.6717H12.76H12.7121V56.5817V56.4917H12.6641H12.6162V56.4104V56.329L12.5459 56.2416L12.4755 56.1543L12.474 56.0756L12.4724 55.9969H12.4245H12.3766V55.8619V55.7269H12.3286H12.2807V55.6171V55.5073L12.2328 55.4795L12.1848 55.4517V55.3194V55.1871H12.1398H12.0949L12.0625 54.9846L12.0302 54.7822H11.9877H11.9452V54.6247V54.4672H11.9019H11.8586L11.8338 54.2535L11.809 54.0398L11.7542 53.8149L11.6992 53.59L11.6514 53.275L11.6037 52.9601L11.5587 52.8219L11.5138 52.6838V52.1134V51.543H11.4659H11.418V51.2055V50.8681H11.4659H11.5138V50.2409V49.6138L11.5618 49.5859L11.6097 49.5581V49.3655V49.1729L11.6811 48.952L11.7524 48.7312L11.753 48.5625L11.7535 48.3937H11.8014H11.8493V48.1913V47.9888H11.8973H11.9452V47.8089V47.6289H11.9931H12.0411L12.0427 47.5277L12.0445 47.4265L12.113 47.314L12.1814 47.2015L12.1832 47.1003L12.1848 46.9991H12.2328H12.2807V46.8416V46.6842H12.3286H12.3766V46.5717V46.4592H12.4245H12.4724V46.3933V46.3273L12.5563 46.1571L12.6402 45.9868L12.6761 45.9719L12.7121 45.9568V45.8706V45.7844H12.76H12.8079V45.6719V45.5594H12.8559H12.9038V45.4695V45.3795H12.9445H12.9852L13.0741 45.177L13.1631 44.9746H13.2012H13.2393V44.8846V44.7946H13.2872H13.3352V44.7466V44.6987L13.455 44.5512L13.5748 44.4037V44.3518V44.2998H13.6227H13.6707V44.2323V44.1648H13.7186H13.7665V44.0951V44.0255L13.8863 43.9213L14.0062 43.8171V43.7534V43.6898L14.102 43.6249L14.1979 43.56V43.5231V43.4862L14.2578 43.4184L14.3177 43.3507L14.4255 43.2424L14.5334 43.1341V43.1075V43.081L14.6412 42.9772L14.7491 42.8733L14.8569 42.7539L14.9647 42.6345V42.6091V42.5837L15.0332 42.5195L15.1017 42.4552H15.1313H15.1608L15.2784 42.3448L15.3961 42.2344V42.2066V42.1788L15.4646 42.1146L15.533 42.0503H15.5626H15.5922L15.7098 41.9399L15.8275 41.8295V41.8017V41.7739L15.896 41.7097L15.9644 41.6454H15.9914H16.0185L16.1457 41.5442L16.2729 41.443L16.3836 41.3417L16.4941 41.2405H16.5225H16.5508L16.6661 41.1393L16.7815 41.0381L16.8536 40.9818L16.9258 40.9256H16.9652H17.0045L17.0736 40.8356L17.1428 40.7456H17.2061H17.2695L17.3987 40.6332L17.528 40.5207H17.5884H17.6488V40.4757V40.4307H17.7207H17.7926V40.3857V40.3407H17.8679H17.9432L18.01 40.2845L18.0769 40.2283L18.1484 40.172L18.2199 40.1158H18.2699H18.3198V40.0708V40.0258H18.4157H18.5115V39.9808V39.9358H18.5795H18.6475L18.7949 39.8571L18.9423 39.7784L18.9426 39.7446L18.9429 39.7109H19.0627H19.1825V39.6659V39.6209H19.2784H19.3743V39.5759V39.5309H19.4673H19.5603L19.5899 39.4859L19.6196 39.441H19.7092H19.7988L19.8707 39.3735L19.9426 39.306H20.0419H20.1411V39.261V39.216H20.2849H20.4287V39.171V39.126L20.5126 39.1251L20.5965 39.1241L20.932 39.0128L21.2675 38.9015L21.3513 38.9013L21.4352 38.9011V38.8561V38.8111H21.6509H21.8666V38.7661V38.7211H22.0823H22.2979V38.6761V38.6312H22.5408H22.7835L22.8753 38.585L22.9671 38.5389L23.3635 38.4902L23.7598 38.4415L24.4185 38.4215L25.0773 38.4015L25.1027 38.3026L25.128 38.2038L25.1149 29.7234L25.1018 21.243L24.1882 21.2308L23.2745 21.2186L23.2449 21.2464ZM34.0886 26.2367L34.1544 26.3942H34.1934H34.2324V26.4757V26.5573L34.3522 26.7904L34.472 27.0236V27.0688V27.114H34.5199H34.5679V27.249V27.3839H34.6158H34.6637V27.4964V27.6089H34.7117H34.7596V27.722V27.835L34.8017 27.9132L34.8437 27.9913L34.9215 28.1615L34.9992 28.3318V28.4202V28.5087H35.0472H35.0951V28.7111V28.9136H35.143H35.1909V29.071V29.2285H35.2327H35.2744L35.306 29.4516L35.3375 29.6747L35.3841 29.7017L35.4306 29.7287V29.9285V30.1283H35.4785H35.5265V30.3757V30.6231H35.5703H35.6141L35.6389 30.9043L35.6638 31.1855L35.7138 31.5679L35.7638 31.9503L35.8173 32.2427L35.8708 32.5352L35.8486 33.8398L35.8264 35.1445L35.7438 35.5944L35.6611 36.0443L35.6376 36.3255L35.6141 36.6067H35.5703H35.5265V36.8541V37.1015H35.4785H35.4306V37.2725V37.4435L35.3877 37.4862L35.3448 37.5289L35.2879 37.7539L35.2309 37.9788L35.2057 38.125L35.1805 38.2712H35.1378H35.0951V38.4287V38.5862H35.0472H34.9992L34.9976 38.6874L34.9958 38.7886L34.9273 38.9011L34.8588 39.0136L34.8571 39.1148L34.8554 39.216H34.8075H34.7596V39.3285V39.441H34.7117H34.6637V39.5759V39.7109H34.6158H34.5679V39.8234V39.9358H34.5199H34.472L34.4705 40.0146L34.4689 40.0933L34.3986 40.1806L34.3282 40.2679V40.3493V40.4307H34.2803H34.2324V40.5207V40.6107H34.1844H34.1365V40.7231V40.8356H34.0918H34.0471L34.0171 40.9243L33.9871 41.013L33.8941 40.9585L33.801 40.9039V40.8248V40.7456H33.7531H33.7051V40.6332V40.5207H33.6572H33.6093L33.6077 40.442L33.6062 40.3632L33.5359 40.2759L33.4655 40.1886V40.1072V40.0258H33.4176H33.3696V39.9358V39.8459H33.3217H33.2738V39.7588V39.6718L33.1496 39.3877L33.0255 39.1035L32.9819 39.0254L32.9383 38.9473V38.8342V38.7211H32.8903H32.8424V38.5637V38.4062H32.7999H32.7574L32.7302 38.2825L32.703 38.1588L32.6434 37.9226L32.5838 37.6864H32.5454H32.5069V37.4839V37.2815H32.459H32.411V37.0341V36.7866H32.3678H32.3244L32.3012 36.5729L32.278 36.3592L32.2218 36.0218L32.1655 35.6844L32.1205 35.5462L32.0755 35.4081V34.9726V34.5372H32.0276H31.9797V33.345V32.1528H32.0276H32.0755V31.7479V31.343H32.1235H32.1714V31.1868V31.0306L32.2459 30.6806L32.3205 30.3307L32.3657 30.1926L32.411 30.0544V29.8889V29.7234H32.459H32.5069V29.6028V29.4823L32.5606 29.3217L32.6143 29.161L32.6804 29.0133L32.7465 28.8655V28.7572V28.6489L32.7945 28.6211L32.8424 28.5933V28.461V28.3287H32.8903H32.9383V28.2162V28.1038H32.9862H33.0341V28.0153V27.9269L33.1119 27.7566L33.1896 27.5864L33.2317 27.5083L33.2738 27.4301V27.3621V27.294H33.3217H33.3696V27.1627V27.0315L33.4056 27.0165L33.4415 27.0015L33.5254 26.8517L33.6093 26.7018V26.638V26.5741H33.6572H33.7051V26.4842V26.3942H33.7531H33.801V26.3261V26.258L33.8605 26.1686L33.9199 26.0793H33.9713H34.0228L34.0886 26.2367ZM45.9751 31.502V42.9292H48.4434H50.9118V32.9191V22.9091H53.1165H55.3213V21.492V20.0748H50.6482H45.9751V31.502ZM57.9095 20.4122V20.7496H57.8615H57.8136V21.222V21.6944H57.7657H57.7178V22.0569V22.4194L57.6698 22.608L57.6218 22.7966L57.5685 23.2915L57.5153 23.7864L57.4934 24.2025L57.4715 24.6187H57.4269H57.3822V25.1136V25.6084H57.3343H57.2864V25.9484V26.2884L57.2384 26.477L57.1904 26.6657L57.1372 27.1606L57.0839 27.6554L57.0622 28.0828L57.0404 28.5102L56.9956 28.553L56.9509 28.5957V29.0366V29.4775H56.906H56.8612L56.8379 29.9386L56.8146 30.3998L56.7676 30.8271L56.7206 31.2545L56.668 31.5215L56.6154 31.7884V32.0951V32.4018H56.5674H56.5195V32.8966V33.3915H56.4716H56.4237V33.782V34.1724L56.379 34.3106L56.3343 34.4488L56.2757 34.9886L56.2172 35.5285L56.1971 35.8884L56.1771 36.2483L56.1326 36.291L56.0882 36.3338V36.7972V37.2606H56.0402H55.9923V37.7104V38.1603H55.9517H55.9111L55.8808 38.644L55.8505 39.1276L55.8015 39.2847L55.7526 39.4419V39.7882V40.1345L55.7047 40.1623L55.6568 40.1901V40.6374V41.0846H55.6119H55.5671L55.5436 41.5457L55.5201 42.0069L55.473 42.4343L55.426 42.8617L55.4604 42.8959L55.4947 42.93L57.8405 42.9184L60.1861 42.9067L60.2235 42.6142L60.261 42.3218L60.2879 41.6582L60.3147 40.9946H60.3583H60.4018V40.2523V39.51H60.4471H60.4925L60.5112 38.9139L60.5299 38.3178L60.5952 37.5867L60.6605 36.8557H61.7568H62.853L62.9215 36.9199L62.99 36.9842V37.6623V38.3403H63.0356H63.0811L63.1046 39.0264L63.1281 39.7125L63.1753 40.3648L63.2226 41.0171L63.2727 41.4445L63.3229 41.8719L63.3242 42.2007L63.3255 42.5294L63.3791 42.7293L63.4327 42.9292H65.8036H68.1746L68.149 42.648L68.1235 42.3668L68.0741 41.8944L68.0248 41.422L67.9757 41.2061L67.9267 40.9902V40.6325V40.2748H67.8788H67.8308V39.8249V39.375H67.786H67.7412L67.7179 38.9139L67.6947 38.4528L67.6454 38.0008L67.5961 37.549L67.5469 37.3485L67.4977 37.1481L67.4965 36.7994L67.4953 36.4508H67.4474H67.3995V35.9559V35.461H67.3516H67.3036V35.1017V34.7425L67.2577 34.5506L67.2117 34.3588L67.1538 33.8414L67.096 33.324L67.0764 32.9529L67.0569 32.5817H67.0126H66.9681V32.0868V31.592H66.9235H66.8788L66.8587 31.1758L66.8384 30.7597L66.7828 30.2648L66.7272 29.7699L66.6799 29.5813L66.6326 29.3926V29.0302V28.6677H66.5847H66.5368V28.1953V27.7229H66.492H66.4473L66.4255 27.2843L66.4037 26.8456L66.3486 26.3283L66.2935 25.8109L66.2474 25.6805L66.2012 25.55V25.1743V24.7986H66.1533H66.1054V24.3038V23.8089H66.0608H66.0161L65.9942 23.3927L65.9723 22.9766L65.9191 22.4817L65.8658 21.9868L65.8179 21.7982L65.7699 21.6096V21.2471V20.8846H65.722H65.674V20.4797V20.0748H61.7917H57.9095V20.4122ZM72.9114 20.1198V20.1648H72.719H72.5266L72.4434 20.2051L72.3602 20.2455L72.1445 20.3276L71.9288 20.4096L71.8513 20.4897L71.7738 20.5697H71.6955H71.6173V20.6147V20.6597H71.5672H71.5171L71.4017 20.7609L71.2864 20.8621L71.2242 20.9128L71.1619 20.9636L71.0661 21.0889L70.9702 21.2144L70.9103 21.2712L70.8504 21.3281V21.3988V21.4695H70.8025H70.7545V21.5147V21.5599L70.6347 21.793L70.5149 22.0262V22.1527V22.2793H70.467H70.419V22.4727V22.6662L70.3591 22.7224L70.2992 22.7786L70.2831 25.0708L70.267 27.363H72.7155H75.164V25.3835V23.404H75.212H75.2599V23.312V23.2199L75.3776 23.1095L75.4952 22.9991H75.5932H75.6913V22.9541V22.9091H75.907H76.1226V22.9541V22.9991H76.2185H76.3143V23.0441V23.0891H76.3657H76.4171L76.4855 23.1534L76.554 23.2176V23.2658V23.314H76.6019H76.6499V26.1033V28.8926H76.6019H76.554V29.0097V29.1268L76.4222 29.3471L76.2904 29.5674L76.231 29.5674L76.1717 29.5675L76.0758 29.6445L75.9799 29.7216L75.6798 29.8004L75.3797 29.8792L74.0736 29.8808L72.7676 29.8824V31.1421V32.4018H74.0137H75.2599V32.4467V32.4917L75.4396 32.4924L75.6194 32.4931L75.7871 32.55L75.9549 32.6069L76.0747 32.6693L76.1945 32.7317L76.3265 32.8704L76.4584 33.0091L76.5062 33.0635L76.554 33.1178V33.2097V33.3015H76.6019H76.6499V36.4283V39.555H76.6019H76.554V39.602V39.6491L76.4462 39.7483L76.3383 39.8476L76.2043 39.9037L76.0702 39.9599H75.907H75.7437L75.6096 39.9037L75.4756 39.8476L75.3677 39.7483L75.2599 39.6491V39.5795V39.51H75.212H75.164V37.2156V34.9211H72.7157H70.2673L70.2832 37.583L70.2992 40.2448L70.3591 40.2636L70.419 40.2823V40.5035V40.7247H70.467H70.5149V40.8342V40.9437L70.641 41.2166L70.7671 41.4895H70.8087H70.8504V41.5795V41.6695H70.8983H70.9463V41.7165V41.7635L71.0541 41.8718L71.1619 41.9801L71.2183 42.0385L71.2745 42.0969L71.4339 42.2192L71.5933 42.3415L71.7085 42.4329L71.8237 42.5243H71.8882H71.9528V42.5692V42.6142H72.0486H72.1445V42.6592V42.7042H72.2787H72.4129L72.4584 42.7436L72.504 42.7829L72.8573 42.856L73.2107 42.9292H75.9009L78.591 42.9292L78.9624 42.8509L79.3339 42.7725V42.7384V42.7042H79.5016H79.6694V42.6592V42.6142H79.7653H79.8611V42.5692V42.5243H79.9309H80.0005L80.1204 42.4118L80.2402 42.2993H80.2685H80.2968L80.4198 42.1918L80.5428 42.0844L80.5908 42.0394L80.6387 41.9944L80.7531 41.879L80.8676 41.7635V41.7165V41.6695H80.9156H80.9635V41.5832V41.497L81.0033 41.482L81.0431 41.467L81.171 41.2111L81.299 40.9552V40.8625V40.7697H81.3469H81.3949V40.5223V40.2748H81.436H81.4771L81.5199 39.7687L81.5626 39.2626L81.5609 36.5407L81.5591 33.8189L81.518 33.4702L81.4769 33.1216H81.4359H81.3949V32.9641V32.8067H81.3469H81.299V32.7318V32.6569L81.2179 32.4844L81.1368 32.3118H81.0981H81.0594V32.2443V32.1768H81.0114H80.9635V32.0868V31.9969H80.914H80.8644L80.7009 31.8506L80.5374 31.7044L80.4649 31.6482L80.3924 31.592H80.3424H80.2925V31.547V31.502H80.2172H80.1418L80.07 31.4345L79.9981 31.367H79.9085H79.8188L79.7892 31.322L79.7596 31.277H79.6187H79.4777V31.232V31.1871H79.1422H78.8067V31.1421V31.0971H78.5431H78.2794V31.0134V30.9297L78.5311 30.9013L78.7827 30.8729L79.0104 30.8725L79.238 30.8721V30.8271V30.7822H79.4058H79.5735V30.7372V30.6922H79.7173H79.8611V30.6521V30.612L79.9809 30.5837L80.1008 30.5555V30.5114V30.4672H80.1966H80.2925V30.4222V30.3773H80.3442H80.396L80.6798 30.1109L80.9635 29.8446V29.796V29.7474H81.0114H81.0594V29.6574V29.5675L81.0953 29.5672L81.1312 29.5669L81.2151 29.4286L81.299 29.2902V29.2264V29.1626H81.3469H81.3949V28.9601V28.7577H81.4359H81.4769L81.5179 28.409L81.559 28.0603L81.5608 25.8784L81.5626 23.6964L81.5195 23.1903L81.4763 22.6842H81.4356H81.3949V22.4367V22.1893H81.3469H81.299V22.1017V22.0141L81.1792 21.8026L81.0594 21.591V21.5302V21.4695H81.0114H80.9635V21.3988V21.3281L80.9036 21.2712L80.8437 21.2144L80.7478 21.0889L80.652 20.9636L80.5897 20.9128L80.5275 20.8621L80.4122 20.7609L80.2968 20.6597H80.2573H80.2178L80.1487 20.5697L80.0796 20.4797H80.0232H79.9668L79.7582 20.3678L79.5496 20.2558L79.4417 20.2553L79.3339 20.2548V20.2098V20.1648H79.1182H78.9025V20.1198V20.0748H75.907H72.9114V20.1198ZM84.7499 31.502V42.9292H87.1425H89.535L89.6108 42.9018L89.6866 42.8745V32.8918V22.9091H90.4296H91.1725V32.9195V42.93L93.6049 42.9183L96.0373 42.9067L96.0494 31.4907L96.0614 20.0748H90.4057H84.7499V31.502ZM99.2725 31.502V42.9292H101.693H104.113V39.0387V35.1482L105.923 35.1347L107.732 35.1212L108.032 35.0582L108.331 34.9952V34.9582V34.9211H108.475H108.619V34.8761V34.8312H108.739H108.858V34.7892V34.7473L108.949 34.7204L109.039 34.6934L109.188 34.5599L109.337 34.4263L109.397 34.425L109.458 34.4238L109.577 34.2642L109.697 34.1046L109.799 34.003L109.901 33.9013L109.934 33.8038L109.967 33.7064H110.012H110.057V33.6165V33.5265H110.105H110.152V33.414V33.3015H110.2H110.248V33.1441V32.9866H110.291H110.334L110.358 32.8179L110.382 32.6492L110.431 32.4692L110.48 32.2893L110.533 31.6594L110.585 31.0296L110.584 27.5655L110.582 24.1013L110.513 23.37L110.443 22.6387L110.394 22.5519L110.344 22.4651V22.3272V22.1893H110.296H110.248V22.0318V21.8744H110.2H110.152V21.7844V21.6944H110.105H110.057V21.6306V21.5667L109.973 21.4284L109.889 21.2901L109.853 21.2898L109.817 21.2895V21.2449V21.2002L109.709 21.0808L109.601 20.9614L109.494 20.8667L109.387 20.7721L109.268 20.6709L109.149 20.5697H109.1H109.05V20.5247V20.4797H108.958H108.866L108.85 20.446L108.834 20.4122L108.653 20.3335L108.472 20.2548H108.401H108.331V20.2098V20.1648H108.115H107.9V20.1198V20.0748H103.586H99.2725V31.502ZM116.383 20.1198V20.1648H116.168H115.952V20.2098V20.2548H115.858H115.763L115.594 20.3306L115.425 20.4064V20.443V20.4797H115.329H115.233V20.5247V20.5697H115.182H115.13L115.067 20.6259L115.004 20.6822L114.876 20.7693L114.748 20.8565L114.655 20.9321L114.562 21.0077V21.0478V21.088L114.442 21.2093L114.322 21.3306V21.4V21.4695H114.274H114.226V21.5369V21.6044H114.179H114.131V21.6893V21.7741L114.059 21.903L113.987 22.0318L113.987 22.1106L113.987 22.1893H113.939H113.891V22.3917V22.5942H113.843H113.795V22.9541V23.314H113.747H113.699V31.502V39.69H113.747H113.795V40.0472V40.4045L113.843 40.4323L113.891 40.4601V40.6122V40.7644L113.93 40.7871L113.969 40.8097L114.062 41.0821L114.155 41.3545H114.191H114.226V41.4445V41.5345H114.274H114.322L114.323 41.5907L114.324 41.647L114.431 41.7747L114.538 41.9024L114.737 42.1009L114.937 42.2993H114.991H115.045L115.175 42.4118L115.304 42.5243H115.364H115.425V42.5692V42.6142H115.521H115.616V42.6592V42.7042H115.78H115.944L115.96 42.738L115.976 42.7717L116.311 42.8508L116.647 42.9299L119.409 42.9295L122.171 42.9292L122.374 42.8617L122.578 42.7942H122.716H122.854V42.7492V42.7042H122.974H123.093V42.6592V42.6142H123.173H123.253L123.464 42.4978L123.676 42.3815L123.821 42.2617L123.965 42.1418L124.045 42.0574L124.124 41.9731L124.232 41.8683L124.34 41.7635V41.722V41.6805L124.411 41.6245L124.483 41.5685V41.484V41.3995H124.531H124.579V41.3096V41.2196H124.627H124.675V41.1071V40.9946H124.723H124.771V40.8567V40.7188L124.824 40.626L124.877 40.5332L124.928 40.2803L124.98 40.0274L124.98 31.502L124.979 22.9766L124.929 22.7034L124.879 22.4302L124.825 22.3352L124.771 22.2402V22.1248V22.0093H124.723H124.675V21.8969V21.7844H124.627H124.579V21.6719V21.5594H124.531H124.483V21.4906V21.4216L124.411 21.3958L124.34 21.3699V21.2847V21.1995H124.292H124.244V21.1537V21.1079L123.955 20.8388L123.667 20.5697H123.596H123.525V20.5247V20.4797H123.453H123.381V20.4347V20.3897H123.304H123.228L123.077 20.3158L122.926 20.2419L122.842 20.2033L122.759 20.1648H122.591H122.422V20.1198V20.0748H119.403H116.383V20.1198ZM128.222 31.502V42.9292H130.642H133.063V35.8246V28.72L133.092 28.6489L133.121 28.5777H133.183H133.244L133.273 28.6489L133.302 28.72V28.8963V29.0726H133.35H133.398V29.365V29.6574H133.442H133.486L133.51 29.9386L133.534 30.2198L133.586 30.5347L133.637 30.8496L133.685 30.9801L133.734 31.1105V31.3512V31.592H133.782H133.83V31.8844V32.1768H133.873H133.917L133.94 32.458L133.964 32.7392L134.042 33.0991L134.121 33.459L134.149 33.7402L134.176 34.0214H134.219H134.261V34.3363V34.6512H134.305H134.348L134.373 34.9099L134.397 35.1686L134.447 35.4746L134.497 35.7807L134.547 35.947L134.596 36.1133L134.596 36.327L134.596 36.5407H134.644H134.692V36.8332V37.1256H134.736H134.78L134.803 37.4068L134.826 37.688L134.905 38.0479L134.984 38.4078L135.011 38.689L135.039 38.9701H135.081H135.124V39.2851V39.6H135.172H135.22V39.8105V40.021L135.264 40.1591L135.308 40.2973L135.364 40.6122L135.421 40.9271L135.467 41.1971L135.513 41.467L135.538 41.7707L135.563 42.0744H135.603H135.643L135.667 42.3555L135.69 42.6367L135.724 42.7829L135.758 42.9292H137.69H139.623L139.66 42.8729L139.698 42.8167L139.764 42.4793L139.831 42.1418L139.854 41.8607L139.877 41.5795H139.921H139.965V41.2871V40.9946H140.008H140.052L140.077 40.7135L140.101 40.4323L140.182 40.0499L140.262 39.6675L140.285 39.3863L140.308 39.1051H140.352H140.396V38.7902V38.4753H140.444H140.492V38.2795V38.0838L140.54 37.9533L140.589 37.8229L140.64 37.508L140.691 37.1931L140.715 36.9119L140.74 36.6307H140.783H140.827V36.3383V36.0459H140.875H140.923V35.8276V35.6094L140.971 35.479L141.018 35.3485L141.071 35.0561L141.124 34.7637L141.147 34.4825L141.171 34.2013H141.215H141.259V33.9089V33.6165H141.301H141.343L141.371 33.3353L141.398 33.0541L141.477 32.6942L141.556 32.3343L141.579 32.0531L141.602 31.7719H141.646H141.69V31.4795V31.1871H141.738H141.786V30.9643V30.7416L141.858 30.4825L141.93 30.2234V30.0555V29.8877L141.978 29.8599L142.026 29.8321V29.5648V29.2975H142.073H142.121V29.0019V28.7062L142.198 28.6347L142.274 28.5631L142.317 28.6267L142.36 28.6902L142.36 35.8101L142.361 42.93L144.793 42.9183L147.226 42.9067L147.238 31.4907L147.25 20.0748H144.039H140.827V20.3223V20.5697H140.779H140.731L140.731 20.7384L140.73 20.9071L140.659 21.128L140.588 21.3488V21.4965V21.6441L140.54 21.6719L140.492 21.6997V21.9445V22.1893H140.444H140.396V22.4592V22.7292H140.348H140.3L140.3 22.8979L140.301 23.0666L140.224 23.3815L140.147 23.6964L140.104 23.8346L140.06 23.9727V24.1832V24.3937H140.012H139.965V24.6637V24.9336H139.917H139.869V25.1615V25.3894L139.822 25.4706L139.776 25.5518L139.722 25.8163L139.668 26.0808L139.644 26.317L139.62 26.5532H139.577H139.533V26.8456V27.1381H139.491H139.449L139.421 27.3743L139.392 27.6104L139.315 27.9704L139.238 28.3303L139.213 28.5327L139.188 28.7352L139.145 28.7779L139.102 28.8206V29.0816V29.3425H139.054H139.006V29.5873V29.8321L138.958 29.8599L138.91 29.8877L138.91 30.0312L138.909 30.1748L138.838 30.3957L138.766 30.6165V30.7867V30.9568L138.718 30.9846L138.67 31.0124V31.2572V31.502H138.627H138.583L138.56 31.7607L138.538 32.0194L138.454 32.3793L138.371 32.7392L138.348 32.9754L138.326 33.2116H138.283H138.239V33.459V33.7064H138.191H138.143V33.932V34.1575L138.1 34.2357L138.057 34.3138L138.002 34.6062L137.948 34.8986L137.899 35.1461L137.849 35.3935L137.824 35.6522L137.799 35.9109H137.756H137.712V35.8209V35.7309H137.664H137.616L137.615 35.5622L137.615 35.3935L137.544 35.1461L137.473 34.8986L137.473 34.7551L137.472 34.6115L137.424 34.5837L137.376 34.5559V34.3336V34.1113H137.328H137.281V33.8189V33.5265H137.233H137.185L137.184 33.3578L137.184 33.1891L137.112 32.9682L137.041 32.7474V32.5746V32.4018H136.993H136.945V32.1543V31.9069H136.897H136.849V31.6369V31.367H136.801H136.753L136.754 31.1983L136.754 31.0296L136.677 30.7147L136.601 30.3998L136.557 30.2616L136.514 30.1234V29.9129V29.7024H136.466H136.418V29.4325V29.1626H136.37H136.322L136.321 28.9939L136.321 28.8251L136.249 28.6043L136.178 28.3834V28.2358V28.0881L136.13 28.0603L136.082 28.0325V27.7878V27.543H136.039H135.995L135.97 27.2843L135.945 27.0256L135.9 26.7782L135.856 26.5307L135.798 26.2833L135.74 26.0358L135.696 25.8977L135.651 25.7595V25.549V25.3385H135.603H135.555V25.0937V24.8489L135.507 24.8211L135.459 24.7933V24.5855V24.3776L135.416 24.2395L135.372 24.1013L135.296 23.7864L135.219 23.4715L135.219 23.3253L135.22 23.179H135.172H135.124V22.8866V22.5942H135.08H135.037L135.013 22.3805L134.988 22.1668L134.911 21.8069L134.834 21.447L134.805 21.2108L134.776 20.9746H134.734H134.692V20.7271V20.4797H134.644H134.596V20.2773V20.0748H131.409H128.222V31.502ZM61.9044 23.0553L61.9319 23.2015L61.9819 23.7639L62.0319 24.3263L62.0581 24.6637L62.0843 25.0011L62.108 25.7097L62.1318 26.4182H62.1775H62.2231V27.1129V27.8076L62.271 27.8354L62.319 27.8632V28.3522V28.8411L62.3687 29.1767L62.4184 29.5123L62.4682 30.226L62.5179 30.9396L62.5406 31.6257L62.5633 32.3118H62.6066H62.6499L62.6734 33.0204L62.6969 33.7289L62.7277 34.0326L62.7585 34.3363H61.7958H60.8332V33.9314V33.5265H60.8787H60.9243L60.9471 32.8404L60.9698 32.1543L61.0179 31.4795L61.0659 30.8047L61.1173 30.4234L61.1687 30.0422V29.56V29.0779L61.2166 29.0501L61.2645 29.0223V28.3276V27.6329H61.3102H61.3558L61.3783 26.9244L61.4008 26.2158L61.4493 25.5635L61.4977 24.9111L61.5489 24.5299L61.6 24.1486V23.732V23.3153L61.6579 23.1122L61.7158 22.9091H61.7963H61.8769L61.9044 23.0553ZM104.976 22.9541V22.9991H105.074H105.172L105.29 23.1095L105.407 23.2199V23.267V23.314H105.455H105.503V23.4013V23.4887L105.551 23.5165L105.599 23.5443V27.7706V31.9969H105.551H105.503V32.1093V32.2218H105.455H105.407V32.3118V32.4018H105.336H105.264L105.263 32.4355L105.263 32.4692L105.134 32.5255L105.005 32.5817H104.559H104.113V27.7454V22.9091H104.545H104.976V22.9541ZM119.595 22.9541V22.9991H119.694H119.793L119.862 23.0634L119.93 23.1276V23.1758V23.224H119.974H120.017L120.095 23.4602L120.173 23.6964L120.159 31.547L120.146 39.3975L120.066 39.5325L119.987 39.6675L119.893 39.7687L119.799 39.8699H119.721H119.642V39.9149V39.9599H119.355H119.067V39.9149V39.8699H118.992H118.917L118.86 39.8137L118.802 39.7574L118.719 39.6353L118.636 39.5131V31.4345V23.3559L118.719 23.2337L118.802 23.1116L118.86 23.0553L118.917 22.9991H118.992H119.067V22.9541V22.9091H119.331H119.595V22.9541Z" fill="white"/>
</svg>
