<svg width="117" height="86" viewBox="0 0 117 86" fill="none" xmlns="http://www.w3.org/2000/svg">
<path opacity="0.4" fill-rule="evenodd" clip-rule="evenodd" d="M51.3518 8.33546L47.4175 16.6709L47.3465 16.8565V16.8565C47.307 16.9598 47.357 17.0758 47.4592 17.118L48.1076 17.386L48.9396 17.73L49.7786 17.9775L50.6177 18.2251L51.7131 18.4441V18.4441C52.4423 18.5897 53.1817 18.6787 53.9247 18.7103L54.5155 18.7354L55.0208 18.7569C55.8206 18.7909 56.6219 18.7621 57.4173 18.6707V18.6707L58.6121 18.5334L59.5888 18.3225L60.5655 18.1118L61.4664 17.8105L62.3673 17.5091L63.0216 17.2168L63.5702 16.9716C63.6345 16.9429 63.676 16.879 63.676 16.8085V16.8085V16.6925L59.5591 8.34627L55.4422 0H55.3642H55.2861L51.3518 8.33546ZM63.9107 61.7399L63.1782 61.8987L62.586 62.1983L61.9937 62.498L61.4196 63.0831L60.8455 63.6681L60.5573 64.2468L60.2691 64.8254L60.0709 65.4985L59.8728 66.1716L59.8344 73.2931L59.7959 80.4147L59.9714 81.2561L60.1468 82.0975L60.4386 82.6939L60.7304 83.2903L61.2368 83.8114L61.7432 84.3323L62.4362 84.66L63.1292 84.9878L63.9422 85.1249L64.7553 85.262L65.894 85.1992L67.0329 85.1363L67.6853 84.9065L68.3377 84.6768L68.8603 84.3172L69.383 83.9577L69.8771 83.2864L70.3712 82.6153L70.6078 81.9038L70.8443 81.1925L70.9512 80.3412L71.0579 79.4898L71.0368 79.4701L71.0157 79.4504L69.1801 79.1806L67.3445 78.9108L67.2737 79.5964L67.2029 80.2821L66.9422 80.7907L66.6816 81.2994L66.312 81.5152L65.9424 81.731L65.397 81.7393L64.8515 81.7475L64.4748 81.5268L64.098 81.3063L63.8586 80.985L63.6191 80.6637V73.5884V66.513L63.8565 66.0578L64.094 65.6026L64.4824 65.3366L64.8708 65.0706L65.5784 65.1142L66.2858 65.1578L66.5896 65.4371L66.8932 65.7164L67.102 66.1806L67.3108 66.6448L67.3874 67.296L67.464 67.9473L67.5898 67.9015L67.7157 67.8559L69.4021 67.4204L71.0884 66.985L71.0184 66.4076L70.9483 65.8302L70.826 65.2612L70.7036 64.6923L70.36 64.0377L70.0165 63.3832L69.5124 62.9184L69.0083 62.4538L68.3051 62.1272L67.6019 61.8005L66.8622 61.6826L66.1225 61.5646L65.3829 61.5728L64.6432 61.581L63.9107 61.7399ZM76.9967 61.74L76.2637 61.8988L75.6607 62.1939L75.0578 62.4889L74.5683 62.9784L74.0786 63.468L73.7158 64.1488L73.3529 64.8295L73.1516 65.6143L72.9502 66.3992V73.5683V80.7373L73.1523 81.477L73.3543 82.2167L73.641 82.8072L73.9275 83.3978L74.5488 83.9656L75.17 84.5334L75.8201 84.7766L76.4702 85.0199L77.0301 85.126L77.59 85.2322L78.5701 85.2303L79.5503 85.2282L80.3207 85.065L81.0911 84.9017L81.7802 84.5344L82.4694 84.1671L82.8691 83.7039L83.2689 83.2408L83.5339 82.7226L83.799 82.2042L84.0006 81.5277L84.2022 80.8511L84.2432 73.8789L84.2842 66.9067L84.1059 65.8564L83.9275 64.8061L83.5854 64.1037L83.2432 63.4015L82.6197 62.8316L81.9961 62.2617L81.3748 62.0293L80.7535 61.7968L80.0382 61.6807L79.3227 61.5646L78.5262 61.5728L77.7296 61.581L76.9967 61.74ZM0.975098 73.3976V85.0046H2.85271H4.73032V73.3976V61.7905H2.85271H0.975098V73.3976ZM7.2338 73.3976V85.0046H9.11142H10.989L10.9934 78.3192L10.9977 71.6337L11.3491 72.5441L11.7005 73.4545L13.6121 78.2338L15.5236 83.0132L15.9196 83.9805L16.3156 84.9477L17.9766 84.9792L19.6374 85.0106V73.4006V61.7905H17.8167H15.996L15.9926 68.5328L15.9891 75.2752L15.8791 75.0868L15.7691 74.8984L15.211 73.3799L14.6529 71.8613L12.927 67.594L11.2011 63.3267L10.8964 62.5586L10.5917 61.7905H8.91273H7.2338V73.3976ZM21.2305 63.4974V65.2043H23.0513H24.872V75.1045V85.0046H26.7496H28.6272V75.1045V65.2043H30.5048H32.3824V63.4974V61.7905H26.8065H21.2305V63.4974ZM33.9756 73.3976V85.0046H39.1532H44.3309V83.2977V81.5908H41.0308H37.7308V78.2907V74.9907H40.6325H43.5343V73.2269V71.4631H40.6325H37.7308V68.3337V65.2043H41.0308H44.3309V63.4974V61.7905H39.1532H33.9756V73.3976ZM46.2654 73.3976V85.0046H48.143H50.0206V80.2252V75.4459H50.7904H51.5602L53.0421 80.1968L54.5239 84.9477L56.4258 84.9789L58.3276 85.0101V84.9775V84.9449L56.6184 79.8256L54.9092 74.7062L55.1675 74.5359L55.4258 74.3655L55.9691 73.8633L56.5124 73.3613L56.9094 72.5545L57.3064 71.7475L57.4756 70.8556L57.6448 69.9637V68.5613V67.1589L57.476 66.2764L57.3072 65.394L56.9704 64.6744L56.6337 63.9547L56.0724 63.3935L55.5112 62.8323L54.7996 62.4732L54.0881 62.1139L53.3345 61.9541L52.581 61.7945L49.4232 61.7924L46.2654 61.7905V73.3976ZM86.6625 73.3947V85.0046H88.4832H90.3039L90.3073 78.3192L90.3109 71.6337L90.4061 71.8044L90.5013 71.9751L91.3108 74.251L92.1202 76.5269L92.784 78.2338L93.4477 79.9408L94.5785 79.9728L95.7092 80.0049L96.323 78.4366L96.9368 76.8683L97.8826 74.251L98.8285 71.6337L98.8335 78.3192L98.8385 85.0046H100.659H102.48V73.3947V61.7847L100.708 61.8161L98.9359 61.8474L97.7469 64.9199L96.5578 67.9923L95.5777 70.6986L94.5975 73.4048L94.5619 73.3692L94.5263 73.3336L93.4448 70.3785L92.3631 67.4233L91.2984 64.6354L90.2335 61.8474L88.4479 61.8161L86.6625 61.7847V73.3947ZM104.983 73.3976V85.0046H106.861H108.739V80.581V76.1573L110.36 76.0996L111.982 76.042L112.665 75.7976L113.347 75.5531L113.93 75.1666L114.513 74.7802L114.922 74.2815L115.33 73.783L115.672 73.0497L116.014 72.3165L116.201 71.2355L116.388 70.1544L116.33 68.3337L116.272 66.513L116.025 65.6599L115.778 64.8069L115.482 64.2632L115.186 63.7196L114.633 63.2022L114.08 62.6849L113.467 62.4045L112.855 62.124L112.077 61.9593L111.299 61.7945L108.141 61.7924L104.983 61.7905V73.3976ZM79.6229 65.2693L79.9686 65.4481L80.2465 66.0552L80.5244 66.6622L80.4925 73.5291L80.4607 80.3959L80.1939 80.8614L79.9271 81.3268L79.5881 81.5271L79.2491 81.7273H78.5831H77.917L77.5648 81.5193L77.2127 81.3113L76.9591 80.7967L76.7055 80.2821V73.5683V66.8544L76.8575 66.4248L77.0095 65.9951L77.3033 65.6459L77.5973 65.2966L77.8341 65.2008L78.071 65.105L78.6741 65.0977L79.2771 65.0906L79.6229 65.2693ZM52.7367 65.5725L53.2632 65.8434L53.6025 66.5071L53.942 67.1707L53.9851 68.3348L54.0281 69.4991L53.8351 70.1631L53.6421 70.8269L53.2228 71.2463L52.8034 71.6656L52.3508 71.7914L51.8982 71.917L50.9594 71.9175L50.0206 71.9182V68.5446V65.1709L51.1154 65.2362L52.2102 65.3015L52.7367 65.5725ZM111.455 65.5713L111.982 65.8411L112.289 66.4046L112.596 66.9682L112.73 67.7628L112.865 68.5574L112.793 69.495L112.721 70.4326L112.493 71.0406L112.266 71.6487L111.951 71.9498L111.637 72.2507L111.141 72.4259L110.645 72.601H109.692H108.739V68.8859V65.1709L109.833 65.2362L110.928 65.3015L111.455 65.5713Z" fill="white"/>
<path opacity="0.4" fill-rule="evenodd" clip-rule="evenodd" d="M65.6215 20.7107C58.175 22.0426 52.5239 28.5362 52.5239 36.3462C52.5239 45.1196 59.655 52.2318 68.4517 52.2318C72.5706 52.2318 76.3244 50.6725 79.1519 48.1134L65.6215 20.7107Z" fill="white"/>
<path opacity="0.4" fill-rule="evenodd" clip-rule="evenodd" d="M45.668 20.7107C53.1146 22.0426 58.7656 28.5362 58.7656 36.3462C58.7656 45.1196 51.6345 52.2318 42.8379 52.2318C38.7189 52.2318 34.9652 50.6725 32.1376 48.1134L45.668 20.7107Z" fill="white"/>
</svg>
