<svg width="148" height="33" viewBox="0 0 148 33" fill="none" xmlns="http://www.w3.org/2000/svg">
<path opacity="0.4" fill-rule="evenodd" clip-rule="evenodd" d="M32.0268 0.977905L29.3189 1.20581L26.726 1.05316L24.1334 0.90077L23.3064 1.32691L22.4791 1.75278L22.311 2.18945L22.1428 2.62611V3.37132V4.11653L22.6844 4.6047L23.226 5.09288V16.1092V27.1255H22.6844H22.1428L21.6012 27.6649L21.0596 28.2043V28.9771V29.7498L21.621 30.4605L22.1821 31.1712H29.4543H36.7264L37.2875 30.4605L37.8489 29.7498V29.1483V28.5469L37.3019 27.8543L36.7549 27.1616L36.151 27.0761L35.5471 26.9907L35.4762 16.9016L35.405 6.81282L35.7936 6.22215L36.1822 5.63149L36.9924 5.29731L37.8023 4.96288L38.1219 4.19474L38.4414 3.42661L38.2651 2.62772L38.0891 1.82857L37.5738 1.36413L37.0584 0.899691L35.8967 0.824979L34.7348 0.75L32.0268 0.977905ZM3.97408 1.41727L3.19176 1.74469L2.75794 2.65092L2.32413 3.55715L2.7398 4.54806L3.15547 5.53898L4.45745 6.15365L5.7597 6.76832L10.3632 18.9746L14.9667 31.1811L16.1688 31.1089L17.3706 31.0363L19.0744 26.3164L20.7783 21.5964L20.7479 14.0446L20.7176 6.49267L20.5286 7.43666L20.3398 8.38064L20.1611 7.97608L19.9824 7.57151L19.4801 6.08811L18.978 4.6047L19.0955 3.63671L19.2131 2.66872L18.535 1.88359L17.8569 1.09847L11.3067 1.09415L4.75614 1.08957L3.97408 1.41727ZM40.4466 1.28942L40.022 1.52623L39.7312 2.06727L39.4404 2.60831L39.7304 3.47165L40.0204 4.33499L40.9024 4.903L41.7841 5.47074L47.5875 15.5566L53.3912 25.6421L53.8594 26.4224L54.3273 27.2026L56.3994 22.9161L58.4715 18.6296L58.8818 17.629L59.2921 16.6281L55.9949 10.9477L52.6979 5.26738L53.5328 4.49061L54.3674 3.71412V2.92009V2.12606L53.7982 1.61308L53.2292 1.10009L47.0502 1.07635L40.8712 1.05262L40.4466 1.28942ZM58.0759 1.39542L57.3166 1.80538L57.3989 2.93547L57.4815 4.06528L58.767 4.73956L60.0524 5.41383L60.0533 6.02661L60.0541 6.6394L58.9709 8.78521L57.8877 10.931V11.2026V11.4742L58.7396 12.8942L59.5915 14.3143L59.9983 14.9726L60.4053 15.6313L62.6957 11.0618L64.9861 6.49267L65.4312 5.98562L65.8762 5.47883L67.0306 4.98229L68.1852 4.48603L68.4522 3.78613L68.7195 3.08623V2.68679V2.28762L68.0547 1.62575L67.3902 0.963613L63.1127 0.974399L58.8355 0.98519L58.0759 1.39542ZM113.891 1.10494L113.707 1.28726L107.827 1.34687L101.947 1.40675L101.31 2.14413L100.673 2.88179V3.63401V4.38624L101.215 4.87441L101.756 5.36259V16.3789V27.3952H101.257H100.757L100.255 27.9481L99.7526 28.5008V29.4663V30.4316L100.378 30.9362L101.004 31.4409H108.15H115.296L115.838 30.9014L116.379 30.362V29.4696V28.5771L116.041 28.1156L115.702 27.6541L114.89 27.4378L114.078 27.2218L114.006 17.3965L113.934 7.57151L114.232 6.853L114.53 6.1345L115.33 5.80437L116.13 5.47425L116.526 4.91217L116.921 4.34982V3.48082V2.61208L116.312 1.92243L115.702 1.23278L114.888 1.0777L114.074 0.922347L113.891 1.10494ZM83.0039 1.46932L82.6654 1.57046L81.9208 2.26146L81.1761 2.95245L81.1847 3.91343L81.1934 4.87441L81.556 5.35045L81.9189 5.82649L83.0808 6.43873L84.2431 7.0507L84.4822 7.4461L84.7216 7.84122L89.1442 19.5736L93.5666 31.306L94.7778 31.3867L95.9891 31.467L97.7975 26.397L99.6058 21.3267L99.5303 13.9097L99.4547 6.49267L99.2072 7.70071L98.9594 8.90873L98.3271 7.04126L97.6946 5.17379V3.87783V2.58187L97.153 2.04245L96.6114 1.50303L96.1375 1.46635L95.6636 1.42967L89.503 1.39892L83.3424 1.36818L83.0039 1.46932ZM119.163 1.59959L118.681 1.86148L118.482 2.15438L118.283 2.44702L118.279 3.19708L118.275 3.94715L119.58 5.21991L120.884 6.49267L121.797 8.11093L122.709 9.7292L127.69 18.3599L132.67 26.9907L132.862 27.19L133.054 27.389L135.458 22.3624L137.862 17.3361L137.855 17.0389L137.847 16.7417L134.695 11.3057L131.544 5.86991V5.62313V5.37634L132.221 4.78999L132.898 4.20364V3.15609V2.10853L132.468 1.75305L132.038 1.39757L125.842 1.36764L119.645 1.3377L119.163 1.59959ZM137.163 1.47067L136.824 1.57343L136.351 1.98447L135.877 2.39577V3.00613V3.61648L136.046 4.05584L136.215 4.49493L137.535 5.16111L138.855 5.82757V6.23294V6.63831L137.634 9.06112L136.412 11.4839L137.67 13.6408L138.928 15.7977H139.02H139.111L141.578 10.9278L144.046 6.0579L145.039 5.61234L146.031 5.16678L146.641 4.63653L147.25 4.10601V3.22864V2.35127L146.565 1.81455L145.88 1.27756L141.691 1.32287L137.503 1.36818L137.163 1.47067ZM12.1881 2.95704L12.3885 3.25615L12.222 3.66071L12.0554 4.06528L11.8304 5.14412L11.6054 6.22296L11.5937 8.74017L11.5818 11.2576L11.2915 11.1611L11.0015 11.0648L9.46093 8.10527L7.92038 5.14574L6.84018 4.58771L5.76025 4.02941L5.6698 3.56227L5.57963 3.0954L5.91839 2.68868L6.25715 2.28223L9.12271 2.46995L11.988 2.65766L12.1881 2.95704ZM63.4198 2.73588L63.8452 3.15986V3.57198V3.98437L62.9042 4.92161L61.9634 5.85858L61.6856 5.68786L61.408 5.51686V5.13522V4.75331L60.5957 4.33499L59.7833 3.91667V3.43793V2.95947L60.1082 2.63582L60.4332 2.31216H61.7138H62.9941L63.4198 2.73588ZM90.776 3.15582L91.0333 3.39128L90.7083 4.28698L90.3831 5.18242V8.1816V11.1808L90.134 11.3342L89.8848 11.4874L89.3893 10.8515L88.8937 10.2158L87.7006 7.77461L86.5075 5.33373L85.3999 4.8345L84.2924 4.33499L84.1941 3.81337L84.096 3.29175L84.5651 2.95003L85.0341 2.60858L87.7764 2.76447L90.5185 2.92036L90.776 3.15582ZM141.852 2.86103L142.376 3.14018V3.82578V4.51138L141.584 5.29974L140.793 6.08811H140.544H140.296L139.998 5.4373L139.701 4.78622L139.168 4.61792L138.635 4.44935L138.495 4.08605L138.355 3.72275L138.756 3.15231L139.157 2.58187H140.242H141.328L141.852 2.86103ZM30.8052 3.25264L31.1397 3.65397L30.9775 4.07472L30.8153 4.49547L30.0327 4.76707L29.2498 5.03893L28.419 6.84464L27.5882 8.65035L27.0415 9.93148L26.4947 11.2126H26.0791H25.6631V8.01788V4.82317L25.1215 4.33499L24.5799 3.84682V3.50644V3.16634L24.9184 3.03013L25.2569 2.8942L27.8641 2.87289L30.4711 2.85158L30.8052 3.25264ZM48.8266 3.408L49.0046 3.6947L48.5691 4.17397L48.1334 4.65325L48.678 7.28832L49.2223 9.92339V10.568V11.2126H48.9935H48.7646L48.3587 10.7406L47.9528 10.2686L46.5132 7.70637L45.0737 5.14412L44.4232 4.60308L43.7725 4.06231L43.954 3.59167L44.1351 3.12129H46.3919H48.6487L48.8266 3.408ZM109.556 3.95928L109.638 4.66242L108.824 4.99794L108.011 5.33346L107.645 5.91306L107.279 6.49267L106.368 8.65035L105.457 10.808L105.122 11.177L104.787 11.5462L104.49 11.3634L104.194 11.1808V8.12793V5.07534L103.787 4.73956L103.381 4.40377V3.94229V3.48082L103.57 3.29256L103.76 3.10403L106.617 3.18009L109.474 3.25615L109.556 3.95928ZM127.482 3.79935V4.20742L127.173 4.69964L126.865 5.19186L127.446 8.1193L128.028 11.0467L127.778 11.2949L127.529 11.5433L127.259 11.3769L126.989 11.2104L125.312 8.23932L123.635 5.26846L123.122 4.99443L122.608 4.72067V4.23547V3.75053L122.788 3.5709L122.969 3.391H125.225H127.482V3.79935ZM69.3066 11.1055L67.892 11.8079L67.2412 12.6577L66.5902 13.5076L66.2775 14.3153L65.965 15.1234L65.9612 16.6683L65.9574 18.2129L66.5445 19.421L67.1316 20.6287L68.0571 21.4381L68.9827 22.2475L70.396 22.6656L71.809 23.0836L72.7692 22.9105L73.7292 22.7373L74.6954 22.2537L75.6616 21.7704L76.6408 20.691L77.6197 19.6119L77.907 18.5814L78.1943 17.5508L78.1933 16.472L78.1919 15.3931L77.552 14.0446L76.9119 12.696L76.1328 11.9686L75.354 11.2412L74.3472 10.8223L73.3403 10.4035H72.0308H70.7215L69.3066 11.1055ZM4.64511 11.3315L4.4607 11.8103L4.60937 17.6565L4.75804 23.5028L4.39734 24.3575L4.03637 25.2119L2.65748 26.1988L1.27832 27.1856L1.0143 27.6773L0.75 28.169V28.959V29.749L1.46382 30.4602L2.1779 31.1712H6.30184H10.4255L11.139 30.6121L11.8526 30.0532V29.0019V27.9508L11.0137 27.3359L10.175 26.7209L9.52429 25.6184L8.87385 24.5158V22.7942V21.0727L7.07387 16.2101L5.27363 11.3475L5.05185 11.1001L4.8298 10.8528L4.64511 11.3315ZM83.3424 17.6452V24.1854L82.9552 24.9314L82.5677 25.6777L81.4452 26.4523L80.3228 27.2272L79.8015 27.8869L79.2805 28.5469V29.2055V29.8641L80.072 30.6525L80.8636 31.4409H84.9241H88.9847L89.4231 31.2734L89.8615 31.1059L90.2577 30.3426L90.6539 29.5796V29.1456V28.7114L89.2899 27.2749L87.9259 25.8384L87.6651 24.933L87.4043 24.0273V22.5706V21.1139L85.6312 16.3662L83.858 11.6182L83.6002 11.3615L83.3424 11.1047V17.6452ZM71.5263 13.0542L72.0313 13.5051L72.2791 14.1508L72.5269 14.7965L72.2255 15.7062L71.9238 16.6162L71.1475 17.016L70.3711 17.4159H69.8368H69.3025L68.4696 16.7177L67.6363 16.0194V14.8766V13.7341L68.2456 13.182L68.8549 12.6299L69.2611 12.4762L69.6673 12.3227L70.3443 12.463L71.0213 12.6032L71.5263 13.0542ZM45.025 21.8486L44.7542 21.9538L44.0144 22.1162L43.2748 22.2785L42.3395 23.0963L41.4044 23.9141L40.9481 25.104L40.4918 26.2937L40.6733 27.4991L40.855 28.7041L41.4505 29.5845L42.0462 30.4648L43.3466 31.1312L44.6469 31.7977L46.5961 31.8066L48.5453 31.8152L49.7639 31.2567L50.9824 30.6981L51.9803 29.6535L52.9782 28.6089L52.0301 26.9907L51.0818 25.3724L50.3415 24.166L49.6011 22.9593L48.7608 22.4706L47.9206 21.9819L46.6083 21.8624L45.2958 21.7432L45.025 21.8486ZM123.246 22.2483L122.395 22.4603L121.476 23.0265L120.556 23.5926L119.957 24.6542L119.358 25.7155V27.1082V28.5008L119.751 29.2565L120.143 30.0122L121.083 30.8346L122.023 31.6566L123.412 31.9533L124.801 32.25H125.551H126.301L127.682 31.8414L129.063 31.4328L130.371 30.2496L131.679 29.0663L130.867 27.5438L130.055 26.021L129.581 25.5056L129.107 24.9905V24.7459V24.5012L128.541 23.7851L127.976 23.0691L127.252 22.6961L126.527 22.323L125.312 22.1796L124.097 22.0361L123.246 22.2483ZM47.0361 23.5208L47.5975 24.2315V24.5633V24.895L47.0361 25.6057L46.4751 26.3164H45.5005H44.5259L44.0309 25.87L43.5356 25.4236V24.5368V23.6498L44.1376 23.2301L44.7393 22.8101H45.6072H46.4751L47.0361 23.5208ZM125.586 23.6193L126.128 24.1587V24.8791V25.5998L125.68 26.0928L125.232 26.5861H124.19H123.149L122.608 26.0467L122.066 25.5072V24.9177V24.3283L122.655 23.704L123.244 23.0799H124.144H125.045L125.586 23.6193ZM6.43669 27.7431L7.11368 28.083L7.1979 28.6661L7.28238 29.2492L6.60188 29.6931L5.92137 30.1374H4.67653H3.43168L2.76796 29.7039L2.10397 29.2708V28.9142V28.5577L2.57787 28.1464L3.05176 27.7353L3.45795 27.5864L3.86414 27.4378L4.81192 27.4206L5.7597 27.403L6.43669 27.7431ZM85.5199 28.3492L86.0504 28.8274V29.0448V29.2621L85.4931 29.7795L84.9355 30.2965L84.0145 30.4454L83.0936 30.5942L82.1379 30.3315L81.1826 30.0686L80.9191 29.5782L80.6553 29.0879L80.9835 28.6564L81.3115 28.2248L81.9885 27.9476L82.6654 27.6703L83.8274 27.7707L84.9891 27.8707L85.5199 28.3492ZM104.502 28.5814L105.217 28.7392L105.392 29.1939L105.567 29.6486L105.142 30.0729L104.716 30.4969H103.11H101.505L101.045 30.0384L100.584 29.5799L100.934 29.1607L101.283 28.7416L102.129 28.5002L102.975 28.2586L103.381 28.3414L103.787 28.4239L104.502 28.5814Z" fill="#fff"/>
</svg>
