<svg width="146" height="86" viewBox="0 0 146 86" fill="none" xmlns="http://www.w3.org/2000/svg">
<path fill-rule="evenodd" clip-rule="evenodd" d="M50.4802 9.11869L49.9988 9.22252L49.5174 9.45635L49.0359 9.69011L48.5881 10.1438L48.1403 10.5974L48.0384 10.8429L47.9365 11.0885L47.4703 11.0408L47.0039 10.9931L46.5015 11.0703L45.9991 11.1475L45.4807 11.4002L44.9622 11.6529L44.5528 12.0623L44.1434 12.4717L43.9338 12.8849L43.7243 13.2981L43.622 13.6819L43.5196 14.0657L43.5188 14.599L43.5179 15.1323L43.6904 15.6749L43.8629 16.2174L43.426 16.4224L42.989 16.6274L42.7578 16.955L42.5265 17.2826H42.4666H42.4069L42.406 17.0052L42.4051 16.7279L42.3053 16.3582L42.2055 15.9884L42.0399 15.6397L41.8744 15.2908L41.5778 14.9544L41.2812 14.6179L40.9562 14.4278L40.6313 14.2377L40.2414 14.1341L39.8515 14.0305L39.547 14.0296L39.2425 14.0287L39.2031 13.3816L39.1639 12.7345L38.9674 12.2125L38.7708 11.6904L38.3853 11.1808L37.9998 10.6711L37.5436 10.361L37.0873 10.0509L36.6548 9.88291L36.2222 9.71489L35.4214 9.68191L34.6206 9.64892L34.2733 9.74255L33.9261 9.83624L33.4646 10.0171L33.003 10.1979L32.6498 9.93977L32.2966 9.68176L31.8198 9.48202L31.3431 9.28235L30.8006 9.24138L30.258 9.20041L29.7753 9.33086L29.2926 9.46131L28.8688 9.73574L28.4451 10.0103L28.1759 10.3094L27.9066 10.6085L27.7094 10.9446L27.5121 11.2807L27.3971 11.8437L27.2821 12.4068L27.3627 12.8639L27.4434 13.321L27.6269 13.6956L27.8105 14.0702L28.0804 14.385L28.3503 14.6998L28.7917 14.9992L29.2332 15.2984L29.1841 15.7562L29.135 16.2139L29.2143 16.6416L29.2935 17.0694L29.5296 17.5642L29.7658 18.0591L30.2164 18.509L30.6671 18.959L31.1486 19.1872L31.63 19.4154L32.0943 19.4987L32.5587 19.5821L32.9915 19.5332L33.4244 19.4843L33.4748 19.685L33.5252 19.8857L33.6886 20.1112L33.852 20.3368L34.2758 20.6127L34.6994 20.8886L34.498 20.929L34.2964 20.9694L34.0391 21.1428L33.7817 21.3162L33.5576 21.6296L33.3336 21.9429L33.0373 21.905L32.741 21.8671L32.1477 21.8207L31.5543 21.7741L30.939 21.9294L30.3237 22.0848L29.8867 22.3499L29.4497 22.6149L29.1218 22.9992L28.7937 23.3836L28.5692 23.8273L28.3447 24.271L28.2282 24.7747L28.1118 25.2785V25.4856V25.6927L27.6118 25.9384L27.1119 26.1842L26.7301 26.5653L26.3483 26.9464L26.1192 27.3996L25.8901 27.8527L25.8018 28.3669L25.7135 28.8812L25.7961 29.4141L25.8787 29.9472L26.1097 30.4156L26.3407 30.8841L26.8274 31.363L27.3143 31.8419L27.8786 32.1203L28.443 32.3988L29.084 32.4293L29.7249 32.4599L30.122 32.3312L30.519 32.2026L30.7782 32.0471L31.0375 31.8917L31.3602 31.5957L31.683 31.2998L31.9092 30.9653L32.1354 30.6308L32.142 30.6184L32.1487 30.6059L32.5536 30.7108L32.9585 30.8157L33.4793 30.8151L34.0002 30.8146L34.4733 30.6709L34.9465 30.5273L35.3341 30.2703L35.7217 30.0133L35.9884 29.6883L36.2552 29.3633L36.4408 28.9585L36.6264 28.5539L36.6842 28.1523L36.7422 27.7508L37.3971 27.6641L38.0521 27.5774L38.4661 27.3661L38.88 27.1547L39.1912 26.7736L39.5024 26.3924L39.6707 25.9603L39.8391 25.5281L39.8717 24.7441L39.9042 23.9601L39.6186 23.913L39.333 23.8659L39.2189 23.8651L39.1048 23.8642L38.9721 24.3634L38.8394 24.8626L38.647 25.2167L38.4546 25.5708L38.1471 25.8538L37.8397 26.1368L37.4039 26.2995L36.9681 26.4624L36.4154 26.5129L35.8627 26.5635L35.778 26.9332L35.6934 27.303L35.5339 27.6591L35.3745 28.0151L34.9074 28.4815L34.4404 28.9477L34.0351 29.153L33.6298 29.3582L33.1854 29.4622L32.741 29.5663L32.193 29.5507L31.645 29.5351L31.4017 29.8951L31.1583 30.2549L30.8848 30.4586L30.6113 30.6622L30.2401 30.7852L29.8689 30.9083L29.4449 30.87L29.0208 30.8315L28.696 30.6868L28.371 30.5422L28.0489 30.2282L27.7269 29.9143L27.5381 29.5026L27.3493 29.091L27.3497 28.6037L27.3501 28.1164L27.5185 27.7267L27.6869 27.337L28.0708 26.9872L28.4546 26.6374L28.8942 26.4816L29.3339 26.3257L29.3908 25.853L29.4477 25.3802L29.6825 24.9124L29.9173 24.4445L30.2893 24.1106L30.6612 23.7768L31.1009 23.5551L31.5407 23.3335L31.9782 23.1939L32.4157 23.0544L33.0208 22.9786L33.626 22.9029H34.0577H34.4895L34.8996 22.4605L35.3099 22.018L35.8002 21.777L36.2905 21.5361L36.8304 21.5088L37.3702 21.4816V21.1628V20.844L37.1295 20.7919L36.8888 20.7399L36.451 20.5202L36.0132 20.3004L35.6106 19.9203L35.2081 19.5402L35.0214 19.2222L34.8348 18.9042L34.746 18.604L34.6572 18.3038L34.0681 18.2804L33.479 18.2569L32.9989 18.1332L32.5188 18.0097L32.092 17.7832L31.6652 17.5568L31.2992 17.1971L30.9332 16.8374L30.7123 16.3752L30.4914 15.9129L30.3972 15.2632L30.3032 14.6134L30.0644 14.4661L29.8257 14.3188L29.5891 14.0497L29.3524 13.7806L29.2399 13.5164L29.1274 13.2522L29.1272 12.7345L29.127 12.2169L29.2932 11.8678L29.4593 11.5187L29.7451 11.2609L30.0309 11.0031L30.3489 10.8411L30.6669 10.6791H31.1502H31.6335L31.998 10.8401L32.3625 11.0011L32.601 11.1828L32.8395 11.3644L33.1606 11.247L33.4817 11.1297L34.1527 11.0908L34.8237 11.0519L35.2638 11.1788L35.7037 11.3056L36.1264 11.5294L36.5489 11.7533L36.9904 12.1941L37.4319 12.6349L37.691 13.1284L37.9502 13.622L38.0676 14.0763L38.185 14.5308V14.793V15.0553L38.2464 15.0932L38.3079 15.1311L38.8204 15.2104L39.333 15.2897L39.795 15.5138L40.257 15.7379L40.6605 16.2529L41.0641 16.7679L41.2221 17.1895L41.3801 17.6111L41.5996 18.5861L41.8191 19.5612L42.0056 20.0196L42.1922 20.478L42.4268 20.8955L42.6613 21.3129L43.2192 21.8704L43.7771 22.428L44.1283 22.6229L44.4796 22.8178L44.8932 22.9724L45.3067 23.1269L45.8069 23.1976L46.307 23.2685L46.7826 23.1934L47.2583 23.1182L47.7194 22.9043L48.1804 22.6906L48.5205 22.3411L48.8606 21.9918L49.0839 21.5501L49.3072 21.1084L49.416 20.5875L49.5248 20.0666L49.5625 20.0057L49.6002 19.9448H50.1435H50.6868L51.1919 19.7891L51.6971 19.6333L52.07 19.3939L52.443 19.1546L52.7526 18.8175L53.0621 18.4805L53.2159 18.1796L53.3696 17.8787L53.4803 17.4541L53.5911 17.0296L53.5898 16.62L53.5885 16.2103L53.483 15.7132L53.3775 15.2162L53.764 14.8258L54.1504 14.4354L54.3541 14.0041L54.5578 13.5728L54.6405 13.0418L54.7232 12.5108L54.6054 11.9342L54.4876 11.3574L54.2256 10.8897L53.9636 10.4219L53.5366 10.0316L53.1096 9.64138L52.6652 9.43395L52.2208 9.22651L51.679 9.11322L51.1371 9L51.0494 9.0074L50.9617 9.01486L50.4802 9.11869ZM51.7206 10.8803L52.1834 11.0907L52.4684 11.3993L52.7532 11.7079L52.8853 12.0531L53.0173 12.3982L52.9836 13.0101L52.95 13.622L52.7926 13.9263L52.6353 14.2308L52.4372 14.4659L52.239 14.701L52.2224 15.3447L52.2057 15.9884L52.0759 16.3582L51.9461 16.7279L51.6943 17.1449L51.4424 17.5619L51.0554 17.9443L50.6684 18.3265L50.1332 18.5907L49.5979 18.8548L49.0855 18.8914L48.5731 18.9281L48.5368 19.4336L48.5006 19.9391L48.3078 20.3302L48.115 20.7213L47.8086 21.0347L47.5021 21.3482L47.0114 21.5893L46.5207 21.8306H45.814H45.1072L44.6127 21.5875L44.1182 21.3445L43.8103 20.9959L43.5025 20.6474L43.3071 20.2776L43.1118 19.9078L43.1126 19.2423L43.1135 18.5767L43.2926 18.2131L43.4717 17.8495L43.8487 17.4736L44.2256 17.0977L44.5801 16.9128L44.9346 16.7279L44.8937 16.5061L44.8528 16.2842L44.8072 15.7296L44.7617 15.1749L44.8823 14.663L45.0031 14.1509L45.2234 13.7664L45.4438 13.3818L45.7703 13.0813L46.0969 12.7808L46.4924 12.5801L46.8879 12.3795L47.2583 12.2806L47.6286 12.1817L48.0507 12.1808L48.4729 12.1799L48.8049 11.7153L49.1369 11.2509L49.4568 11.0236L49.7766 10.7964L49.9988 10.7138L50.221 10.6311L50.7395 10.6505L51.2579 10.67L51.7206 10.8803ZM62.9536 12.2158L62.5022 12.3138L62.1018 12.4813L61.7015 12.6486L61.2571 12.9611L60.8127 13.2737L60.3915 13.6931L59.9704 14.1125L59.5341 14.7546L59.0979 15.3968L58.8355 15.8775L58.5731 16.3582L58.1828 17.0977L57.7924 17.8372L57.6027 18.17L57.4129 18.5028L57.1401 18.8725L56.8672 19.2423L56.655 19.436L56.4427 19.6299L55.8726 20.0461L55.3025 20.4625H55.2598H55.2172L54.3856 21.067L53.554 21.6715L52.9245 22.1516L52.2949 22.6318L51.7024 23.1167L51.1098 23.6016L50.221 24.3787L49.3322 25.1558L48.0647 26.398L46.7973 27.6403L46.189 27.1499L45.5806 26.6595L44.5307 25.6124L43.4808 24.5652L42.7118 23.6471L41.9427 22.7291L41.5152 22.0791L41.0877 21.4291L41.0483 21.334L41.0089 21.239L40.8844 21.3869L40.76 21.5348L40.5464 21.9953L40.333 22.4559V22.5761V22.6962L42.2833 24.7038L44.2336 26.7114L45.0604 27.5988L45.8872 28.4862L45.8877 28.5658L45.888 28.6453L45.7214 28.7977L45.5547 28.95L44.3696 29.1044L43.1846 29.2588L42.4037 29.3401L41.6228 29.4214L40.1729 29.4345L38.7229 29.4476L38.3799 30.0491L38.0369 30.6507V30.7414V30.8322L38.2776 30.7876L38.5183 30.7432L39.2219 30.6703L39.9256 30.5974L40.9625 30.4873L41.9995 30.3771L42.7031 30.3056L43.4068 30.234L43.9902 30.1881L44.5737 30.1422L44.2583 30.5344L43.9429 30.9266L43.5362 31.4627L43.1296 31.9989H43.0506H42.9716L41.6708 32.1881L40.37 32.3774L39.333 32.6019L38.2961 32.8264L37.5925 33.0488L36.8888 33.2712L36.2963 33.5582L35.7037 33.8452L35.3215 34.1792L34.9393 34.5131L34.778 34.8457L34.6167 35.1784L34.6687 36.0482L34.7207 36.918L34.6067 37.1904L34.4927 37.4629L34.0476 37.808L33.6024 38.1531L33.5612 38.2602L33.5201 38.3673L33.6751 38.6706L33.8301 38.9741L33.7858 39.2509L33.7415 39.5277L33.3894 40.2548L33.0373 40.9819V41.4335V41.885L33.3259 42.4527L33.6144 43.0202L33.7703 43.0513L33.9261 43.0824L34.5372 43.1257L35.1482 43.169V43.1071V43.0453L34.9314 42.838L34.7146 42.6305L34.5518 42.2526L34.3889 41.8747L34.4304 41.3798L34.472 40.8849L34.6089 40.6185L34.7457 40.3522L35.3355 41.0378L35.9253 41.7235L36.2959 42.0818L36.6666 42.4401L37.2314 42.8652L37.7961 43.2902L38.5276 43.6636L39.259 44.0369L39.9256 44.2626L40.5922 44.4884L41.3699 44.647L42.1476 44.8056L42.8513 44.776L43.5549 44.7464L43.9586 44.5388L44.3624 44.3312L44.5697 44.1782L44.777 44.0252L44.7755 43.9466L44.774 43.8681L44.4607 43.5137L44.1474 43.1594L42.9994 43.1344L41.8513 43.1094L41.1847 42.922L40.5181 42.7346L40.0134 42.5448L39.5086 42.3551L38.9949 42.0856L38.4811 41.816L38.0196 41.4954L37.5581 41.1747L37.0561 40.6758L36.5542 40.1767L36.2802 39.6454L36.0062 39.114L36.1389 38.552L36.2717 37.9899L36.6913 38.3098L37.111 38.6299L37.5925 38.91L38.0739 39.1902L39.2629 39.8079L40.4519 40.4255L40.7357 40.3473L41.0195 40.269L41.5836 40.0442L42.1476 39.8194L42.6291 39.5783L43.1105 39.3372L43.629 39.1757L44.1474 39.0142L44.9252 39.0144L45.7029 39.0146L46.2685 39.1317L46.8342 39.2487L47.3055 39.4025L47.7768 39.5564L48.4362 39.8131L49.0956 40.0697L50.2177 40.6068L51.3399 41.144L52.0177 40.8763L52.6955 40.6087L52.7401 40.5641L52.7848 40.5195L52.2065 40.1667L51.6283 39.8139L50.6654 39.3196L49.7025 38.8254L48.8507 38.4844L47.999 38.1433L47.2953 37.9124L46.5917 37.6815L45.8669 37.5395L45.1421 37.3974L44.5707 37.3991L43.9993 37.401L43.6767 37.4752L43.354 37.5495L42.3805 37.9308L41.4069 38.3121L40.9625 38.3139L40.5181 38.3158L39.9997 38.1419L39.4812 37.9681L38.9236 37.6901L38.3661 37.4122L37.7544 36.9594L37.1426 36.5065L36.9231 36.161L36.7036 35.8154V35.5398V35.2641L36.8987 35.0327L37.0938 34.8012L37.5137 34.5896L37.9337 34.3779L38.6556 34.1815L39.3776 33.9852L40.4292 33.8062L41.481 33.6272L41.7302 33.6266L41.9795 33.6258L41.8447 33.8292L41.7099 34.0326L41.2907 34.6981L40.8715 35.3637L40.6363 35.7817L40.401 36.1998L40.8054 36.4184L41.2097 36.6371L41.2781 36.592L41.3466 36.5469L41.6304 36.1402L41.9142 35.7334L42.508 34.92L43.1019 34.1065L43.619 33.441L44.1363 32.7754L44.8935 31.851L45.6508 30.9266L45.7879 30.778L45.9251 30.6292L46.8994 29.5578L47.8737 28.4862L49.1955 27.1884L50.5173 25.8904L51.369 25.1517L52.2208 24.4128L52.8134 23.9288L53.4059 23.4447L54.2947 22.7793L55.1835 22.1139L55.8872 21.6464L56.5908 21.1791L57.1862 20.718L57.7817 20.257L58.0428 19.9345L58.3039 19.612L58.5673 19.1683L58.8307 18.7246L59.3318 17.7263L59.8328 16.7279L60.2858 15.9971L60.7386 15.2662L61.2767 14.6915L61.8147 14.1167L62.1655 13.8936L62.5162 13.6705L62.9967 13.5101L63.4773 13.3497L64.1096 13.3749L64.742 13.4001L65.2418 13.6459L65.7416 13.8917L66.1776 14.2948L66.6137 14.6979L67.1203 14.8504L67.6269 15.0029L67.903 15.0889L68.179 15.1749L67.3746 15.7296L66.5701 16.2842L66.5981 16.3318L66.626 16.3795L67.3302 16.6519L68.0343 16.9243V16.9948V17.0654L67.9047 17.1093L67.775 17.1532L67.138 17.4279L66.5009 17.7026L65.8418 18.1309L65.1827 18.5593L64.6027 19.0415L64.0228 19.5237L63.5019 20.1225L62.981 20.7213L62.6879 21.1501L62.3948 21.5788L62.0318 22.295L61.6687 23.0111L61.1729 23.1025L60.6771 23.1939L60.1271 23.4546L59.5771 23.7154L59.0621 24.2119L58.5471 24.7082L58.1979 25.2318L57.8486 25.7554L57.4444 26.5292L57.04 27.303L56.627 27.7114L56.214 28.1198L55.2914 28.7428L54.3688 29.3658L52.7754 30.479L51.1821 31.5922L50.7555 31.888L50.3288 32.1838L49.4602 32.79L48.5915 33.3961L48.073 33.7561L47.5546 34.1163L46.3366 34.9618L45.1187 35.8074L45.0426 35.8589L44.9665 35.9103L45.0088 35.9525L45.0511 35.9947L45.6732 36.0744L46.2954 36.1539L48.4434 34.7183L50.5913 33.2827L52.8874 31.7416L55.1835 30.2005L55.665 29.8687L56.1464 29.5368L56.5956 29.1825L57.0448 28.8281L57.5684 28.2777L58.0922 27.7272L58.3697 27.2193L58.6472 26.7114L58.9383 26.2099L59.2295 25.7085L59.677 25.2309L60.1244 24.7534L60.6151 24.5122L61.1058 24.271L61.9592 24.2711L62.8125 24.2713L63.3242 24.5121L63.8358 24.753L64.1596 25.0179L64.4835 25.2829L65.1664 25.5043L65.8493 25.7257L65.9108 25.7845L65.9723 25.8433L65.2137 26.3143L64.4552 26.7853L64.4515 26.8593L64.4479 26.9332L65.0991 27.3321L65.7503 27.7311L65.1305 27.9703L64.5107 28.2096L63.9603 28.4864L63.4098 28.7632L62.9226 29.0836L62.4355 29.404L61.866 29.8891L61.2965 30.3743L60.807 30.9463L60.3175 31.5182L59.9193 32.121L59.5211 32.7238L59.1133 33.5261L58.7056 34.3284L58.3686 35.2158L58.0317 36.1032L57.8112 36.8372L57.5907 37.5711V37.6577V37.7444L58.1265 37.8618L58.6622 37.9791L58.6772 37.9641L58.6923 37.9492L59.0255 36.8783L59.3588 35.8074L59.7009 34.957L60.0431 34.1065L60.3406 33.5519L60.638 32.9972L60.7399 32.893L60.8417 32.7886L67.16 32.782L73.4783 32.7754L75.0337 32.8696L76.5891 32.9639L77.8112 33.0762L79.0333 33.1886L79.7861 33.2936L80.5389 33.3986L81.3045 33.552L82.0701 33.7055L82.3036 33.7799L82.5373 33.8544L83.0808 34.6827L83.6244 35.5109L84.2447 36.3617L84.8651 37.2125L85.56 38.0791L86.2549 38.9457L86.2557 39.0035L86.2564 39.0613L85.7225 40.226L85.1885 41.3907H85.1299H85.0713L84.3098 40.3739L83.5482 39.3571L82.4892 37.8618L81.4302 36.3665L81.0636 36.0374L80.697 35.7083L80.3466 35.5375L79.9962 35.3669L79.4547 35.3385L78.9131 35.3101L78.5902 35.4332L78.2673 35.5563L77.9585 35.8907L77.6498 36.2252L77.4748 36.6079L77.2997 36.9906L77.1885 37.4184L77.0774 37.8462L77.0262 38.297L76.9751 38.7479L77.0454 38.7197L77.1156 38.6915L77.6049 38.4799L78.0941 38.2683L78.1721 37.959L78.2501 37.6497L78.4629 37.3333L78.6757 37.0169L78.8916 36.8748L79.1074 36.7327L79.2715 36.7323L79.4355 36.7318L79.6922 36.9567L79.9488 37.1817L79.9953 37.3934L80.0419 37.6052L79.8173 38.3332L79.5928 39.0613L79.5469 39.3594L79.501 39.6576L79.9924 39.8309L80.4839 40.0041L80.5085 39.9764L80.5332 39.9487L80.6197 39.4439L80.7061 38.9391L80.8564 38.538L81.0068 38.1369H81.0689H81.1311L81.3165 38.3568L81.5018 38.5767L82.1073 39.5882L82.7128 40.5996L83.406 41.8782L84.0992 43.1569L84.4155 43.6604L84.7318 44.1639L85.1601 44.7691L85.5885 45.3741L85.8291 45.5455L86.0698 45.7169L86.6655 45.7159L87.2612 45.715L87.6312 45.478L88.0012 45.2409L88.6323 44.5915L89.2635 43.9421L89.8737 43.1841L90.484 42.426H90.5358H90.5874L92.4764 43.2817L94.3653 44.1375L94.8808 44.6683L95.3961 45.1992L96.3992 46.2266L97.4021 47.2541L97.1212 47.3517L96.8402 47.4492L96.6215 47.6047L96.4028 47.7602L96.1988 48.1066L95.9948 48.4531V61.4316V74.41L96.1314 74.6842L96.2679 74.9584L96.4647 75.157L96.6614 75.3556L96.9577 75.4913L97.254 75.627H98.8094H100.365L100.665 75.4908L100.966 75.3546L101.24 75.035L101.513 74.7155L101.587 74.4518L101.66 74.1882L101.661 62.6677L101.661 51.1471L101.796 51.2191L101.93 51.2911L102.572 51.0923L103.214 50.8935L103.192 50.8242L103.17 50.755L102.434 50.1171L101.698 49.4792L101.656 48.9662L101.613 48.4531L101.453 48.1431L101.292 47.8331L101.051 47.6532L100.809 47.4733L100.64 47.3863L100.472 47.2994L99.8261 47.2539L99.1806 47.2084L97.4689 45.5012L95.7573 43.7942L95.1241 43.0916L94.491 42.3891L93.9175 41.6865L93.3439 40.984L92.5895 39.9857L91.8351 38.9873L91.2845 38.2108L90.7338 37.4343L90.2093 36.6578L89.6846 35.8813L89.0313 34.846L88.3779 33.8107L87.9524 33.1037L87.5268 32.3965L86.9547 31.3658L86.3825 30.335L85.851 29.2627L85.3195 28.1904L85.0755 27.603L84.8314 27.0156L84.652 26.7317L84.4725 26.4479L84.215 26.3253L83.9576 26.2027L83.7578 26.3517L83.558 26.5006L83.496 26.7396L83.4339 26.9786L83.5447 27.4103L83.6555 27.842L84.1698 28.9581L84.6841 30.0742L85.3303 31.2399L85.9764 32.4056L86.5354 33.33L87.0943 34.2544L88.0167 35.6588L88.9391 37.0633L89.6463 38.0623L90.3535 39.0613L91.3723 40.3924L92.391 41.7235L92.5478 41.8899L92.7046 42.0563H92.6719H92.6393L91.4029 41.4963L90.1666 40.9363L90.1464 40.9602L90.1262 40.984L89.5284 41.7298L88.9306 42.4757L88.2779 43.0657L87.6252 43.6558L87.3515 43.86L87.0778 44.0644L86.9104 44.0402L86.743 44.016L86.5052 43.7041L86.2674 43.3922L86.1148 42.9851L85.9622 42.5779L86.1005 42.2617L86.2388 41.9454L86.7738 40.8361L87.3088 39.7268L87.5225 39.2577L87.7363 38.7887V38.7163V38.6439L87.4105 38.2979L87.0848 37.952L86.8073 37.6192L86.5298 37.2864L85.8867 36.436L85.2437 35.5855L84.5726 34.6242L83.9015 33.6628L83.4178 32.8785L82.9341 32.0941L82.5993 31.4284L82.2644 30.7627L81.9678 30.0512L81.6711 29.3395L81.4416 28.5431L81.212 27.7467L80.9916 26.6004L80.7712 25.4542L80.5973 24.7147L80.4234 23.9752L80.1728 23.4619L79.9221 22.9486L79.5769 22.5713L79.2318 22.194L78.8603 21.9922L78.4889 21.7903L77.9093 21.634L77.3298 21.4776L76.1817 21.4741L75.0337 21.4706L74.6019 21.5646L74.1701 21.6586L74.1388 21.6273L74.1074 21.5959L74.8186 20.5805L75.5298 19.565L75.494 19.5294L75.4583 19.4937L74.3942 19.6094L73.3301 19.725L73.1298 19.7585L72.9295 19.7919L73.594 18.9737L74.2585 18.1555L74.3305 18.0212L74.4025 17.8869L74.5964 17.2704L74.7902 16.654L74.9783 16.2472L75.1664 15.8405L75.4856 15.3881L75.8049 14.9356L76.197 14.5813L76.5891 14.2269L77.1816 13.9491L77.7742 13.6714L78.2137 13.5912L78.6531 13.511L79.1766 13.5123L79.6999 13.5136L80.2119 13.6219L80.7239 13.7302L81.2064 13.9556L81.689 14.181L82.1816 14.5785L82.6742 14.9759L83.4091 15.7767L84.144 16.5774L84.6254 17.0866L85.1069 17.5957L87.0326 19.2659L88.9584 20.9361L90.1805 22.0384L91.4026 23.1406L93.1932 24.9094L94.9839 26.6782L95.9386 27.7301L96.8934 28.782L97.4517 29.4845L98.0098 30.1871L98.4202 30.7787L98.8306 31.3703L99.5278 32.4796L100.225 33.5889L101.084 35.1049L101.943 36.6209L102.694 38.0259L103.444 39.431L104.73 42.0193L106.017 44.6076L106.349 45.3102L106.682 46.0127L107.208 47.1115L107.735 48.2104V48.2669V48.3234L107.346 48.3639L106.957 48.4044L106.351 48.0068L105.746 47.6092L104.809 46.8572L103.871 46.1052L103.007 45.3198L102.142 44.5346L101.27 43.6592L100.397 42.7839L99.527 41.81L98.6568 40.8361L97.799 39.7638L96.9411 38.6915L96.4657 37.989L95.9903 37.2864L95.6815 36.7949L95.3727 36.3035L94.906 36.2535L94.4394 36.2035L94.3098 36.1669L94.1802 36.1302V36.2147V36.2992L94.4872 36.8298L94.7942 37.3604L95.0982 37.8404L95.4023 38.3204L95.8034 38.9127L96.2044 39.505L96.7613 40.2445L97.3181 40.984L97.9106 41.6865L98.5032 42.3891L99.21 43.1656L99.9167 43.9421L100.881 44.8958L101.846 45.8496L102.772 46.6626L103.698 47.4756L104.425 48.0648L105.153 48.6539L105.009 48.8123L104.864 48.9708L104.781 49.1323L104.698 49.2938L104.699 50.1306L104.7 50.9674L104.793 51.1501L104.885 51.3328L105.136 51.5014L105.386 51.67L113.912 51.6684L122.437 51.6667L122.742 51.5285L123.047 51.3903L123.236 51.1419L123.426 50.8935L123.512 50.5501L123.599 50.2068L123.572 49.0711L123.545 47.9354L123.382 47.6282L123.219 47.3208L123.023 47.1671L122.827 47.0133L122.573 46.9433L122.32 46.8733L121.267 46.9808L120.215 47.0882L118.697 47.2356L117.178 47.383L114.549 47.6412L111.919 47.8993L110.826 48.0098L109.733 48.1203H109.435H109.137L109.001 47.806L108.866 47.4917L108.107 45.9018L107.348 44.3118L106.034 41.6865L104.721 39.0613L104.46 38.5806L104.199 38.0999L103.624 37.0276L103.049 35.9553L102.529 35.0309L102.008 34.1065L101.228 32.8124L100.449 31.5182L99.9158 30.7047L99.3828 29.8913L99.5035 29.6796L99.6242 29.4681L99.9082 29.1435L100.192 28.819L100.797 28.8191L101.402 28.8192L102.624 28.9604L103.846 29.1016L104.55 29.2634L105.253 29.4253L106.216 29.713L107.179 30.0007L107.92 30.288L108.66 30.5753L109.093 30.7451L109.525 30.915L109.587 30.8147L109.649 30.7145L109.736 30.081L109.823 29.4476L110 28.3753L110.177 27.303L110.178 27.1163L110.179 26.9296L109.271 26.7556L108.364 26.5817L107.795 26.3761L107.226 26.1707L106.902 25.9481L106.578 25.7255L106.479 25.6065L106.38 25.4876L106.425 25.4431L106.469 25.3987L107.454 25.146L108.438 24.8933L109.697 24.6802L110.957 24.467L111.808 24.3874L112.66 24.3077L113.29 24.2894L113.919 24.271L113.939 21.8121L113.958 19.3532H113.918H113.878L113.418 19.5853L112.957 19.8173L112.177 20.1303L111.397 20.4432L110.732 20.6082L110.068 20.7731L109.62 20.7842L109.172 20.7953L108.972 20.6641L108.772 20.533V20.3101V20.0872L109.105 19.7641L109.438 19.4409L109.938 19.1126L110.438 18.7842L111.011 18.4586L111.585 18.133L111.585 18.0818L111.586 18.0307L110.753 17.3381L109.92 16.6455L109.067 15.9472L108.215 15.2489L108.092 15.1529L107.97 15.0569L107.186 16.2127L106.401 17.3685L105.864 18.0831L105.327 18.7977L104.661 19.4637L103.994 20.1297L103.595 20.3431L103.196 20.5566H102.897H102.597L102.462 20.3904L102.328 20.2242V19.7896V19.355L102.555 18.6473L102.782 17.9398L103.327 16.8689L103.873 15.7979L104.285 15.1855L104.698 14.5731V14.5007V14.4283L103.753 14.3414L102.809 14.2544L101.587 14.1428L100.365 14.0312L100.06 13.9957L99.755 13.9603L99.6675 14.7363L99.58 15.5123L99.3584 16.268L99.1367 17.0237L98.9406 17.5044L98.7444 17.9851L98.347 18.7519L97.9496 19.5186L97.4975 20.194L97.0455 20.8692L96.1868 21.7203L95.3282 22.5714L94.649 23.033L93.9698 23.4945L93.8713 23.4943L93.7728 23.494L93.4025 23.1391L93.0321 22.7842L92.4766 22.2762L91.9211 21.7683L91.5137 21.3866L91.1064 21.0048L89.8102 19.8736L88.514 18.7424L87.5511 17.957L86.5882 17.1716L86.0661 16.654L85.5438 16.1363L84.881 15.3603L84.2181 14.5844L83.7737 14.1538L83.3293 13.7233L82.8783 13.3973L82.4273 13.0714L81.8783 12.8129L81.3294 12.5543L80.885 12.4314L80.4406 12.3085L79.3918 12.2732L78.3431 12.2377L77.7253 12.3598L77.1076 12.4817L76.3592 12.8495L75.6108 13.2172L75.1 13.7246L74.5893 14.2321L74.3157 14.6948L74.0421 15.1574L73.8561 15.6099L73.6702 16.0624L73.4353 16.8267L73.2004 17.5911L72.9462 17.9682L72.692 18.3455L72.0822 19.0527L71.4724 19.7599L71.0087 20.3047L70.545 20.8494L70.5829 20.8872L70.6208 20.925L71.8273 20.8381L73.0338 20.7512L73.1635 20.7127L73.2931 20.6743V20.7513V20.8282L72.615 21.9403L71.937 23.0525L71.9669 23.0813L71.9969 23.1101L72.5444 23.0061L73.0918 22.9022L73.9865 22.7916L74.8811 22.681H75.8511H76.8212L77.253 22.7607L77.685 22.8405L78.063 23.0074L78.441 23.1743L78.6706 23.4352L78.9 23.6962L79.1254 24.2424L79.3508 24.7886L79.5471 25.824L79.7435 26.8593L79.8613 27.4879L79.9792 28.1164L80.1924 28.8385L80.4056 29.5606L80.702 30.3035L80.9985 31.0464L81.2243 31.4931L81.4502 31.9399L81.4111 31.9789L81.3721 32.018L80.1657 31.8627L78.9593 31.7074L77.6631 31.5947L76.3669 31.4819L74.6633 31.4072L72.9598 31.3325L69.923 31.2907L66.8862 31.2489L64.5161 31.3154L62.1459 31.382L62.0438 31.331L61.9418 31.2799L62.5253 30.782L63.1088 30.2841L63.7073 29.8859L64.3058 29.4876L64.8895 29.1825L65.4732 28.8773L66.2538 28.5613L67.0344 28.2453L67.4417 28.1164L67.8491 27.9873L67.9112 27.9307L67.9733 27.8741L67.0028 27.3429L66.0322 26.8118L66.0718 26.7479L66.1113 26.6841L67.1439 26.1128L68.1766 25.5415L68.1446 25.49L68.1128 25.4385L67.4995 25.2119L66.8862 24.9854L66.0344 24.6699L65.1827 24.3544L64.7383 24.0274L64.2939 23.7005L63.9606 23.5337L63.6272 23.3668L63.3495 23.277L63.0717 23.1872V23.0966V23.006L63.3579 22.4183L63.6439 21.8306L63.9319 21.4505L64.2198 21.0704L64.5978 20.6648L64.9759 20.2593L65.5237 19.8211L66.0715 19.383L66.4819 19.1155L66.8923 18.8481L67.5559 18.4897L68.2194 18.1314L68.9601 17.792L69.7008 17.4526L70.1637 17.2755L70.6266 17.0984V17.0529V17.0072L70.0526 16.7711L69.4786 16.5351L69.0135 16.3421L68.5485 16.1493L68.5691 16.0878L68.5898 16.0263L69.5855 15.4838L70.5812 14.9414L70.6051 14.8697L70.629 14.7981L70.1279 14.6408L69.6267 14.4834L68.4342 14.1038L67.2416 13.7242L66.7316 13.2488L66.2215 12.7734L65.8132 12.5568L65.4049 12.3402L64.9498 12.2231L64.4947 12.106L63.9499 12.1118L63.405 12.1177L62.9536 12.2158ZM49.4965 13.2337L48.9431 13.8438L48.1376 14.8499L47.3321 15.8559L46.7213 16.7108L46.1105 17.5658L45.9808 17.799L45.851 18.0321L46.1074 18.249L46.3638 18.4658H46.4204H46.4769L47.2417 17.7078L48.0064 16.9498L48.5081 16.3212L49.0098 15.6926L49.4808 14.9901L49.9516 14.2875L50.3024 13.6285L50.6532 12.9696L50.437 12.797L50.221 12.6244L50.1354 12.624L50.0498 12.6236L49.4965 13.2337ZM32.4819 13.363L32.2596 13.58V13.6546V13.7291L32.6929 14.2301L33.1263 14.7312L33.6036 15.1749L34.081 15.6187L34.7072 16.184L35.3334 16.7494L36.2157 17.4644L37.098 18.1794L37.4141 18.3966L37.7302 18.6137L37.791 18.6105L37.8517 18.6074L38.1363 18.239L38.4208 17.8705L37.5807 17.0347L36.7407 16.1987L36.1111 15.6454L35.4815 15.0921L34.926 14.646L34.3705 14.1999L33.6669 13.7191L32.9632 13.2383L32.8338 13.1922L32.7042 13.146L32.4819 13.363ZM63.5225 14.8264L63.2752 15.0325L63.2396 15.4029L63.204 15.7733L63.3995 16.0053L63.595 16.2373L63.8455 16.3199L64.0959 16.4025L64.343 16.298L64.5901 16.1937L64.726 16.0414L64.8619 15.8889L64.9008 15.5994L64.9397 15.3099L64.8192 15.0773L64.6987 14.8447L64.4815 14.7325L64.2642 14.6203H64.017H63.7697L63.5225 14.8264ZM102.198 15.4063L102.55 15.4477V15.5167V15.5859L102.337 16.009L102.123 16.4321L101.864 17.0607L101.604 17.6893L101.414 18.2902L101.225 18.8912L101.104 19.5346L100.983 20.1781L101.035 20.4867L101.086 20.7953L101.189 21.0548L101.293 21.3144L101.553 21.5215L101.812 21.7286L102.068 21.835L102.323 21.9415H102.695H103.067L103.436 21.8014L103.805 21.6613L104.27 21.33L104.735 20.9987L105.301 20.4068L105.867 19.8148L106.562 18.9369L107.257 18.0591L107.692 17.4847L108.127 16.9102L108.246 17.0093L108.364 17.1084L108.938 17.5752L109.512 18.042V18.0911V18.1401L108.975 18.5334L108.438 18.9266L108.131 19.3063L107.824 19.686L107.705 19.9723L107.586 20.2587V20.6454V21.0322L107.753 21.2835L107.92 21.5348L108.282 21.714L108.644 21.8931L109.208 21.886L109.771 21.8789L110.441 21.7319L111.111 21.5849L111.897 21.3565L112.682 21.128H112.729H112.776L112.755 22.0681L112.734 23.0081L111.697 23.1334L110.66 23.2587L109.734 23.4208L108.809 23.583L107.957 23.7895L107.105 23.9959L106.549 24.1484L105.994 24.3009L105.216 24.5691L104.439 24.8372L103.698 25.1386L102.957 25.4399L102.217 25.8242L101.476 26.2086L101.031 26.4906L100.587 26.7726L100.143 27.109L99.6982 27.4454L99.0999 28.0542L98.5016 28.6629L98.238 28.3103L97.9743 27.9577L97.2012 27.0757L96.4281 26.1937L95.6351 25.3677L94.842 24.5417L95.3429 24.1652L95.8438 23.7887L96.4589 23.2555L97.0741 22.7224L97.5343 22.2113L97.9947 21.7002L98.4232 21.1061L98.8518 20.5121L99.2631 19.7803L99.6744 19.0486L99.9001 18.5538L100.126 18.0591L100.442 17.0977L100.758 16.1363L100.811 15.7666L100.865 15.3968L100.901 15.335L100.937 15.2733L101.392 15.3191L101.846 15.3649L102.198 15.4063ZM77.626 16.1527L77.4779 16.1884L77.2396 16.3676L77.0013 16.547L76.9131 16.8408L76.8249 17.1347L76.909 17.4151L76.9931 17.6954L77.2219 17.9143L77.4506 18.133H77.8889H78.3272L78.5979 17.8628L78.8685 17.5925L78.8995 17.2342L78.9304 16.8758L78.7817 16.6395L78.633 16.4032L78.4629 16.2966L78.2927 16.1899L78.0334 16.1534L77.7742 16.1169L77.626 16.1527ZM34.837 24.3704L34.2964 24.6547L33.744 25.0084L33.1916 25.3621L32.5193 25.8644L31.8469 26.3667L31.1592 27.0132L30.4713 27.6596L30.7265 27.9145L30.9818 28.1693L31.1285 28.1228L31.2751 28.0763L32.1563 27.489L33.0373 26.9016L33.2225 26.7717L33.4076 26.6418L34.0793 26.1081L34.7511 25.5743L35.2601 25.1022L35.7691 24.6301L35.6008 24.3581L35.4324 24.0861H35.4049H35.3775L34.837 24.3704ZM61.5459 25.7426L61.2941 25.994V26.3416V26.6892L61.5459 26.9406L61.7978 27.1921H62.1306H62.4635L62.6893 26.9814L62.9151 26.7709L62.9646 26.5743L63.014 26.3776L62.9663 26.1238L62.9186 25.8699L62.6932 25.6805L62.4679 25.4912H62.1328H61.7978L61.5459 25.7426ZM105.074 26.128L105.253 26.3211L105.661 26.5987L106.068 26.8762L106.587 27.1363L107.105 27.3965L107.72 27.5901L108.335 27.7837H108.437H108.54L108.722 27.8527L108.904 27.9219L108.842 28.241L108.781 28.5602L108.735 28.9114L108.688 29.2627H108.609H108.529L107.817 28.9781L107.105 28.6933L106.327 28.4651L105.55 28.2368L104.624 28.043L103.698 27.8492L102.679 27.7646L101.661 27.6799V27.6218V27.5637L101.958 27.3766L102.255 27.1896L102.962 26.8124L103.669 26.4352L104.239 26.1921L104.809 25.949L104.852 25.942L104.894 25.9349L105.074 26.128ZM56.2945 32.6798L56.1464 32.7647L56.0587 32.8809L55.971 32.9972L55.8887 33.3206L55.8064 33.6439L55.6205 34.0103L55.4345 34.3767L55.1172 34.8702L54.7999 35.3637L54.3502 35.9183L53.9004 36.473L53.6028 36.7603L53.3052 37.0476L53.462 37.2594L53.6189 37.4713H53.722H53.8249L54.3561 37.0374L54.8873 36.6036L55.4673 36.0256L56.0474 35.4478L56.3625 35.0359L56.6777 34.6242L56.8686 34.2914L57.0596 33.9586L57.1657 33.5889L57.2717 33.2191L57.2105 32.9973L57.1493 32.7755L57.0226 32.683L56.8958 32.5905L56.6693 32.5927L56.4427 32.595L56.2945 32.6798ZM65.7382 34.1551L63.4791 34.2165L62.8992 34.2724L62.3194 34.3284L62.0919 34.9027L61.8644 35.4771L61.9035 35.5161L61.9426 35.5551L63.896 35.4782L65.8493 35.4012L68.0723 35.401L70.2954 35.4007L72.035 35.4775L73.7745 35.5543L74.5152 35.5699L75.2559 35.5855L75.2771 34.9492L75.2984 34.3129L74.5701 34.2628L73.8419 34.2128L70.9936 34.1433L68.1454 34.0738L68.0713 34.0837L67.9972 34.0937L65.7382 34.1551ZM75.8288 39.0968L75.5129 39.2399L74.8199 39.4616L74.127 39.6831L73.3583 39.8416L72.5894 40.0001L71.9599 39.9643L71.3303 39.9285L70.7377 39.7768L70.1452 39.6252L69.2194 39.5371L68.2935 39.4491L67.2195 39.5004L66.1455 39.5517L65.553 39.6249L64.9605 39.6981L64.3651 39.8698L63.7697 40.0416L63.2911 40.2826L62.8125 40.5236L62.3681 40.8211L61.9237 41.1186L61.3087 41.7361L60.6938 42.3537L60.7313 42.4143L60.7689 42.475L61.2777 42.5708L61.7866 42.6668L62.1214 42.4116L62.4562 42.1565L63.0072 41.8918L63.5583 41.6271L64.1943 41.4334L64.8304 41.2396L65.4139 41.197L65.9974 41.1545L67.2195 41.3064L68.4416 41.4583L69.4277 41.5442L70.4138 41.63L71.5757 41.5942L72.7376 41.5583L73.4042 41.3615L74.0708 41.1647L74.4782 41.0092L74.8855 40.8536L75.7569 40.4442L76.6282 40.0347L76.5959 39.9178L76.5637 39.8008L76.4447 39.3756L76.3257 38.9503L76.2352 38.952L76.1447 38.9536L75.8288 39.0968ZM57.5567 40.0976L56.8932 40.2059L56.5198 40.3267L56.1464 40.4476L55.6366 40.7116L55.1268 40.9756L54.7108 41.3888L54.2947 41.8019L54.0297 42.114L53.7647 42.426H53.5584H53.3521L52.7124 42.2616L52.0727 42.097L51.1524 42.1152L50.232 42.1332L49.8192 42.015L49.4062 41.8969L48.1754 41.2798L46.9445 40.6628L46.5509 40.5461L46.1574 40.4294L45.819 40.4303L45.4807 40.4311L45.1103 40.53L44.74 40.629L44.3326 40.8342L43.9252 41.0394L43.4623 41.3417L42.9994 41.6439L43.0003 41.7207L43.0012 41.7975L43.271 41.972L43.5407 42.1466L44.2004 41.9445L44.8601 41.7424L45.5113 41.7394L46.1625 41.7364L46.6363 41.9596L47.1102 42.1828L47.5735 42.5328L48.0368 42.8829L48.1475 43.0407L48.2582 43.1985V43.4309V43.6633L48.1051 43.8577L47.9519 44.052L47.495 44.4037L47.0381 44.7555L46.3383 45.1068L45.6384 45.4581H45.2068H44.775L44.6427 45.3755L44.5102 45.293L43.8624 45.6898L43.2146 46.0866L43.3733 46.2151L43.5319 46.3436L43.8397 46.4265L44.1474 46.5095L45.0363 46.4737L45.9251 46.4378L46.6105 46.2107L47.2959 45.9835L47.8326 45.7057L48.3693 45.428L49.147 44.9513L49.9247 44.4747L50.4356 44.2294L50.9466 43.9842L51.4997 43.8614L52.0528 43.7385L52.5442 43.7764L53.0356 43.8143L53.4 43.9408L53.7645 44.0674L54.474 44.4014L55.1835 44.7354L55.6416 44.9436L56.0996 45.1517L56.9378 45.4325L57.7759 45.7135L59.1462 45.7152L60.5164 45.7169L61.6645 45.4687L62.8125 45.2206L63.7013 44.9663L64.5901 44.712L65.6271 44.3724L66.664 44.0328L66.6911 44.0097L66.7181 43.9866L66.4467 43.5022L66.1753 43.0177H66.1317H66.088L65.3148 43.2407L64.5416 43.4638L63.7512 43.6508L62.9606 43.8377L62.294 43.9802L61.6274 44.1227L60.7812 44.2727L59.935 44.4227H59.3153H58.6955L58.1246 44.3053L57.5537 44.1879L56.9749 43.9653L56.3962 43.7428L56.1452 43.4922L55.8943 43.2417L55.8477 42.9936L55.801 42.7454L55.8829 42.4417L55.9649 42.138L56.2385 41.9129L56.5121 41.6877L56.8643 41.5709L57.2165 41.4541L57.8665 41.3487L58.5166 41.2434L59.418 41.2431L60.3194 41.2428L60.7324 40.7806L61.1453 40.3184L61.1457 40.2732L61.146 40.2279L60.7201 40.1403L60.2942 40.0527L59.2573 40.021L58.2203 39.9893L57.5567 40.0976ZM77.2974 41.105L76.8947 41.1716L76.5128 41.3647L76.131 41.5578L75.6934 41.9564L75.2559 42.3549L74.6633 42.6418L74.0708 42.9285L73.6634 43.0263L73.2561 43.124L72.3302 43.1263L71.4044 43.1286L70.3304 43.0685L69.2564 43.0086L69.1491 43.082L69.0417 43.1555L69.1861 43.7287L69.3305 44.302L69.5527 44.3615L69.7749 44.421L70.5736 44.5328L71.3724 44.6446L72.4253 44.6444L73.4783 44.6441L74.1426 44.5281L74.8069 44.4121L75.3754 44.1932L75.9439 43.9743L76.3776 43.6911L76.8113 43.4079L77.2433 43.0264L77.6752 42.6448L77.9305 42.5383L78.1858 42.4318L78.7256 42.383L79.2654 42.3341L79.8159 42.4249L80.3666 42.5158L80.8976 42.7195L81.4286 42.9233L81.4706 42.7671L81.5126 42.6109L81.5136 42.1876L81.5146 41.7643L81.3109 41.6596L81.1072 41.555L80.552 41.3904L79.9967 41.2257L79.3669 41.1236L78.7371 41.0216L78.2186 41.0299L77.7001 41.0383L77.2974 41.105ZM18.15 47.2035L17.8541 47.3117L17.5402 47.6192L17.2263 47.9269L17.1131 48.267L17 48.6071L17.0193 61.4716L17.0387 74.3361L17.1985 74.6319L17.3584 74.9277L17.5688 75.1267L17.7793 75.3257L18.1126 75.4763L18.4459 75.627L19.9273 75.6254L21.4087 75.6237L21.6746 75.5289L21.9405 75.434L22.2098 75.2289L22.479 75.0238L22.6738 74.6263L22.8687 74.2286L22.8211 66.1477L22.7734 58.0668L22.7392 57.2185L22.705 56.3702L22.8045 56.5159L22.9041 56.6617L24.1134 58.8433L25.3228 61.0248L25.446 61.2467L25.5693 61.4685L27.1091 64.2417L28.6487 67.0149L28.8345 67.3477L29.0204 67.6805L29.9843 69.4183L30.9482 71.1562L31.141 71.4977L31.3337 71.8392L32.0003 73.0411L32.6669 74.2431L32.9451 74.5602L33.2232 74.8773L33.5715 75.1076L33.9198 75.338L34.3937 75.4841L34.8676 75.6302H36.9561H39.0447L39.428 75.4395L39.8112 75.2489L40.0228 74.9773L40.2343 74.7059L40.3021 74.558L40.37 74.41L40.407 63.1325L40.4441 51.8549L60.4423 51.8179L80.4406 51.7809L80.6999 51.6196L80.9591 51.4583L81.1072 51.2129L81.2554 50.9674V49.668V48.3686L81.073 48.1028L80.8907 47.837L80.6286 47.7013L80.3666 47.5657L58.4447 47.5467L36.5227 47.5277L36.1287 47.6421L35.7346 47.7565L35.4503 48.0129L35.1659 48.2695L34.9984 48.6571L34.8308 49.0447L34.9204 57.612L35.01 66.1792L34.9805 66.2086L34.9511 66.238L33.9584 64.4449L32.9657 62.6518L32.8443 62.4299L32.7229 62.2081L30.2978 57.8449L27.8728 53.4818L27.687 53.149L27.5012 52.8162L26.7059 51.3742L25.9106 49.9321L25.477 49.1556L25.0435 48.3791L24.6648 47.999L24.2861 47.6188L23.9792 47.4625L23.6722 47.3061L23.247 47.1955L22.8219 47.085L20.6339 47.0902L18.4459 47.0954L18.15 47.2035ZM85.7849 47.3191L85.5 47.3815L85.2109 47.5845L84.9218 47.7875L84.7365 48.1533L84.5514 48.5191V51.7584V54.9978L83.9403 54.9982L83.3293 54.9986L83.0588 55.0736L82.7883 55.1487L82.5218 55.4432L82.2553 55.7378V56.9775V58.2173L82.4359 58.4828L82.6166 58.7482L82.873 58.8697L83.1294 58.9912H83.8404H84.5514V64.246V69.5009L84.63 70.0327L84.7085 70.5646L84.8626 71.0453L85.0166 71.5259L85.274 72.0436L85.5316 72.5613L85.8517 73.0119L86.1719 73.4627L86.5922 73.8461L87.0124 74.2296L87.3188 74.4375L87.6252 74.6454L88.0347 74.8675L88.4442 75.0897L88.9246 75.2493L89.4049 75.4088L89.9844 75.5195L90.5639 75.6302H92.1528H93.7417L94.0325 75.4821L94.3233 75.334L94.511 75.0582L94.6986 74.7825V73.4794V72.1764L94.5302 71.9269L94.3618 71.6774L94.1119 71.5092L93.862 71.3411L93.5211 71.3388L93.1803 71.3365L92.6367 71.266L92.0932 71.1956L91.6565 70.9999L91.2198 70.8043L90.8802 70.4418L90.5407 70.0794L90.35 69.6564L90.1592 69.2334L90.1008 67.9023L90.0425 66.5712L90.0385 62.9476L90.0344 59.324L90.079 59.1576L90.1237 58.9912L92.0594 58.9881L93.995 58.985L94.2298 58.8587L94.4646 58.7323L94.6372 58.5126L94.8098 58.2928L94.8329 57.0698L94.8561 55.8469L94.6848 55.5955L94.5135 55.3442L94.3045 55.1895L94.0956 55.0348L92.101 55.0118L90.1065 54.989L90.0905 54.9749L90.0746 54.9608L90.035 51.6207L89.9954 48.2807L89.7725 47.9642L89.5496 47.6477L89.1819 47.4588L88.8143 47.2699L87.442 47.2633L86.0698 47.2567L85.7849 47.3191ZM51.8134 54.3359L51.1098 54.3887L50.4684 54.5095L49.827 54.6303L49.0806 54.8808L48.3341 55.1313L47.6851 55.4796L47.0361 55.828L46.46 56.2397L45.8839 56.6515L45.2353 57.3222L44.5869 57.9928L44.1728 58.6214L43.7586 59.25L43.5793 59.5828L43.4 59.9156L43.1712 60.4333L42.9424 60.951L42.7114 61.7644L42.4805 62.5778L42.3709 63.3543L42.2615 64.1308V65.0182V65.9056L42.3715 66.6821L42.4816 67.4586L42.6337 68.0466L42.7859 68.6347L43.0478 69.3407L43.3097 70.0469L43.7193 70.7864L44.1288 71.5259L44.5959 72.1176L45.0631 72.7092L45.3129 72.968L45.5627 73.2268L45.8747 73.5082L46.1867 73.7896L46.7595 74.2L47.3324 74.6103L48.073 74.9691L48.8137 75.3279L49.147 75.4373L49.4803 75.5466L50.0729 75.6934L50.6654 75.8403L51.1981 75.9201L51.7307 76H52.7728H53.8149L54.5363 75.885L55.2576 75.77L55.8291 75.6252L56.4006 75.4805L57.0043 75.2583L57.608 75.036L58.1363 74.772L58.6647 74.5081L59.2573 74.1128L59.8498 73.7176L60.3566 73.2227L60.8635 72.7279L61.1979 72.2748L61.5323 71.8217L61.7459 71.3997L61.9596 70.9777L62.1454 70.4253L62.3311 69.8729V69.6753V69.4776L62.2074 69.2174L62.0837 68.9572L61.8555 68.8183L61.6274 68.6793L59.7098 68.6791L57.7921 68.6788L57.4624 68.8432L57.1328 69.0076L56.766 69.4678L56.3992 69.9281L56.0215 70.2671L55.6439 70.6061L55.1174 70.8573L54.591 71.1084L54.0201 71.2247L53.4492 71.3411L52.7239 71.34L51.9986 71.3388L51.5311 71.2288L51.0637 71.1188L50.6131 70.8957L50.1626 70.6725L49.8215 70.4208L49.4803 70.1692L49.2132 69.8862L48.946 69.6032L48.7082 69.2499L48.4704 68.8965L48.2999 68.5103L48.1294 68.1242L48.0087 67.5919L47.8879 67.0596V66.9449V66.83L54.6836 66.8283L61.4793 66.8264L61.8126 66.7506L62.1459 66.6749L62.4302 66.4882L62.7145 66.3016L62.8686 65.9557L63.0228 65.6098L63.0562 65.0465L63.0897 64.483L63.0015 63.7153L62.9135 62.9476L62.7638 62.2518L62.6142 61.5561L62.356 60.8154L62.0977 60.0747L61.8499 59.5834L61.6022 59.0921L61.2074 58.5034L60.8127 57.9147L60.4423 57.4827L60.072 57.0508L59.4219 56.5155L58.7717 55.9802L58.0561 55.5844L57.3405 55.1885L56.5211 54.9098L55.7016 54.6311L54.813 54.4873L53.9244 54.3435L53.2207 54.3133L52.5171 54.2831L51.8134 54.3359ZM71.9969 54.334L71.2562 54.3878L70.667 54.4783L70.0778 54.5688L69.3345 54.7892L68.5912 55.0098L68.0601 55.2547L67.5291 55.4997L67.0038 55.8389L66.4786 56.1782L66.1355 56.4939L65.7925 56.8096L65.4774 57.2183L65.1624 57.6271L64.8937 58.1534L64.6252 58.6796L64.4749 59.2606L64.3246 59.8416L64.3199 60.729L64.3153 61.6164L64.4406 62.0971L64.5659 62.5778L64.8716 63.1694L65.1773 63.761L65.8095 64.3924L66.4418 65.0238L67.0344 65.3683L67.6269 65.7128L68.0455 65.8975L68.464 66.0822L68.9343 66.2375L69.4045 66.3927L72.0339 67.0621L74.6633 67.7314L75.2105 67.9047L75.7578 68.078L76.1194 68.323L76.481 68.5679L76.6277 68.8686L76.7743 69.1692L76.7712 69.4232L76.7681 69.6772L76.6415 70.0164L76.515 70.3555L76.3669 70.5362L76.2188 70.717L75.9595 70.9126L75.7003 71.1081L75.1077 71.3128L74.5152 71.5175L73.2561 71.5195L71.9969 71.5214L71.4044 71.3229L70.8118 71.1245L70.3674 70.8591L69.923 70.5939L69.6498 70.3204L69.3766 70.0469L69.0883 69.5293L68.8 69.0116L68.4727 68.8427L68.1454 68.6738L66.2799 68.6948L64.4144 68.7158L64.1859 68.9345L63.9572 69.1534L63.8709 69.4413L63.7844 69.7294L63.8677 70.3881L63.9509 71.0468L64.2128 71.5903L64.4746 72.1337L64.8757 72.6456L65.2768 73.1575L65.6742 73.4947L66.0715 73.8319L66.5159 74.1324L66.9603 74.433L67.65 74.7775L68.3397 75.122L68.9832 75.3336L69.6267 75.545L70.1452 75.6653L70.6637 75.7856L71.4737 75.8929L72.2838 76L73.2143 75.9985L74.1449 75.9969L75.1172 75.8549L76.0897 75.7129L76.5615 75.591L77.0335 75.4692L77.626 75.2643L78.2186 75.0596L78.7 74.8186L79.1815 74.5776L79.6629 74.2596L80.1443 73.9414L80.6185 73.4732L81.0927 73.005L81.4041 72.5243L81.7155 72.0436L81.9208 71.5267L82.1261 71.0098L82.2363 70.3804L82.3466 69.7511L82.3062 68.9376L82.2657 68.1242L82.1039 67.6065L81.942 67.0889L81.7336 66.6762L81.5252 66.2636L81.2505 65.8997L80.9757 65.5359L80.6711 65.2561L80.3666 64.9764L79.9106 64.6445L79.4546 64.3126L78.8253 64.0182L78.196 63.7237L77.7258 63.5795L77.2557 63.4353L74.7374 62.8006L72.2191 62.1658L71.5155 61.9429L70.8118 61.7201L70.5165 61.5174L70.2213 61.3149L70.0536 61.0665L69.886 60.8181V60.3845V59.9509L70.0378 59.6283L70.1897 59.3058L70.3526 59.154L70.5155 59.0023L70.8936 58.8134L71.2716 58.6245L71.6713 58.5324L72.071 58.4402L73.0338 58.4442L73.9967 58.4483L74.4967 58.5708L74.9966 58.6932L75.4473 58.9203L75.8979 59.1475L76.2145 59.4389L76.5312 59.7304L76.7687 60.1752L77.0062 60.62L77.2947 60.767L77.5831 60.9139H79.3537H81.1243L81.3209 60.7595L81.5176 60.605L81.6272 60.3934L81.7368 60.1817L81.7357 59.9008L81.7346 59.6198L81.6261 59.1603L81.5176 58.7008L81.3451 58.3468L81.1727 57.9928L80.9698 57.6745L80.767 57.3563L80.2705 56.8525L79.774 56.3488L79.1815 55.9609L78.5889 55.5728L78.0465 55.3241L77.5041 55.0752L76.8065 54.8521L76.109 54.629L75.4602 54.5147L74.8115 54.4005L73.8856 54.3316L72.9598 54.2626L72.8487 54.2714L72.7376 54.2802L71.9969 54.334ZM112.845 54.3363L112.142 54.3887L111.512 54.5075L110.882 54.6263L110.29 54.8191L109.697 55.0118L109.161 55.2585L108.625 55.5051L108.01 55.9051L107.396 56.305L106.874 56.7535L106.352 57.2019L105.868 57.7823L105.384 58.3626L105.073 58.8433L104.762 59.324L104.46 59.9525L104.159 60.5811L103.942 61.2097L103.725 61.8383L103.586 62.5093L103.447 63.1803L103.355 64.1108L103.263 65.0414L103.356 65.9542L103.45 66.867L103.591 67.5495L103.731 68.232L103.951 68.8806L104.17 69.5293L104.424 70.0854L104.678 70.6414L104.994 71.1577L105.309 71.6738L105.779 72.2758L106.249 72.8778L106.788 73.3698L107.327 73.8617L107.848 74.2219L108.37 74.5821L108.922 74.8708L109.475 75.1593L110.008 75.3547L110.541 75.5502L111.005 75.6703L111.47 75.7904L112.102 75.8939L112.734 75.9974L113.79 75.9987L114.847 76L115.563 75.885L116.279 75.7699L116.735 75.6642L117.192 75.5584L117.778 75.3635L118.363 75.1686L119.081 74.8154L119.798 74.4624L120.377 74.0682L120.956 73.6741L121.516 73.1177L122.077 72.5613L122.462 71.9715L122.846 71.3817L123.076 70.7883L123.306 70.1948L123.341 69.7881L123.377 69.3813L123.201 69.1236L123.025 68.8658L122.842 68.7734L122.659 68.681L120.77 68.6815L118.882 68.6821L118.585 68.8243L118.289 68.9665L118.177 69.063L118.065 69.1595L117.678 69.6402L117.291 70.1209L117.198 70.197L117.104 70.2732L116.845 70.469L116.586 70.6648L116.14 70.8854L115.695 71.106L115.125 71.2236L114.555 71.3411H113.844H113.134L112.601 71.2214L112.068 71.1017L111.631 70.8871L111.194 70.6725L110.83 70.4057L110.466 70.139L110.096 69.6862L109.726 69.2334L109.441 68.6418L109.157 68.0502L109.078 67.6805L108.999 67.3107L108.978 67.0889L108.957 66.867L115.956 66.83L122.955 66.793L123.249 66.6451L123.542 66.4972L123.78 66.1844L124.018 65.8716L124.072 65.4475L124.125 65.0234L124.078 64.1678L124.032 63.3124L123.914 62.6862L123.796 62.0602L123.662 61.5795L123.527 61.0988L123.343 60.6181L123.159 60.1374L122.936 59.6567L122.713 59.1761L122.25 58.4735L121.787 57.771L121.074 57.0684L120.362 56.3659L119.844 56.0237L119.326 55.6816L118.548 55.3089L117.771 54.9363L117.104 54.7464L116.438 54.5565L115.66 54.4489L114.882 54.3413L114.215 54.3126L113.549 54.2839L112.845 54.3363ZM53.606 58.7009L53.9984 58.7804L54.4949 58.9648L54.9912 59.1493L55.4207 59.4276L55.8501 59.7058L56.3061 60.1942L56.762 60.6826L56.9939 61.1528L57.2258 61.6232L57.3333 62.0265L57.4408 62.4299L57.4417 62.5593L57.4426 62.6887H52.6927H47.9428L47.9936 62.3069L48.0443 61.925L48.2339 61.475L48.4234 61.0248L48.6765 60.6438L48.9296 60.2627L49.2584 59.9602L49.5871 59.6576L49.9918 59.3992L50.3965 59.1408L50.7901 58.9847L51.1839 58.8286L51.6283 58.7309L52.0727 58.6332L52.6431 58.6273L53.2135 58.6214L53.606 58.7009ZM114.94 58.7653L115.504 58.9091L115.971 59.1403L116.438 59.3714L116.819 59.6585L117.2 59.9455L117.458 60.2633L117.716 60.5811L117.941 60.9509L118.165 61.3206L118.32 61.795L118.474 62.2694V62.4791V62.6887H113.734H108.994L108.995 62.5593L108.995 62.4299L109.103 62.0265L109.211 61.6232L109.432 61.1761L109.654 60.729L110.009 60.3039L110.364 59.8787L110.754 59.5879L111.143 59.297L111.555 59.1024L111.967 58.9078L112.499 58.7687L113.03 58.6295L113.704 58.6255L114.377 58.6214L114.94 58.7653ZM125.788 70.6773L125.51 70.7472L125.159 70.9255L124.807 71.1038L124.612 71.2847L124.417 71.4657L124.219 71.7653L124.02 72.0648L123.915 72.461L123.809 72.8571L123.808 73.2006L123.807 73.544L123.957 74.0284L124.107 74.5128L124.473 74.9122L124.838 75.3115L125.267 75.5008L125.696 75.6901L126.08 75.7404L126.464 75.7906L126.895 75.7019L127.325 75.6132L127.611 75.4685L127.896 75.3239L128.206 75.0383L128.516 74.7527L128.684 74.4182L128.851 74.0836L128.926 73.6219L129 73.1603L128.954 72.8608L128.908 72.5613L128.797 72.2122L128.685 71.8632L128.352 71.4934L128.019 71.1237L127.561 70.9004L127.103 70.6771L126.585 70.6422L126.066 70.6074L125.788 70.6773ZM127.204 71.4467L127.559 71.6264L127.77 71.9023L127.981 72.1782L128.076 72.4437L128.171 72.7092V73.1898V73.6705L128.076 73.936L127.981 74.2015L127.77 74.4774L127.559 74.7533L127.204 74.933L126.849 75.1126H126.382H125.916L125.621 74.9571L125.326 74.8016L125.127 74.6156L124.929 74.4296L124.765 74.0501L124.602 73.6705L124.605 73.1832L124.608 72.6959L124.768 72.3229L124.929 71.9501L125.127 71.7641L125.326 71.5781L125.621 71.4226L125.916 71.2671H126.382H126.849L127.204 71.4467ZM125.396 71.8798L125.359 71.9748L125.379 73.2664L125.4 74.558L125.677 74.5809L125.955 74.6039V74.1247V73.6457L126 73.5287L126.045 73.4117H126.145H126.245L126.563 74.0023L126.881 74.5929L127.196 74.5939L127.511 74.5949V74.5099V74.4248L127.214 73.9118L126.918 73.3987V73.3682V73.3378H127.053H127.189L127.341 73.1714L127.494 73.005L127.543 72.8422L127.592 72.6794L127.51 72.3745L127.428 72.0695L127.117 71.9288L126.807 71.788L126.12 71.7864L125.432 71.7848L125.396 71.8798ZM126.829 72.3912L126.918 72.4799V72.6016V72.7232L126.778 72.8503L126.637 72.9772L126.315 72.9541L125.992 72.931L125.97 72.6167L125.947 72.3024H126.344H126.74L126.829 72.3912Z" fill="white"/>
</svg>
