<svg width="147" height="37" viewBox="0 0 147 37" fill="none" xmlns="http://www.w3.org/2000/svg">
<path d="M11.3251 14.7794C10.5908 9.53656 11.8875 4.12796 15.9817 0.17002C12.9612 0.595556 10.0955 1.77182 7.64705 3.59118C5.19859 5.41055 3.24549 7.8149 1.96648 10.5842C0.687478 13.3536 0.123395 16.3994 0.325877 19.4431C0.52836 22.4868 1.49094 25.4311 3.12552 28.0066C2.32677 22.4758 6.01765 16.524 11.3251 14.7794ZM11.8955 17.5426C9.50027 18.339 7.42231 19.8802 5.96494 21.9412C4.50756 24.0022 3.74707 26.475 3.79447 28.9987C5.28156 31.04 7.17623 32.7502 9.35857 34.0212C11.5409 35.2922 13.9633 36.0962 16.4725 36.3825C18.9817 36.6687 21.5231 36.4308 23.9356 35.684C26.3481 34.9371 28.5792 33.6975 30.4878 32.0436C21.3949 32.8257 14.1931 25.7668 11.8955 17.5426ZM19.065 0C7.11518 10.2156 17.1084 32.1406 32.6607 29.8183C34.8251 27.1795 36.2062 23.9866 36.6472 20.6022C37.0882 17.2178 36.5714 13.7776 35.1555 10.6722C33.7396 7.56677 31.4813 4.92059 28.6371 3.03412C25.7929 1.14765 22.4766 0.0964924 19.065 0Z" fill="url(#paint0_linear_191_199)"/>
<path d="M45.2656 28.2175C45.2751 27.9497 45.3387 27.6867 45.4527 27.4442C45.5666 27.2017 45.7285 26.9848 45.9285 26.8066C46.2906 26.4661 46.7684 26.2755 47.2654 26.2734C47.7874 26.2794 48.2867 26.4872 48.6587 26.8534C49.0594 27.2554 49.2844 27.7999 49.2844 28.3675C49.2844 28.9351 49.0594 29.4796 48.6587 29.8816C48.2867 30.2467 47.7866 30.4516 47.2654 30.4525C47.0071 30.4547 46.7508 30.4054 46.5117 30.3074C46.2727 30.2094 46.0556 30.0646 45.8732 29.8816C45.6744 29.6838 45.518 29.4476 45.4135 29.1873C45.309 28.927 45.2587 28.6482 45.2656 28.3679H44.4336V30.1992H45.0221V30.3577H42.9287V30.1992H43.5182V26.535H42.9287V26.3758H45.0221V26.535H44.4336V28.2175H45.2656ZM46.2926 28.013V28.3483C46.2467 28.8837 46.3302 29.4222 46.5361 29.9186C46.6149 30.0418 46.7247 30.142 46.8544 30.2094C46.9842 30.2768 47.1294 30.3088 47.2755 30.3024C47.4458 30.3232 47.6181 30.2855 47.7642 30.1955C47.9102 30.1055 48.0214 29.9684 48.0793 29.8069C48.2093 29.3353 48.266 28.8464 48.2472 28.3576V28.3015C48.2517 27.8711 48.2048 27.4417 48.1074 27.0224C48.0687 26.8372 47.9615 26.6735 47.8072 26.564C47.653 26.4545 47.463 26.4073 47.2755 26.4319C47.1696 26.4326 47.0648 26.452 46.9657 26.489C46.6588 26.6095 46.3601 26.9274 46.3117 27.6843C46.3017 27.7975 46.2926 27.9097 46.2926 28.013Z" fill="white"/>
<path d="M51.5279 26.8896C51.6064 26.7068 51.7367 26.5509 51.9028 26.4414C52.0689 26.3319 52.2635 26.2735 52.4624 26.2734C52.6014 26.2741 52.7397 26.2927 52.8739 26.3288C53.268 26.4519 53.6182 26.6859 53.8828 27.0028C54.203 27.3865 54.3664 27.8769 54.3406 28.3759V28.4054C54.3309 28.9259 54.1358 29.4259 53.7903 29.8155C53.6211 30.0198 53.4079 30.1832 53.1666 30.2935C52.9254 30.4038 52.6623 30.4582 52.3971 30.4525C52.2574 30.4606 52.1175 30.4389 51.9869 30.3887C51.8563 30.3385 51.7379 30.2611 51.6396 30.1615C51.5968 30.1162 51.5593 30.066 51.5279 30.0121V32.1896H52.1164V32.3495H50.0229V32.1896H50.6115V26.535H50.0229V26.3758H51.1637C51.2858 26.3664 51.4074 26.3507 51.5279 26.3288V26.8896ZM53.2954 27.6657C53.3277 27.3437 53.2478 27.0204 53.069 26.7505C52.9491 26.597 52.7762 26.4936 52.5842 26.4606C52.5411 26.4527 52.4972 26.4497 52.4534 26.4515C52.3266 26.4489 52.201 26.4752 52.0859 26.5285C51.9709 26.5817 51.8695 26.6605 51.7894 26.7588C51.6184 26.9449 51.5249 27.1892 51.5279 27.4419V29.5267C51.5294 29.6328 51.5545 29.7372 51.6013 29.8323C51.6481 29.9275 51.7155 30.0111 51.7985 30.077C51.9685 30.2286 52.1884 30.3121 52.4162 30.3114C52.518 30.3082 52.6187 30.2895 52.7149 30.2561C53.0036 30.1338 53.2954 29.7692 53.2954 28.9091V27.6657Z" fill="white"/>
<path d="M58.2013 26.8241V26.5349H57.6762V26.3757H59.7063V26.5349H59.1168V30.1991H59.7063V30.3576H57.6762V30.1991H58.2013V27.1425L56.6119 29.8244V30.1991H57.135V30.3576H55.106V30.1991H55.6955V26.5349H55.106V26.3757H57.135V26.5349H56.6119V29.5075L58.2013 26.8241Z" fill="white"/>
<path d="M60.3218 31.5823L60.4344 30.1991H60.5733C60.7333 30.2025 60.889 30.1474 61.0112 30.0441C61.1334 29.9409 61.2138 29.7966 61.2372 29.6383C61.3769 28.8176 61.4305 27.9845 61.3972 27.1526C61.3972 26.7127 61.3127 26.5349 60.6487 26.5349V26.3757H64.3507V26.5349H63.7612V30.1991H64.3889L64.4714 31.5823H64.2753C64.1636 30.6191 63.6495 30.3576 62.6305 30.3576H61.8549C61.527 30.3224 61.1984 30.4162 60.9385 30.6191C60.7191 30.8952 60.5771 31.2247 60.527 31.5738V31.5823H60.3218ZM62.8458 26.5349H62.1727C62.0812 26.5184 61.987 26.5252 61.8987 26.5547C61.8105 26.5841 61.7311 26.6353 61.6678 26.7034C61.5879 26.9506 61.5528 27.2101 61.5641 27.4697C61.5641 27.5728 61.5561 27.6656 61.5561 27.7783C61.5471 27.9749 61.5471 28.1611 61.537 28.3205C61.5284 28.7552 61.4938 29.1891 61.4334 29.6197C61.3949 29.8406 61.2871 30.0436 61.1255 30.1991H62.8458V26.5349Z" fill="white"/>
<path d="M68.2017 26.8241V26.5349H67.6786V26.3757H69.7066V26.5349H69.1172V30.1991H69.7066V30.3576H67.6786V30.1991H68.2017V27.1425L66.6123 29.8244V30.1991H67.1354V30.3576H65.1084V30.1991H65.6969V26.5349H65.1084V26.3757H67.1354V26.5349H66.6123V29.5075L68.2017 26.8241Z" fill="white"/>
<path d="M72.9868 28.489C72.9576 28.4981 72.9485 28.5081 72.9194 28.5167C72.672 28.6074 72.4152 28.6703 72.1539 28.7043C72.0057 28.7299 71.8556 28.7425 71.7052 28.742C71.5327 28.7707 71.3557 28.735 71.2077 28.6419C71.0597 28.5487 70.9511 28.4045 70.9024 28.2365C70.8648 28.1219 70.8488 28.0013 70.8552 27.8809V26.5349H70.2656V26.3757H72.2957V26.5349H71.7706V28.0489C71.7748 28.1153 71.7934 28.1801 71.8251 28.2387C71.8567 28.2973 71.9006 28.3484 71.9539 28.3884C72.0071 28.4284 72.0683 28.4565 72.1334 28.4706C72.1985 28.4848 72.2658 28.4847 72.3309 28.4704C72.441 28.4711 72.5508 28.4584 72.6578 28.4327C72.7697 28.4096 72.8797 28.378 72.9868 28.3381V26.5349H72.4617V26.3757H74.4907V26.5349H73.9022V30.1991H74.4907V30.3576H72.3963V30.1991H72.9868V28.489Z" fill="white"/>
<path d="M78.9583 29.3487C78.8019 29.6679 78.5622 29.9389 78.2646 30.1332C77.967 30.3275 77.6224 30.4378 77.2673 30.4525C76.998 30.4611 76.7298 30.4129 76.4803 30.3112C76.2307 30.2096 76.0053 30.0566 75.8187 29.8622C75.631 29.6626 75.4847 29.4277 75.3884 29.1712C75.292 28.9147 75.2475 28.6417 75.2573 28.3679C75.2452 28.0912 75.2896 27.8149 75.3878 27.556C75.4861 27.2971 75.6361 27.0609 75.8287 26.8619C75.9941 26.6787 76.1958 26.5318 76.4209 26.4305C76.646 26.3292 76.8897 26.2757 77.1365 26.2734C77.3 26.2746 77.4628 26.2931 77.6224 26.3288C77.9493 26.425 78.2434 26.6095 78.4724 26.8619C78.7693 27.2226 78.9286 27.6768 78.9221 28.1438H76.3035L76.3136 28.7883C76.3129 28.9919 76.3284 29.1951 76.3599 29.3962C76.3981 29.6105 76.4811 29.8144 76.6033 29.9945C76.677 30.0879 76.7728 30.1616 76.882 30.2087C76.9912 30.2559 77.1105 30.2751 77.2291 30.2647C77.7159 30.2647 78.247 30.0308 78.7993 29.2461L78.9583 29.3487ZM77.9483 27.9937C77.9467 27.9437 77.95 27.8938 77.9584 27.8445V27.7034C77.9592 27.3982 77.9086 27.095 77.8085 26.8066C77.7617 26.6828 77.6744 26.5784 77.5608 26.5104C77.4473 26.4423 77.314 26.4147 77.1828 26.4319C77.0064 26.4213 76.8315 26.4699 76.6859 26.57C76.5403 26.6701 76.4323 26.8159 76.379 26.9844C76.3387 27.1208 76.3167 27.262 76.3136 27.4041L76.3035 27.9937H77.9483Z" fill="white"/>
<path d="M83.1916 29.3861C83.0792 29.7518 82.8413 30.0662 82.5197 30.2736C82.2949 30.3931 82.0439 30.4545 81.7893 30.4524C81.5091 30.4658 81.2294 30.4164 80.9708 30.3077C80.7121 30.1991 80.481 30.0339 80.2944 29.8244C79.9365 29.424 79.7404 28.9048 79.7442 28.3678C79.7493 28.1717 79.7774 27.9769 79.8277 27.7873C79.9479 27.3908 80.1707 27.0331 80.4735 26.7504C80.6499 26.5872 80.8573 26.4609 81.0832 26.3789C81.3092 26.297 81.5493 26.2611 81.7893 26.2733C82.1443 26.2585 82.4939 26.3642 82.7812 26.5732C82.8938 26.6469 82.9871 26.7464 83.0536 26.8633C83.1201 26.9803 83.1578 27.1114 83.1635 27.2459C83.171 27.3212 83.1628 27.3972 83.1397 27.4692C83.1166 27.5413 83.0789 27.6078 83.029 27.6647C82.9791 27.7216 82.9181 27.7676 82.8497 27.8C82.7813 27.8323 82.7069 27.8503 82.6313 27.8527C82.5548 27.8539 82.4789 27.8398 82.408 27.8111C82.3371 27.7825 82.2727 27.7399 82.2186 27.6859C82.1645 27.6318 82.1218 27.5675 82.0929 27.4967C82.0641 27.4259 82.0498 27.35 82.0509 27.2735C82.0555 27.1986 82.075 27.1253 82.1082 27.058C82.1265 27.0082 82.1519 26.9612 82.1837 26.9187C82.23 26.8347 82.2853 26.7781 82.3144 26.7127C82.3144 26.7034 82.3225 26.6743 82.3225 26.6657C82.3231 26.6476 82.3192 26.6297 82.3111 26.6135C82.303 26.5974 82.291 26.5835 82.2762 26.5732C82.2151 26.5172 82.1427 26.4749 82.064 26.4491C81.9852 26.4233 81.9019 26.4146 81.8195 26.4235C81.7159 26.4235 81.6223 26.4318 81.5197 26.4411C81.3204 26.4821 81.1418 26.5916 81.0147 26.7504C80.8329 27.0538 80.7542 27.4079 80.7904 27.7597V28.9366C80.7799 29.2716 80.847 29.6045 80.9866 29.9092C81.0746 30.0456 81.1998 30.1541 81.3473 30.2219C81.4948 30.2897 81.6586 30.3141 81.8195 30.2922C82.1031 30.2917 82.3783 30.1954 82.6003 30.0189C82.8224 29.8425 82.9783 29.5961 83.0428 29.3199L83.1916 29.3861Z" fill="white"/>
<path d="M85.7999 28.1711C85.9652 28.1815 86.1286 28.1312 86.2594 28.0296C86.3902 27.9279 86.4793 27.782 86.5101 27.6193C86.5439 27.5354 86.5659 27.4472 86.5755 27.3572C86.6218 27.0819 86.7068 26.8145 86.828 26.563C86.8919 26.4604 86.9841 26.3785 87.0935 26.3271C87.2029 26.2757 87.3249 26.257 87.4447 26.2733C87.536 26.2661 87.6278 26.2775 87.7145 26.3069C87.8013 26.3362 87.8812 26.3829 87.9494 26.444C88.0176 26.5052 88.0727 26.5795 88.1113 26.6626C88.1499 26.7456 88.1712 26.8357 88.174 26.9272C88.1834 26.9994 88.1773 27.0727 88.1562 27.1423C88.1351 27.2119 88.0994 27.2762 88.0516 27.331C88.0037 27.3858 87.9448 27.4298 87.8786 27.4601C87.8125 27.4904 87.7407 27.5062 87.6679 27.5067C87.6095 27.513 87.5505 27.5076 87.4942 27.4907C87.438 27.4738 87.3857 27.4458 87.3405 27.4083C87.2953 27.3708 87.258 27.3246 87.231 27.2725C87.2039 27.2204 87.1876 27.1633 87.183 27.1048C87.1874 27.0358 87.1968 26.9672 87.2112 26.8996C87.2112 26.8895 87.2203 26.8709 87.2203 26.8618C87.2309 26.8386 87.2374 26.8136 87.2394 26.7881C87.2394 26.647 87.1449 26.6571 87.0332 26.6571H87.0141C86.9573 26.6997 86.911 26.7548 86.8787 26.8181C86.8465 26.8814 86.8291 26.9512 86.828 27.0223C86.7942 27.1412 86.769 27.2624 86.7525 27.3849C86.7513 27.404 86.7486 27.423 86.7445 27.4418C86.6408 27.8808 86.5473 28.1233 86.2576 28.1987V28.2259C86.4513 28.2117 86.6459 28.2358 86.8303 28.2969C87.0146 28.358 87.1851 28.4549 87.332 28.582C87.4997 28.7643 87.6105 28.9915 87.6508 29.2359C87.6599 29.3013 87.6679 29.3485 87.678 29.4137V29.4512C87.7162 29.7781 87.7544 30.0683 87.9878 30.0683C88.0619 30.0631 88.1336 30.04 88.1969 30.001C88.2601 29.962 88.313 29.9083 88.351 29.8445C88.3605 29.8373 88.3673 29.827 88.3701 29.8153L88.4919 29.8815C88.4029 30.059 88.2648 30.2073 88.0939 30.3085C87.923 30.4097 87.7266 30.4597 87.5282 30.4524C87.4304 30.4549 87.333 30.438 87.2419 30.4026C87.1507 30.3672 87.0674 30.314 86.997 30.2461C86.9266 30.1782 86.8704 30.0969 86.8317 30.0071C86.793 29.9172 86.7726 29.8206 86.7716 29.7228C86.7481 29.6118 86.7327 29.4993 86.7254 29.386C86.7236 29.3668 86.7202 29.3477 86.7153 29.3289C86.722 29.1696 86.6965 29.0106 86.6403 28.8613C86.5842 28.712 86.4985 28.5757 86.3884 28.4603C86.2305 28.3657 86.0493 28.3173 85.8652 28.3205H85.6691L85.4629 28.3298V30.1991H86.0524V30.3575H83.959V30.1991H84.5475V26.5349H83.959V26.3757H86.0524V26.5349H85.4629V28.1711H85.7999Z" fill="white"/>
<path d="M93.3616 29.9843C93.3616 29.9943 93.3425 30.0029 93.3425 30.012C93.2357 30.1529 93.0969 30.2664 92.9375 30.3429C92.7782 30.4195 92.6028 30.457 92.4261 30.4523C92.2968 30.4599 92.1679 30.4325 92.0528 30.3731C91.9378 30.3136 91.8409 30.2243 91.7722 30.1146C91.7233 30.0316 91.6822 29.9443 91.6495 29.8538C91.2915 30.2248 90.8018 30.4398 90.2864 30.4523C90.1459 30.4666 90.004 30.4506 89.8703 30.4053C89.7366 30.3599 89.6141 30.2864 89.5113 30.1897C89.4085 30.0929 89.3277 29.9752 89.2743 29.8445C89.2209 29.7137 89.1963 29.5731 89.202 29.432C89.202 28.6189 89.9112 28.1059 91.3427 28.1059C91.4452 28.1059 91.5478 28.1059 91.6495 28.1142V26.9272C91.6462 26.8519 91.6266 26.7782 91.592 26.7112C91.5574 26.6442 91.5087 26.5856 91.4492 26.5393C91.3896 26.493 91.3207 26.4603 91.2473 26.4433C91.1738 26.4264 91.0976 26.4256 91.0238 26.441H90.903C90.8123 26.4295 90.72 26.4425 90.636 26.4787C90.5519 26.5149 90.4792 26.5731 90.4252 26.647C90.4339 26.7585 90.4662 26.8668 90.5198 26.9649C90.5269 26.9733 90.533 26.9826 90.5379 26.9925C90.5968 27.0752 90.6322 27.1723 90.6405 27.2735C90.6405 27.3112 90.6315 27.3572 90.6315 27.395C90.61 27.5265 90.5412 27.6456 90.438 27.7299C90.3348 27.8142 90.2043 27.8579 90.0711 27.8526C89.989 27.8541 89.9075 27.8378 89.8321 27.805C89.7568 27.7722 89.6894 27.7236 89.6344 27.6625C89.5795 27.6014 89.5383 27.5292 89.5137 27.4508C89.4891 27.3724 89.4816 27.2896 89.4917 27.2081C89.4904 27.0817 89.5237 26.9574 89.5878 26.8485C89.652 26.7396 89.7447 26.6503 89.8558 26.5902C90.1063 26.4431 90.3825 26.3451 90.6697 26.3014C90.7893 26.2785 90.9111 26.269 91.0328 26.2733C91.419 26.2334 91.808 26.3152 92.1454 26.5072C92.3267 26.6232 92.4624 26.7982 92.5297 27.0026C92.5593 27.1405 92.5718 27.2816 92.5669 27.4226V29.8538C92.5656 29.8941 92.5683 29.9345 92.575 29.9743C92.5783 30.0263 92.6019 30.0749 92.6406 30.1099C92.6793 30.1448 92.7301 30.1633 92.7822 30.1614C92.8378 30.1587 92.892 30.1427 92.9402 30.1146C93.0383 30.0649 93.1248 29.9949 93.1937 29.9091C93.2017 29.8998 93.2208 29.8721 93.2299 29.8621L93.3616 29.9843ZM91.6495 28.2636H91.5187C91.1749 28.2315 90.83 28.3139 90.5379 28.498C90.4239 28.6211 90.3388 28.7681 90.2887 28.9282C90.2386 29.0883 90.2247 29.2576 90.2482 29.4237C90.2371 29.5111 90.2462 29.5999 90.2748 29.6832C90.3033 29.7665 90.3506 29.8422 90.4129 29.9044C90.4753 29.9667 90.5511 30.0138 90.6344 30.0422C90.7178 30.0706 90.8066 30.0795 90.894 30.0683C91.0179 30.0521 91.1381 30.0144 91.2491 29.9569C91.401 29.8924 91.5308 29.7849 91.6223 29.6476C91.6328 29.6362 91.6406 29.6228 91.6453 29.6082C91.6499 29.5935 91.6514 29.578 91.6495 29.5628V28.2636Z" fill="white"/>
<path d="M93.8749 29.8622C93.918 29.9219 93.9724 29.9724 94.0351 30.011C94.0977 30.0496 94.1674 30.0754 94.24 30.087C94.3185 30.065 94.3871 30.0169 94.4346 29.9508C94.4821 29.8846 94.5058 29.8042 94.5016 29.7229C94.5037 29.6692 94.5097 29.6157 94.5197 29.5629V29.5539C94.5304 29.5176 94.5368 29.4801 94.5388 29.4422C94.5859 29.1966 94.6847 28.9638 94.8285 28.7592C95.1236 28.4876 95.5121 28.3404 95.913 28.3483V28.3105C95.5344 28.3435 95.1558 28.2485 94.8376 28.0407C94.6467 27.8912 94.5227 27.6724 94.4925 27.4318C94.4828 27.4019 94.4791 27.3704 94.4815 27.339C94.4852 27.2092 94.5183 27.0818 94.5785 26.9667C94.6386 26.8515 94.7241 26.7516 94.8285 26.6743C95.1794 26.445 95.597 26.3399 96.0146 26.3758H98.2679V26.535H97.6804V30.1992H98.2679V30.3576H96.1745V30.1992H96.763V28.395H96.3516C96.2274 28.3723 96.0994 28.3878 95.9842 28.4395C95.8691 28.4911 95.7724 28.5765 95.7068 28.6842C95.6184 28.8854 95.5526 29.0958 95.5106 29.3115V29.329C95.5091 29.3483 95.5057 29.3675 95.5005 29.3861C95.3798 30.1338 95.1545 30.4525 94.7068 30.4525C94.5248 30.4536 94.345 30.4129 94.1812 30.3335C94.0174 30.254 93.8741 30.1381 93.7622 29.9945L93.8749 29.8622ZM96.763 26.535H96.2399C96.1385 26.5349 96.0376 26.5507 95.9411 26.5818C95.8249 26.6124 95.7219 26.68 95.6475 26.7744C95.5731 26.8688 95.5314 26.9847 95.5287 27.1049C95.5176 27.1978 95.5115 27.2914 95.5106 27.385C95.5117 27.4572 95.5178 27.5292 95.5287 27.6006C95.5346 27.7433 95.5872 27.8801 95.6784 27.99C95.7697 28.0999 95.8945 28.1768 96.0337 28.2089C96.1065 28.2317 96.1828 28.2411 96.259 28.2366H96.763V26.535Z" fill="white"/>
<path d="M104.511 28.171C104.676 28.1814 104.84 28.1311 104.97 28.0295C105.101 27.9279 105.19 27.782 105.221 27.6192C105.255 27.5352 105.277 27.4471 105.288 27.3572C105.333 27.082 105.418 26.8146 105.538 26.563C105.602 26.4604 105.695 26.3785 105.804 26.3272C105.914 26.2758 106.036 26.2571 106.156 26.2732C106.247 26.266 106.339 26.2773 106.426 26.3066C106.512 26.336 106.592 26.3826 106.661 26.4438C106.729 26.5049 106.784 26.5793 106.822 26.6624C106.861 26.7455 106.882 26.8356 106.885 26.9272C106.894 26.9991 106.889 27.0723 106.868 27.1419C106.847 27.2114 106.811 27.2757 106.764 27.3305C106.716 27.3853 106.657 27.4293 106.591 27.4596C106.525 27.49 106.454 27.506 106.381 27.5066C106.322 27.5131 106.263 27.5077 106.207 27.4909C106.15 27.474 106.098 27.4461 106.053 27.4086C106.007 27.3711 105.97 27.3249 105.943 27.2727C105.915 27.2205 105.899 27.1634 105.894 27.1047C105.898 27.0357 105.908 26.9671 105.922 26.8995C105.922 26.8894 105.93 26.8708 105.93 26.8617C105.942 26.8387 105.949 26.8137 105.95 26.788C105.95 26.647 105.857 26.657 105.744 26.657H105.725C105.668 26.6997 105.622 26.7548 105.59 26.8181C105.557 26.8813 105.54 26.9511 105.538 27.0222C105.505 27.1412 105.48 27.2624 105.465 27.3848C105.463 27.404 105.46 27.423 105.456 27.4417C105.353 27.8808 105.259 28.1232 104.969 28.1987V28.2258C105.162 28.2116 105.357 28.2358 105.542 28.2969C105.726 28.358 105.897 28.4549 106.044 28.582C106.211 28.7643 106.322 28.9916 106.362 29.2358C106.371 29.3012 106.381 29.3485 106.39 29.4136V29.4511C106.426 29.778 106.463 30.0683 106.698 30.0683C106.772 30.0634 106.844 30.0405 106.908 30.0014C106.971 29.9624 107.024 29.9085 107.062 29.8444C107.072 29.8372 107.078 29.8269 107.081 29.8153L107.203 29.8814C107.114 30.059 106.976 30.2073 106.806 30.3085C106.635 30.4098 106.438 30.4597 106.24 30.4523C106.142 30.455 106.045 30.4383 105.953 30.4029C105.862 30.3676 105.779 30.3144 105.708 30.2465C105.638 30.1785 105.581 30.0972 105.543 30.0073C105.504 29.9174 105.484 29.8206 105.483 29.7227C105.46 29.6116 105.444 29.4991 105.435 29.386C105.434 29.3667 105.431 29.3476 105.426 29.3289C105.433 29.1695 105.408 29.0104 105.352 28.8611C105.296 28.7118 105.21 28.5755 105.099 28.4602C104.942 28.3655 104.76 28.3171 104.576 28.3204H104.38L104.174 28.3297V30.199H104.764V30.3575H102.669V30.199H103.259V26.5348H102.669V26.3756H104.764V26.5348H104.174V28.171H104.511Z" fill="white"/>
<path d="M107.895 28.2172C107.93 27.7188 108.134 27.2471 108.474 26.8808C108.652 26.68 108.873 26.5213 109.121 26.4163C109.368 26.3112 109.636 26.2623 109.904 26.2732C110.168 26.2629 110.43 26.3111 110.672 26.4145C110.915 26.5178 111.131 26.6737 111.306 26.8708C111.652 27.2228 111.87 27.6807 111.924 28.171C111.924 28.2364 111.933 28.3013 111.933 28.3676C111.933 28.4325 111.924 28.498 111.924 28.5636C111.87 29.0534 111.652 29.5107 111.306 29.862C111.121 30.0497 110.9 30.1986 110.657 30.2999C110.413 30.4013 110.152 30.4531 109.888 30.4523C109.625 30.4515 109.364 30.3982 109.121 30.2954C108.878 30.1926 108.658 30.0425 108.474 29.8537C108.134 29.4872 107.93 29.0153 107.895 28.5165C107.887 28.4674 107.884 28.4175 107.885 28.3676C107.883 28.3173 107.887 28.2669 107.895 28.2172ZM108.932 28.3948C108.932 29.7127 109.12 30.3021 109.913 30.3021C110.056 30.3082 110.197 30.2768 110.323 30.211C110.45 30.1452 110.557 30.0475 110.633 29.9274C110.847 29.443 110.934 28.912 110.885 28.3847C110.889 27.9284 110.836 27.4734 110.727 27.0302C110.691 26.8467 110.587 26.6834 110.437 26.5726C110.286 26.4618 110.099 26.4115 109.913 26.4316C109.427 26.4316 108.969 26.7968 108.941 27.6942C108.932 27.9271 108.932 28.1609 108.932 28.3948Z" fill="white"/>
<path d="M112.699 26.3757H114.288L115.447 29.1429L116.503 26.3757H118.101V26.5349H117.511V30.1991H118.101V30.3576H116.008V30.1991H116.597V26.637L115.138 30.3576H115.054L113.559 26.6743V29.6753C113.557 29.8012 113.583 29.9259 113.634 30.0407C113.7 30.1071 113.782 30.1563 113.871 30.1839C113.961 30.2115 114.055 30.2168 114.147 30.1991V30.3576H112.79V30.1991C112.825 30.199 112.86 30.196 112.895 30.1901H112.951C113.012 30.192 113.072 30.1823 113.128 30.1614C113.212 30.1185 113.279 30.0502 113.321 29.9665C113.363 29.8828 113.378 29.7879 113.363 29.6954V27.058C113.374 26.9981 113.372 26.9366 113.358 26.8773C113.344 26.8181 113.318 26.7624 113.281 26.714C113.244 26.6656 113.197 26.6255 113.143 26.5962C113.09 26.567 113.031 26.5493 112.97 26.5442C112.933 26.5365 112.895 26.5333 112.857 26.5349H112.699V26.3757Z" fill="white"/>
<path d="M120.353 30.1991H120.877V30.3576H118.848V30.1991H119.438V26.5349H118.848V26.3757H123.446V26.5349H122.858V30.1991H123.446V30.3576H121.418V30.1991H121.941V26.5349H120.353V30.1991Z" fill="white"/>
<path d="M128.401 29.9844C128.401 29.9944 128.382 30.0029 128.382 30.012C128.275 30.1531 128.136 30.2667 127.977 30.3433C127.817 30.4199 127.642 30.4573 127.465 30.4524C127.336 30.4599 127.207 30.4326 127.092 30.3731C126.977 30.3137 126.88 30.2244 126.811 30.1146C126.763 30.0317 126.722 29.9444 126.69 29.8538C126.331 30.2248 125.84 30.4398 125.324 30.4524C125.184 30.4665 125.042 30.4503 124.909 30.4049C124.775 30.3595 124.653 30.286 124.55 30.1892C124.447 30.0925 124.367 29.9748 124.313 29.8442C124.26 29.7136 124.235 29.573 124.241 29.4321C124.241 28.619 124.952 28.1059 126.381 28.1059C126.484 28.1059 126.587 28.1059 126.69 28.1142V26.9272C126.686 26.8519 126.667 26.7781 126.632 26.711C126.597 26.644 126.548 26.5853 126.489 26.5391C126.429 26.4928 126.36 26.4601 126.287 26.4432C126.213 26.4263 126.137 26.4255 126.063 26.4411H125.943C125.852 26.4294 125.76 26.4423 125.676 26.4786C125.592 26.5148 125.519 26.573 125.465 26.6471C125.467 26.6881 125.473 26.7289 125.483 26.7688C125.496 26.8383 125.522 26.9048 125.559 26.9649C125.566 26.9735 125.573 26.9828 125.578 26.9926C125.637 27.0754 125.672 27.1724 125.682 27.2735C125.682 27.3113 125.671 27.3573 125.671 27.395C125.65 27.5266 125.581 27.6458 125.477 27.73C125.374 27.8143 125.243 27.858 125.11 27.8527C125.028 27.8542 124.946 27.8379 124.871 27.8052C124.796 27.7724 124.728 27.7238 124.673 27.6627C124.618 27.6016 124.577 27.5294 124.552 27.451C124.527 27.3726 124.52 27.2898 124.53 27.2082C124.529 27.0816 124.562 26.9571 124.627 26.8482C124.691 26.7393 124.784 26.6501 124.896 26.5902C125.146 26.4432 125.422 26.3452 125.709 26.3015C125.828 26.2785 125.95 26.2691 126.072 26.2733C126.458 26.2333 126.847 26.3151 127.184 26.5072C127.365 26.6235 127.501 26.7984 127.569 27.0026C127.598 27.1406 127.611 27.2817 127.606 27.4227V29.8538C127.604 29.8942 127.608 29.9346 127.615 29.9743C127.618 30.0262 127.641 30.075 127.679 30.11C127.718 30.145 127.768 30.1635 127.82 30.1614C127.877 30.1588 127.931 30.1427 127.98 30.1146C128.078 30.0647 128.163 29.9947 128.232 29.9092C128.242 29.8998 128.26 29.8722 128.27 29.8621L128.401 29.9844ZM126.69 28.2637H126.559C126.215 28.2314 125.87 28.3138 125.578 28.4981C125.464 28.621 125.378 28.7679 125.328 28.928C125.278 29.0882 125.264 29.2576 125.287 29.4238C125.276 29.5112 125.285 29.5999 125.314 29.6833C125.342 29.7666 125.39 29.8423 125.452 29.9045C125.514 29.9667 125.59 30.0139 125.673 30.0423C125.757 30.0707 125.846 30.0796 125.933 30.0684C126.057 30.0521 126.177 30.0144 126.288 29.957C126.44 29.8919 126.57 29.7845 126.662 29.6476C126.673 29.6363 126.681 29.6229 126.685 29.6082C126.69 29.5936 126.691 29.5781 126.69 29.5628V28.2637Z" fill="white"/>
<path d="M130.465 30.1991H130.988V30.3576H128.961V30.1991H129.549V26.5349H128.961V26.3757H130.988V26.5349H130.465V28.1334H132.054V26.5349H131.531V26.3757H133.56V26.5349H132.97V30.1991H133.56V30.3576H131.531V30.1991H132.054V28.2828H130.465V30.1991Z" fill="white"/>
<path d="M137.4 26.8241V26.5349H136.877V26.3757H138.905V26.5349H138.316V30.1991H138.905V30.3576H136.877V30.1991H137.4V27.1425L135.812 29.8244V30.1991H136.335V30.3576H134.308V30.1991H134.895V26.5349H134.308V26.3757H136.335V26.5349H135.812V29.5075L137.4 26.8241Z" fill="white"/>
<path d="M139.607 29.8623C139.65 29.9219 139.704 29.9725 139.766 30.0111C139.828 30.0497 139.897 30.0755 139.97 30.0871C140.048 30.0656 140.117 30.0177 140.165 29.9515C140.213 29.8852 140.237 29.8045 140.232 29.7229C140.234 29.6692 140.24 29.6157 140.251 29.563V29.5539C140.262 29.5176 140.268 29.4801 140.269 29.4423C140.317 29.1966 140.416 28.9638 140.56 28.7592C140.855 28.4875 141.243 28.3402 141.644 28.3483V28.3105C141.266 28.3437 140.887 28.2486 140.569 28.0407C140.378 27.8916 140.253 27.6726 140.223 27.4319C140.214 27.4018 140.211 27.3703 140.213 27.3391C140.217 27.2092 140.25 27.082 140.31 26.9669C140.37 26.8518 140.456 26.7518 140.56 26.6744C140.911 26.4449 141.329 26.3398 141.747 26.3758H143.999V26.535H143.411V30.1993H143.999V30.3577H141.906V30.1993H142.494V28.3951H142.083C141.959 28.3724 141.831 28.3879 141.715 28.4395C141.6 28.4911 141.503 28.5765 141.437 28.6843C141.35 28.8858 141.284 29.0961 141.241 29.3115V29.3291C141.24 29.3483 141.237 29.3674 141.233 29.3862C141.111 30.1338 140.887 30.4525 140.438 30.4525C140.256 30.4536 140.076 30.4129 139.913 30.3335C139.749 30.2541 139.606 30.1381 139.494 29.9945L139.607 29.8623ZM142.494 26.535H141.97C141.869 26.535 141.768 26.5508 141.672 26.5818C141.556 26.6127 141.453 26.6804 141.379 26.7747C141.304 26.8691 141.263 26.9849 141.26 27.1049C141.249 27.1979 141.242 27.2914 141.241 27.385C141.242 27.4572 141.249 27.5293 141.26 27.6006C141.266 27.7432 141.318 27.88 141.409 27.9899C141.5 28.0998 141.625 28.1768 141.764 28.2089C141.837 28.2316 141.913 28.2409 141.989 28.2366H142.494V26.535Z" fill="white"/>
<path d="M143.953 21.4729H42.9214V22.1504H143.953V21.4729Z" fill="white"/>
<path d="M59.0662 6.81638V12.3165H60.0219C60.3523 12.3429 60.6846 12.2985 60.9965 12.1861C61.3085 12.0738 61.5928 11.8962 61.8306 11.6651C62.2742 11.0926 62.4883 10.3752 62.4311 9.6532C62.4386 9.2185 62.3937 8.78447 62.2973 8.36051C62.2311 8.05583 62.1001 7.76899 61.913 7.51953L61.911 7.51804C61.7192 7.27989 61.4649 7.09966 61.1767 6.99742C60.8058 6.86783 60.4146 6.80649 60.0219 6.81638H59.0662ZM57.0452 16.5662V6.81638H55.8149V6.14135H60.5037C61.0313 6.13538 61.5575 6.19794 62.069 6.32744C62.5182 6.44012 62.9442 6.6308 63.3274 6.8908C63.7483 7.17713 64.0871 7.56846 64.3103 8.02604C64.5359 8.51659 64.6474 9.05195 64.6362 9.59181C64.6463 10.0918 64.5645 10.5894 64.3948 11.0598C64.2423 11.4686 63.9873 11.8315 63.6544 12.1135C63.3675 12.3485 63.0412 12.5307 62.6907 12.6517C62.2749 12.7964 61.8433 12.8907 61.405 12.9327H61.402C61.235 12.9485 60.9403 12.961 60.5198 12.9698C60.1194 12.9769 59.6348 12.9807 59.0662 12.9812V16.5662H60.4675V17.2465H55.8149V16.5662H57.0452ZM69.8672 14.6737L74.2784 7.6689V6.83647H73.1758V6.14135H77.5568V6.83647H76.3245V16.5662H77.5568V17.2465H73.1758V16.5662H74.2784V8.8082L69.8672 15.896V16.5662H70.9828V17.2465H66.6139V16.5662H67.8463V6.83647H66.6139V6.14135H70.9828V6.83647H69.8672V14.6737ZM84.7415 6.62169C84.2571 6.60917 83.7823 6.75777 83.3914 7.04419C82.9681 7.38661 82.6452 7.83708 82.4569 8.34795V8.34918C82.2633 8.82508 82.1262 9.32208 82.0485 9.82997C81.8668 11.0699 81.8661 12.3296 82.0465 13.5697C82.1202 14.0782 82.2536 14.5762 82.4439 15.0534C82.6323 15.5646 82.956 16.0151 83.3804 16.3567C83.7748 16.6445 84.2533 16.7938 84.7415 16.7812C84.8895 16.7808 85.0372 16.7654 85.1821 16.7352C85.3465 16.7009 85.5079 16.6538 85.665 16.5943C86.0488 16.4364 86.3803 16.1734 86.6216 15.8356C86.9386 15.389 87.1761 14.891 87.3238 14.3636L87.3208 14.3616C87.4319 13.9794 87.5093 13.5882 87.5521 13.1925C87.6051 12.6957 87.6303 12.1964 87.6276 11.6968C87.6325 11.0684 87.5858 10.4406 87.4877 9.81992C87.4081 9.31106 87.2679 8.81354 87.0703 8.3379V8.33636C86.8756 7.82657 86.5464 7.37907 86.1176 7.04146C85.7168 6.75547 85.2336 6.60809 84.7415 6.62169ZM79.6342 11.6968C79.6322 11.2291 79.6706 10.7621 79.7488 10.301C79.8188 9.88806 79.9338 9.48401 80.0919 9.09612H80.0939C80.2875 8.61653 80.5494 8.16743 80.8715 7.76274C81.1821 7.37555 81.551 7.03898 81.965 6.76508H81.966C82.3666 6.5018 82.8049 6.30074 83.2657 6.16875C83.7462 6.03522 84.2428 5.96878 84.7415 5.97133C85.2577 5.96774 85.772 6.03597 86.2695 6.17405C86.7436 6.30703 87.1943 6.51268 87.6055 6.78367L87.6075 6.78516C88.0285 7.06917 88.4008 7.41942 88.71 7.82233C89.0358 8.24928 89.299 8.72055 89.4917 9.22189L89.4926 9.22364C89.6307 9.59337 89.7308 9.97619 89.7914 10.3662C89.8598 10.8064 89.8932 11.2513 89.891 11.6968C89.8938 12.1522 89.8567 12.6069 89.7803 13.0559C89.7118 13.4584 89.6002 13.8524 89.4474 14.2311C89.2516 14.7109 88.9887 15.1605 88.6667 15.5665C88.3523 15.959 87.9802 16.3015 87.5632 16.5825H87.5622C87.1523 16.8598 86.7025 17.073 86.2283 17.2145C85.7458 17.358 85.2448 17.4295 84.7415 17.4268C84.2472 17.429 83.7554 17.3563 83.2828 17.2113C82.8113 17.0646 82.3654 16.8457 81.961 16.5624C81.5505 16.2801 81.184 15.9386 80.8735 15.5489C80.5527 15.1492 80.2902 14.7059 80.0939 14.2323L80.0919 14.2311C79.9356 13.8505 79.8205 13.4542 79.7488 13.0491C79.6709 12.6025 79.6326 12.15 79.6342 11.6968ZM95.2488 6.81638V12.3165H96.2065C96.5367 12.3428 96.8686 12.2983 97.1802 12.186C97.4918 12.0737 97.7758 11.8961 98.0132 11.6651C98.4576 11.093 98.6722 10.3754 98.6148 9.6532C98.6227 9.21886 98.5771 8.7852 98.479 8.36201C98.4132 8.05656 98.2817 7.76909 98.0937 7.51953L98.0916 7.51804C97.9005 7.2804 97.6474 7.10022 97.3603 6.99742C96.9898 6.86798 96.5989 6.80665 96.2065 6.81638H95.2488ZM93.2278 16.5662V6.81638H91.9965V6.14135H96.6894C97.216 6.1355 97.7411 6.19806 98.2516 6.32744C98.7011 6.43933 99.1272 6.63007 99.5101 6.8908H99.5131C99.9327 7.17831 100.271 7.56936 100.495 8.02604C100.72 8.51673 100.832 9.05199 100.821 9.59181C100.831 10.092 100.748 10.5896 100.577 11.0598C100.426 11.469 100.171 11.832 99.837 12.1135C99.5504 12.3483 99.2244 12.5305 98.8743 12.6517C98.4579 12.7966 98.0256 12.8909 97.5867 12.9327C97.4196 12.9485 97.1239 12.961 96.7034 12.9698C96.302 12.9769 95.8172 12.9807 95.2488 12.9812V16.5662H96.6511V17.2465H91.9965V16.5662H93.2278ZM106.049 14.6737L110.462 7.6689V6.83647H109.358V6.14135H113.741V6.83647H112.509V16.5662H113.741V17.2465H109.358V16.5662H110.462V8.8082L106.049 15.896V16.5662H107.165V17.2465H102.799V16.5662H104.031V6.83647H102.799V6.14135H107.165V6.83647H106.049V14.6737ZM119.156 16.5662V6.81885C118.344 6.78166 117.547 7.0372 116.908 7.5389C116.629 7.82409 116.414 8.16591 116.278 8.54127C116.142 8.91663 116.088 9.31681 116.12 9.7148V9.89363H115.461V6.14135H124.897V9.89363H124.24V9.7148C124.271 9.31702 124.217 8.91716 124.081 8.54192C123.946 8.16669 123.732 7.82473 123.453 7.5389C122.819 7.03774 122.025 6.78208 121.218 6.81885V16.5662H122.566V17.2465H117.811V16.5662H119.156ZM127.88 16.5662V6.81638H126.648V6.14135H134.899V9.83275H134.24V9.6532C134.246 9.25227 134.19 8.85282 134.075 8.46867C133.976 8.14108 133.812 7.83667 133.593 7.57336C133.385 7.32632 133.121 7.13257 132.823 7.00824C132.485 6.87457 132.124 6.80936 131.76 6.81638H129.898V10.9836H130.324C130.58 10.9889 130.835 10.9561 131.081 10.8862C131.261 10.8355 131.426 10.741 131.56 10.6114C131.69 10.4732 131.785 10.3053 131.836 10.1222H131.835C131.906 9.86521 131.938 9.59927 131.932 9.33278V9.15272H132.506V13.5287H131.932L131.933 13.3484C131.975 12.8926 131.845 12.4378 131.569 12.0725V12.0713C131.421 11.9266 131.243 11.8155 131.049 11.7457C130.854 11.6758 130.646 11.6488 130.44 11.6664H129.898V16.5662H132.047C132.409 16.5738 132.768 16.5048 133.101 16.3638C133.4 16.2288 133.66 16.0218 133.859 15.7614V15.7602C134.05 15.5047 134.202 15.2214 134.307 14.9202C134.45 14.5188 134.558 14.1056 134.628 13.6854L134.654 13.5375H135.288L135.269 13.7349L134.939 17.0848L134.924 17.2465H126.648V16.5662H127.88ZM140.541 16.5662V6.81885C139.731 6.78164 138.933 7.0372 138.295 7.5389C138.015 7.82389 137.8 8.16561 137.664 8.54099C137.527 8.91637 137.473 9.31665 137.504 9.7148V9.89363H136.848V6.14135H146.286V9.89363H145.628V9.7148C145.659 9.31699 145.606 8.91699 145.47 8.54168C145.334 8.16638 145.12 7.82446 144.841 7.5389C144.206 7.03791 143.411 6.78232 142.603 6.81885V16.5662H143.953V17.2465H139.196V16.5662H140.541ZM46.1727 6.81638V16.5662H47.2903V17.2465H42.9214V16.5662H44.1527V6.81638H42.9214V6.14135H53.8663V6.81638H52.634V16.5662H53.8663V17.2465H49.4833V16.5662H50.5859V6.81638H46.1727Z" fill="white"/>
<defs>
<linearGradient id="paint0_linear_191_199" x1="18.5429" y1="36.5" x2="18.5429" y2="0" gradientUnits="userSpaceOnUse">
<stop stop-color="white"/>
<stop offset="1" stop-color="white"/>
</linearGradient>
</defs>
</svg>
