<svg width="147" height="28" viewBox="0 0 147 28" fill="none" xmlns="http://www.w3.org/2000/svg">
<g opacity="0.4">
<path d="M37.4497 3.41073C38.5637 3.41073 39.5492 3.57151 40.4061 3.89306C41.2802 4.21462 42.1028 4.69696 42.874 5.34008L40.8689 7.701C40.3376 7.29482 39.8148 6.99019 39.3007 6.7871C38.7865 6.584 38.2381 6.48246 37.6554 6.48246C36.4557 6.48246 35.5045 6.98172 34.8018 7.98025C34.1163 8.97877 33.7735 10.5189 33.7735 12.6005C33.7735 14.6484 34.1163 16.1715 34.8018 17.1701C35.5045 18.1517 36.4728 18.6425 37.7068 18.6425C38.3581 18.6425 38.9493 18.524 39.4806 18.2871C40.0119 18.0332 40.5861 17.6778 41.203 17.2208L43.0797 19.6071C42.4113 20.2672 41.5972 20.8088 40.6375 21.2319C39.6949 21.655 38.6494 21.8665 37.5011 21.8665C35.8559 21.8665 34.4248 21.5111 33.208 20.8003C31.9911 20.0895 31.04 19.0402 30.3544 17.6524C29.686 16.2477 29.3518 14.5637 29.3518 12.6005C29.3518 10.6881 29.6946 9.03801 30.3801 7.65023C31.0828 6.26245 32.0426 5.21315 33.2594 4.50233C34.4934 3.77459 35.8901 3.41073 37.4497 3.41073Z" fill="white"/>
<path d="M48.5151 7.5233C50.4346 7.5233 51.9428 8.1241 53.0396 9.32572C54.1536 10.5104 54.7106 12.2621 54.7106 14.5807C54.7106 16.8316 54.1193 18.6086 52.9368 19.9118C51.7714 21.2149 50.1175 21.8665 47.9752 21.8665C46.2271 21.8665 44.6761 21.3588 43.3221 20.3433L45.0702 18.0332C45.5673 18.3548 46.0214 18.5917 46.4327 18.744C46.8612 18.8794 47.3239 18.9471 47.821 18.9471C49.5177 18.9471 50.4431 17.8724 50.5974 15.7231H45.7129V13.4129H50.5717C50.5031 12.3636 50.2632 11.602 49.8519 11.1281C49.4577 10.6543 48.9093 10.4173 48.2066 10.4173C47.6924 10.4173 47.2125 10.4935 46.7669 10.6458C46.3214 10.7812 45.8586 11.0012 45.3787 11.3058L43.6563 9.09724C45.0103 8.04794 46.6298 7.5233 48.5151 7.5233Z" fill="white"/>
<path d="M68.3501 7.95486V21.435H64.2883V10.8997H61.6918L61.4348 13.7683C61.2462 15.7484 61.0234 17.2293 60.7664 18.2109C60.5264 19.1756 60.098 19.9372 59.481 20.4957C58.864 21.0542 57.9214 21.4773 56.6531 21.765L55.6505 18.8456C56.2161 18.5917 56.6103 18.3294 56.8331 18.0586C57.073 17.7709 57.253 17.3224 57.373 16.7131C57.4929 16.0869 57.6043 15.0376 57.7072 13.5652L58.1185 7.95486H68.3501Z" fill="white"/>
<path d="M79.9523 14.0222C82.266 14.293 83.4228 15.4015 83.4228 17.3478C83.4228 18.7186 82.8744 19.7425 81.7775 20.4195C80.6978 21.0965 79.2154 21.435 77.3301 21.435H71.5459V8.08179C73.5854 7.70946 75.3849 7.5233 76.9445 7.5233C78.7955 7.5233 80.2351 7.83639 81.2634 8.46259C82.3088 9.07186 82.8316 9.9773 82.8316 11.1789C82.8316 11.9405 82.5831 12.5667 82.086 13.0575C81.6062 13.5314 80.8949 13.8529 79.9523 14.0222ZM76.8674 10.0873C76.3361 10.0873 75.9162 10.1042 75.6077 10.1381V13.2352H77.0473C77.6129 13.2352 78.0499 13.1083 78.3584 12.8544C78.6669 12.5836 78.8212 12.1774 78.8212 11.6359C78.8212 10.6035 78.1699 10.0873 76.8674 10.0873ZM77.2016 18.7948C78.5727 18.7948 79.2582 18.194 79.2582 16.9924C79.2582 16.4339 79.0954 16.0192 78.7698 15.7484C78.4441 15.4776 77.93 15.3423 77.2273 15.3423H75.6077V18.7948H77.2016Z" fill="white"/>
<path d="M97.8613 21.435H94.0051V16.637C94.0051 15.6892 94.0566 14.7922 94.1594 13.946C94.2622 13.0998 94.3908 12.389 94.545 11.8136L89.9948 21.435H85.8558V7.95486H89.7377V12.829C89.7377 13.726 89.6777 14.6061 89.5577 15.4692C89.4549 16.3323 89.3349 17.0431 89.1978 17.6016L93.6967 7.95486H97.8613V21.435Z" fill="white"/>
<path d="M119.408 3.84229L118.996 7.04096H114.6V21.435H110.384V7.04096H105.782V3.84229H119.408Z" fill="white"/>
<path d="M127.531 21.4603C126.983 23.2035 126.083 24.5405 124.832 25.4714C123.598 26.4191 121.935 26.9522 119.845 27.0707L119.408 24.2528C120.71 24.0836 121.67 23.7959 122.287 23.3897C122.921 22.9835 123.426 22.3319 123.804 21.435H122.415L118.251 7.95486H122.57L125.012 18.8709L127.685 7.95486H131.876L127.531 21.4603Z" fill="white"/>
<path d="M141.017 7.5233C142.731 7.5233 144.007 8.14949 144.847 9.40188C145.687 10.6543 146.107 12.4059 146.107 14.6568C146.107 16.0446 145.884 17.2885 145.439 18.3886C145.01 19.4718 144.385 20.3264 143.562 20.9526C142.739 21.5619 141.779 21.8665 140.683 21.8665C139.312 21.8665 138.206 21.4011 137.366 20.4703V26.6391L133.305 27.0707V7.95486H136.878L137.084 9.45265C137.615 8.79261 138.223 8.31027 138.909 8.00563C139.594 7.68407 140.297 7.5233 141.017 7.5233ZM139.449 18.9217C141.077 18.9217 141.891 17.517 141.891 14.7076C141.891 13.1167 141.711 12.0167 141.351 11.4074C140.991 10.7812 140.451 10.4681 139.731 10.4681C139.269 10.4681 138.832 10.6035 138.42 10.8743C138.026 11.1451 137.675 11.5343 137.366 12.042V17.7286C137.915 18.524 138.609 18.9217 139.449 18.9217Z" fill="white"/>
<path fill-rule="evenodd" clip-rule="evenodd" d="M17.3379 21.1541C18.0112 20.7956 18.8021 20.7193 19.5329 20.9425L21.2412 21.4642L20.786 19.7784C20.5874 19.0431 20.6988 18.2597 21.0947 17.6068C21.9697 16.164 22.4733 14.477 22.4733 12.6652C22.4733 7.34346 18.1046 3.02933 12.7154 3.02933C7.3263 3.02933 2.95755 7.34346 2.95755 12.6652C2.95755 17.987 7.3263 22.3011 12.7154 22.3011C14.3936 22.3011 15.9649 21.8851 17.3379 21.1541ZM25.3239 25.6574L18.6908 23.6318C16.9124 24.5787 14.8775 25.1161 12.7154 25.1161C5.75195 25.1161 0.106934 19.5416 0.106934 12.6652C0.106934 5.7888 5.75195 0.214355 12.7154 0.214355C19.6789 0.214355 25.3239 5.7888 25.3239 12.6652C25.3239 15.0004 24.6729 17.1855 23.5403 19.053L25.3239 25.6574Z" fill="black"/>
<path fill-rule="evenodd" clip-rule="evenodd" d="M17.3379 21.1541C18.0112 20.7956 18.8021 20.7193 19.5329 20.9425L21.2412 21.4642L20.786 19.7784C20.5874 19.0431 20.6988 18.2597 21.0947 17.6068C21.9697 16.164 22.4733 14.477 22.4733 12.6652C22.4733 7.34346 18.1046 3.02933 12.7154 3.02933C7.3263 3.02933 2.95755 7.34346 2.95755 12.6652C2.95755 17.987 7.3263 22.3011 12.7154 22.3011C14.3936 22.3011 15.9649 21.8851 17.3379 21.1541ZM25.3239 25.6574L18.6908 23.6318C16.9124 24.5787 14.8775 25.1161 12.7154 25.1161C5.75195 25.1161 0.106934 19.5416 0.106934 12.6652C0.106934 5.7888 5.75195 0.214355 12.7154 0.214355C19.6789 0.214355 25.3239 5.7888 25.3239 12.6652C25.3239 15.0004 24.6729 17.1855 23.5403 19.053L25.3239 25.6574Z" fill="white"/>
<path fill-rule="evenodd" clip-rule="evenodd" d="M10.3354 17.1674C9.9887 16.9828 9.58144 16.9435 9.20516 17.0584L8.32556 17.327L8.55997 16.4591C8.66222 16.0804 8.60488 15.6771 8.401 15.3409C7.9505 14.598 7.69118 13.7294 7.69118 12.7965C7.69118 10.0564 9.94062 7.83507 12.7154 7.83507C15.4903 7.83507 17.7397 10.0564 17.7397 12.7965C17.7397 15.5367 15.4903 17.758 12.7154 17.758C11.8514 17.758 11.0423 17.5438 10.3354 17.1674ZM6.22341 19.4861L9.63879 18.4432C10.5544 18.9307 11.6022 19.2074 12.7154 19.2074C16.3009 19.2074 19.2075 16.3371 19.2075 12.7965C19.2075 9.2559 16.3009 6.38565 12.7154 6.38565C9.13 6.38565 6.22341 9.2559 6.22341 12.7965C6.22341 13.9989 6.55862 15.124 7.14178 16.0856L6.22341 19.4861Z" fill="black"/>
<path fill-rule="evenodd" clip-rule="evenodd" d="M10.3354 17.1674C9.9887 16.9828 9.58144 16.9435 9.20516 17.0584L8.32556 17.327L8.55997 16.4591C8.66222 16.0804 8.60488 15.6771 8.401 15.3409C7.9505 14.598 7.69118 13.7294 7.69118 12.7965C7.69118 10.0564 9.94062 7.83507 12.7154 7.83507C15.4903 7.83507 17.7397 10.0564 17.7397 12.7965C17.7397 15.5367 15.4903 17.758 12.7154 17.758C11.8514 17.758 11.0423 17.5438 10.3354 17.1674ZM6.22341 19.4861L9.63879 18.4432C10.5544 18.9307 11.6022 19.2074 12.7154 19.2074C16.3009 19.2074 19.2075 16.3371 19.2075 12.7965C19.2075 9.2559 16.3009 6.38565 12.7154 6.38565C9.13 6.38565 6.22341 9.2559 6.22341 12.7965C6.22341 13.9989 6.55862 15.124 7.14178 16.0856L6.22341 19.4861Z" fill="white"/>
</g>
</svg>
