<svg width="146" height="62" viewBox="0 0 146 62" fill="none" xmlns="http://www.w3.org/2000/svg">
<path opacity="0.4" fill-rule="evenodd" clip-rule="evenodd" d="M114.065 1.78606C113.65 2.97259 113.378 4.204 113.254 5.45457L113.161 6.38632C113.054 7.45974 113.048 8.54082 113.143 9.61535L113.178 10.0058C113.331 11.7364 113.784 13.4273 114.516 15.0029C115.248 16.5787 116.246 18.0169 117.466 19.2543L117.645 19.4366L117.679 19.4706C118.999 20.8097 120.498 21.9599 122.133 22.8887L122.794 23.2639C123.993 23.9452 125.252 24.5167 126.555 24.9715L127.835 25.4185C128.241 25.56 128.691 25.4287 128.957 25.0915C129.249 24.7225 129.44 24.2843 129.512 23.8195L129.957 20.9564L130.087 20.119C130.369 18.3077 130.357 16.4628 130.053 14.6552L129.974 14.1857C129.721 12.6854 129.278 11.2232 128.657 9.83427C128.038 8.44834 127.2 7.17061 126.176 6.04961L125.93 5.77968C124.745 4.4825 123.329 3.417 121.755 2.63755L120.282 1.90846L117.207 0.38582C116.694 0.132034 116.13 0 115.558 0C115.037 0 114.573 0.329567 114.401 0.821513L114.065 1.78606ZM136.284 16.9523L136.019 17.0658C135.081 17.4682 134.219 18.0276 133.468 18.7198C132.718 19.4118 132.094 20.2291 131.624 21.1352L131.468 21.4365L131.259 21.8403C130.824 22.6778 130.544 23.5866 130.432 24.5233L130.359 25.1291C130.304 25.5858 130.612 26.0073 131.063 26.0945C131.52 26.1831 131.972 25.9161 132.114 25.4727L132.165 25.3139C132.361 24.7007 132.715 24.1497 133.191 23.716L134.532 22.4943L134.569 22.4605C135.889 21.2567 137.55 20.4925 139.323 20.2734L141.017 20.0641C141.697 19.9801 142.386 20.0427 143.04 20.2477L143.167 20.2878C143.706 20.4569 144.293 20.3429 144.73 19.9848C145.172 19.6215 145.429 19.079 145.429 18.5063V18.355C145.429 17.7123 145.052 17.1293 144.466 16.8653L144.202 16.7465C143.394 16.3822 142.517 16.197 141.631 16.2036L140.471 16.2122L139.796 16.2172C138.588 16.2261 137.394 16.4761 136.284 16.9523ZM48.534 27.8415C47.3383 28.2943 46.2001 28.8866 45.1431 29.606L44.6103 29.9686L44.4265 30.0937C43.14 30.9691 41.9914 32.0317 41.0188 33.2464C40.046 34.4613 39.2576 35.8129 38.6789 37.2576L38.5169 37.662C37.8335 39.3687 37.4842 41.1907 37.488 43.0291L37.5015 49.5333L37.5169 57.1689C37.519 58.2173 37.9796 59.2123 38.7774 59.8925L39.1599 60.2184C39.7248 60.6997 40.4427 60.9641 41.1849 60.9641C41.9272 60.9641 42.6453 60.7002 43.211 60.2196L43.6858 59.8162C44.5456 59.0855 45.0536 58.0234 45.083 56.8954L45.2776 49.4181L45.4592 42.44C45.4977 40.9638 46.0047 39.5382 46.907 38.3693L46.9683 38.2898C47.8397 37.1607 48.9764 36.2641 50.2775 35.6797L50.751 35.467C51.7456 35.0203 52.8225 34.786 53.9128 34.7791C55.0011 34.7722 56.0768 35.0129 57.0584 35.483L57.6761 35.7788C59.0477 36.4355 60.2324 37.4557 61.0784 38.7193C61.9221 39.9792 62.385 41.4555 62.4117 42.9715L62.5272 49.5081L62.6599 57.0178C62.6753 57.8943 62.9703 58.7429 63.5017 59.44C64.027 60.1286 64.7966 60.5892 65.6517 60.7266L66.0296 60.7874C67.1146 60.9615 68.2214 60.6517 69.0583 59.9397L69.0775 59.9234C69.9257 59.2016 70.4125 58.1425 70.4081 57.0287L70.378 49.4914L70.3488 42.2633C70.3433 40.8962 70.1058 39.5399 69.6466 38.2521C69.1852 36.9592 68.5795 35.7223 67.8411 34.565L67.7649 34.4457C66.9774 33.2116 66.0162 32.0974 64.9109 31.1375L64.7392 30.9883L64.7107 30.9635C63.5112 29.9216 62.1628 29.0647 60.71 28.4212C59.2568 27.7774 57.7183 27.3466 56.1421 27.1419L55.9079 27.1114C54.8758 26.9774 53.8333 26.9424 52.7945 27.007L52.2537 27.0406C50.9807 27.1197 49.7268 27.3897 48.534 27.8415ZM119.371 28.2821C118.213 28.6912 117.101 29.2203 116.054 29.8608L115.901 29.9539C114.755 30.6545 113.715 31.5149 112.811 32.509L112.011 33.3888L111.73 33.6987C110.488 35.0656 109.515 36.6543 108.861 38.3817C108.207 40.1102 107.872 41.943 107.872 43.7911V44.4381V45.1272C107.872 46.9478 108.195 48.7539 108.826 50.4616L108.92 50.715C109.49 52.2572 110.305 53.6973 111.334 54.9796L112.141 55.9855C112.637 56.6032 113.208 57.1557 113.842 57.6301L114.797 58.3445L117.091 59.6296C118.61 60.4803 120.26 61.0715 121.973 61.3788L122.205 61.4204L122.483 61.4702C124.163 61.7717 125.884 61.7648 127.562 61.4499L127.835 61.3987C129.34 61.1162 130.809 60.6638 132.212 60.0501C133.609 59.4384 134.894 58.5973 136.014 57.5614L136.794 56.84L137.465 56.2189C138.656 55.1171 139.644 53.8145 140.384 52.3705C141.125 50.9231 141.651 49.375 141.944 47.7754L142.023 47.3424C142.368 45.4643 142.367 43.5346 142.019 41.657L141.964 41.3568C141.652 39.6743 141.075 38.0522 140.253 36.5513C139.43 35.0486 138.401 33.6687 137.195 32.4518L137.164 32.421C135.941 31.1861 134.521 30.1628 132.962 29.3926L132.351 29.0904C130.401 28.1263 128.253 27.6301 126.078 27.6411L125.249 27.6453L122.961 27.6569C121.738 27.6631 120.524 27.8744 119.371 28.2821ZM1.73308 29.3909C0.899926 30.215 0.439751 31.3438 0.45927 32.5156L0.583752 39.9882L0.684026 45.989C0.720449 48.1686 1.21588 50.3161 2.13802 52.2915C3.06117 54.2693 4.37095 56.0423 5.99015 57.5059L6.11228 57.6163L6.49801 57.965C7.94435 59.2727 9.62624 60.2932 11.454 60.9722C13.2802 61.6505 15.224 61.955 17.1701 61.8678L17.8324 61.8381L18.4152 61.8119C20.4131 61.7223 22.3716 61.2257 24.1708 60.3525L24.4269 60.2282C26.0628 59.4341 27.5571 58.3765 28.85 57.0976C30.1427 55.8189 31.2152 54.3352 32.024 52.7067L32.1419 52.4691C33.0235 50.6932 33.4968 48.7426 33.5272 46.7601L33.6288 40.1325L33.7505 32.1934C33.7672 31.1071 33.34 30.0611 32.5676 29.2971L32.4162 29.1473C31.7383 28.4767 30.8233 28.1006 29.8698 28.1006C28.9163 28.1006 28.0013 28.4768 27.3236 29.1475L27.1999 29.2699C26.4435 30.0178 26.0178 31.0373 26.0178 32.101V38.8832V45.0045C26.0178 46.5331 25.6685 48.0414 24.9965 49.4143L24.9385 49.5329C24.308 50.8213 23.3419 51.9159 22.1418 52.7016L21.9161 52.8493C20.858 53.5418 19.6579 53.9877 18.4044 54.1542L18.2846 54.1701C17.1099 54.3258 15.9153 54.2157 14.7888 53.848L14.5796 53.7796C13.5858 53.4552 12.6557 52.961 11.8305 52.3191C11.0078 51.679 10.327 50.8749 9.83137 49.9579L9.51309 49.369C8.81047 48.0694 8.43581 46.6178 8.42167 45.1405L8.36183 38.8889L8.29555 31.9637C8.28585 30.9506 7.89247 29.9788 7.19468 29.2442L7.16594 29.2139C6.49074 28.5031 5.55333 28.1006 4.57294 28.1006C3.58921 28.1006 2.64518 28.4887 1.94581 29.1805L1.73308 29.3909ZM84.1488 29.2532L83.2992 29.5989C82.0189 30.1197 80.8118 30.805 79.7084 31.6375C78.6073 32.4683 77.6486 33.4726 76.8697 34.611L76.6707 34.9019L76.5306 35.1067C75.7098 36.3064 75.0255 37.594 74.4904 38.9456C73.9588 40.2893 73.6859 41.7213 73.6859 43.1664V44.2861V44.7744C73.6859 46.6377 74.0237 48.4855 74.683 50.2282C75.3413 51.9691 76.329 53.5667 77.5921 54.9336L78.0333 55.4111L78.1291 55.5148C79.6192 57.1278 81.4169 58.4264 83.4164 59.3343C85.4148 60.2417 87.5773 60.732 89.7716 60.7752L95.2092 60.8822L102.247 61.0202C103.35 61.0419 104.416 60.6162 105.2 59.8401L105.286 59.7551C106.017 59.0326 106.428 58.0479 106.428 57.0205V56.8881C106.428 55.9491 106.035 55.0529 105.344 54.4166C104.646 53.7735 103.737 53.4082 102.788 53.3897L96.0754 53.2593L89.77 53.1367C88.5344 53.1127 87.3222 52.7951 86.2336 52.21L85.7693 51.9606C84.9808 51.5371 84.2735 50.9775 83.6798 50.3078C83.0845 49.6365 82.5932 48.8798 82.2224 48.0628L82.086 47.7625C81.6272 46.7524 81.3898 45.6418 81.3898 44.5324V44.5056C81.3898 43.4035 81.6161 42.3132 82.0547 41.3022C82.4933 40.2914 83.1368 39.3827 83.9446 38.6334L84.3419 38.265L84.502 38.1165C85.4621 37.2259 86.6251 36.583 87.89 36.2436C89.1684 35.9003 90.4864 35.7262 91.8102 35.7257L96.853 35.724L102.282 35.7218C103.324 35.7214 104.337 35.3737 105.159 34.7338C105.959 34.1111 106.428 33.1538 106.428 32.1396V32.0928C106.428 31.0344 105.998 30.0141 105.245 29.2699C104.489 28.5209 103.466 28.1014 102.402 28.1029L95.4952 28.1121L89.9263 28.1192C87.9454 28.1217 85.9836 28.5068 84.1488 29.2532ZM128.107 35.2406C129.223 35.5469 130.247 36.1191 131.092 36.9081L131.587 37.3696L131.99 37.7457C132.899 38.5935 133.619 39.6237 134.102 40.7688C134.586 41.9148 134.836 43.1463 134.836 44.3905V44.6452C134.836 46.0488 134.481 47.4295 133.804 48.6592L133.586 49.0556L133.099 49.9422C132.597 50.8535 131.901 51.6426 131.058 52.2529C130.211 52.867 129.277 53.3512 128.286 53.6893L128.144 53.7379C127.06 54.1075 125.918 54.2926 124.773 54.2857C123.63 54.2788 122.502 54.0284 121.464 53.5513L121.113 53.3903L120.538 53.1263C119.644 52.7155 118.823 52.1598 118.109 51.4818C117.395 50.8041 116.798 50.013 116.342 49.1405L116.295 49.0513C115.809 48.1203 115.486 47.1124 115.342 46.0717L115.27 45.5526L115.236 45.3064C115.067 44.0924 115.182 42.8559 115.57 41.6932C115.959 40.527 116.58 39.4517 117.396 38.5322L117.669 38.225L117.774 38.1064C118.7 37.0634 119.837 36.2286 121.109 35.6569L121.502 35.4802C122.515 35.0248 123.613 34.7869 124.724 34.7819C125.843 34.7765 126.956 34.9241 128.035 35.2206L128.107 35.2406Z" fill="white"/>
</svg>
