<svg width="1921" height="587" viewBox="0 0 1921 587" fill="none" xmlns="http://www.w3.org/2000/svg">
<rect width="2462" height="110" transform="translate(-266.339 187.557) rotate(2.95)" fill="black"/>
<path d="M-190.679 233.111L-190.766 234.805C-185.74 235.107 -182.002 236.143 -179.551 237.914C-177.079 239.686 -175.922 242.107 -176.08 245.174C-176.237 248.221 -177.636 250.488 -180.276 251.976C-182.894 253.443 -186.718 254.068 -191.748 253.852L-191.832 255.481L-199.693 255.076L-199.609 253.447C-204.635 253.145 -208.375 252.13 -210.827 250.401C-213.279 248.651 -214.427 246.253 -214.27 243.206C-214.112 240.139 -212.723 237.85 -210.103 236.34C-207.483 234.83 -203.658 234.183 -198.628 234.4L-198.541 232.706L-190.679 233.111ZM-206.121 243.626C-206.184 244.862 -205.668 245.829 -204.572 246.526C-203.476 247.223 -201.725 247.655 -199.319 247.822L-198.926 240.184C-201.336 240.103 -203.121 240.352 -204.284 240.933C-205.446 241.514 -206.058 242.412 -206.121 243.626ZM-191.458 248.227C-189.027 248.31 -187.23 248.06 -186.068 247.479C-184.906 246.899 -184.293 245.99 -184.23 244.754C-184.167 243.54 -184.684 242.584 -185.78 241.887C-186.876 241.19 -188.638 240.757 -191.064 240.589L-191.458 248.227ZM-167.743 234.293L-151.892 235.11L-143.714 257.961L-152.598 257.503L-154.034 253.039L-167.424 252.349L-169.312 256.642L-178.164 256.186L-167.743 234.293ZM-155.771 247.567L-159.745 235.154L-159.873 235.147L-165.102 247.086L-155.771 247.567ZM-133.122 236.077L-133.637 246.08L-122.704 236.614L-112.893 237.12L-125.03 246.94L-113.982 259.493L-123.217 259.017L-133.678 246.879L-134.275 258.448L-142.136 258.042L-140.983 235.672L-133.122 236.077ZM-103.423 243.279L-112.787 242.797L-112.495 237.14L-85.7789 238.517L-86.0704 244.173L-95.5618 243.684L-96.4231 260.398L-104.285 259.993L-103.423 243.279ZM-83.9029 238.614L-76.0413 239.019L-76.3806 245.602L-70.6602 245.897C-66.8892 246.091 -64.0369 246.911 -62.1034 248.356C-60.1475 249.782 -59.2365 251.794 -59.3705 254.393C-59.5033 256.971 -60.6163 258.879 -62.7095 260.117C-64.7802 261.335 -67.7016 261.857 -71.4737 261.684L-85.0557 260.984L-83.9029 238.614ZM-71.8191 256.571C-70.6047 256.634 -69.6227 256.439 -68.8731 255.986C-68.1234 255.533 -67.7234 254.817 -67.6729 253.837C-67.6235 252.878 -67.9483 252.135 -68.6474 251.608C-69.3466 251.081 -70.3033 250.786 -71.5177 250.723L-76.6309 250.46L-76.9323 256.308L-71.8191 256.571ZM-56.5792 240.022L-48.7176 240.427L-49.8704 262.797L-57.732 262.392L-56.5792 240.022ZM-23.9407 264.646C-26.6251 264.508 -29.0088 264.129 -31.0916 263.509C-33.1734 262.867 -34.924 262.019 -36.3436 260.963C-37.7407 259.887 -38.786 258.615 -39.4794 257.148C-40.1504 255.661 -40.4387 254.002 -40.3443 252.169C-40.2477 250.294 -39.7892 248.652 -38.9689 247.242C-38.1261 245.811 -36.9546 244.632 -35.4543 243.706C-33.9315 242.759 -32.1024 242.084 -29.9668 241.681C-27.8302 241.258 -25.4196 241.115 -22.7352 241.253C-20.0507 241.391 -17.6676 241.781 -15.5859 242.423C-13.503 243.043 -11.7636 243.901 -10.3675 244.999C-8.97041 246.075 -7.92622 247.367 -7.23499 248.877C-6.54267 250.365 -6.24482 252.047 -6.34143 253.922C-6.43585 255.754 -6.90388 257.375 -7.74552 258.784C-8.58606 260.172 -9.75651 261.329 -11.2569 262.256C-12.7561 263.161 -14.5741 263.826 -16.7107 264.25C-18.8463 264.652 -21.2562 264.784 -23.9407 264.646ZM-32.0673 252.596C-32.1595 254.385 -31.4746 255.809 -30.0124 256.867C-28.5502 257.925 -26.4237 258.526 -23.6327 258.67C-20.8418 258.814 -18.6647 258.435 -17.1015 257.533C-15.5384 256.631 -14.7107 255.285 -14.6185 253.495C-14.5229 251.641 -15.2057 250.175 -16.6668 249.096C-18.1267 247.995 -20.2522 247.373 -23.0431 247.229C-25.8341 247.085 -28.0123 247.486 -29.5776 248.43C-31.1419 249.354 -31.9718 250.742 -32.0673 252.596ZM32.6013 244.617L31.4485 266.988L23.5869 266.583L23.9871 258.817L10.3092 258.112L9.90903 265.878L2.04746 265.473L3.20027 243.102L11.0618 243.507L10.6155 252.168L24.2934 252.873L24.7397 244.212L32.6013 244.617ZM43.4139 245.175L59.2649 245.991L67.4437 268.843L58.5595 268.385L57.1233 263.921L43.7331 263.231L41.8457 267.524L32.9934 267.067L43.4139 245.175ZM55.3866 258.448L51.4122 246.035L51.2844 246.029L46.055 257.967L55.3866 258.448ZM74.8581 258.042C74.7582 259.981 75.4808 261.503 77.026 262.608C78.5712 263.713 80.8671 264.344 83.9137 264.501C85.5116 264.583 87.1262 264.549 88.7574 264.398C90.3898 264.225 91.9536 263.932 93.4489 263.518L93.6671 269.233C92.1516 269.625 90.5564 269.906 88.8814 270.076C87.2064 270.246 85.5487 270.288 83.9082 270.204C81.0107 270.054 78.4566 269.667 76.2459 269.04C74.0353 268.413 72.1882 267.57 70.7047 266.511C69.2437 265.432 68.1563 264.148 67.4427 262.658C66.7291 261.169 66.4206 259.487 66.5172 257.612C66.6149 255.716 67.0952 254.064 67.9582 252.656C68.8211 251.248 70.0347 250.082 71.599 249.158C73.1845 248.236 75.109 247.577 77.3724 247.181C79.6358 246.785 82.2162 246.662 85.1137 246.811C86.669 246.891 88.2709 247.102 89.9195 247.443C91.5682 247.784 93.1575 248.24 94.6875 248.81L93.9133 254.506C92.5751 253.946 91.0923 253.495 89.465 253.155C87.8601 252.795 86.216 252.571 84.5329 252.484C81.4863 252.327 79.1372 252.73 77.4855 253.691C75.8349 254.632 74.9591 256.082 74.8581 258.042Z" fill="#222223"/>
<path d="M151.866 250.763L151.779 252.457C156.805 252.759 160.543 253.795 162.994 255.567C165.466 257.339 166.623 259.759 166.465 262.827C166.308 265.873 164.909 268.14 162.269 269.628C159.652 271.095 155.828 271.72 150.798 271.504L150.714 273.134L142.852 272.729L142.936 271.099C137.91 270.797 134.171 269.782 131.718 268.053C129.266 266.304 128.119 263.905 128.276 260.859C128.434 257.791 129.823 255.502 132.443 253.992C135.062 252.482 138.887 251.836 143.918 252.052L144.005 250.358L151.866 250.763ZM136.425 261.279C136.361 262.514 136.877 263.481 137.974 264.178C139.07 264.876 140.821 265.308 143.226 265.474L143.62 257.836C141.21 257.755 139.424 258.005 138.262 258.586C137.1 259.167 136.487 260.064 136.425 261.279ZM151.087 265.879C153.518 265.962 155.315 265.713 156.477 265.132C157.639 264.551 158.252 263.643 158.316 262.407C158.378 261.192 157.862 260.237 156.765 259.539C155.669 258.842 153.908 258.409 151.481 258.242L151.087 265.879ZM174.802 251.945L190.653 252.762L198.832 275.613L189.948 275.156L188.511 270.692L175.121 270.002L173.234 274.294L164.382 273.838L174.802 251.945ZM186.775 265.219L182.8 252.806L182.672 252.8L177.443 264.738L186.775 265.219ZM209.424 253.73L208.908 263.732L219.842 254.266L229.653 254.772L217.515 264.592L228.564 277.146L219.328 276.67L208.867 264.531L208.271 276.1L200.409 275.695L201.562 253.324L209.424 253.73ZM239.122 260.932L229.758 260.449L230.05 254.793L256.767 256.169L256.475 261.826L246.984 261.337L246.122 278.05L238.261 277.645L239.122 260.932ZM258.643 256.266L266.504 256.671L266.165 263.254L271.885 263.549C275.656 263.743 278.508 264.563 280.442 266.009C282.398 267.434 283.309 269.446 283.175 272.045C283.042 274.623 281.929 276.531 279.836 277.769C277.765 278.987 274.844 279.509 271.072 279.336L257.49 278.636L258.643 256.266ZM270.726 274.224C271.941 274.286 272.923 274.091 273.672 273.638C274.422 273.186 274.822 272.469 274.873 271.489C274.922 270.531 274.597 269.788 273.898 269.26C273.199 268.733 272.242 268.438 271.028 268.375L265.915 268.112L265.613 273.96L270.726 274.224ZM285.966 257.674L293.828 258.079L292.675 280.449L284.813 280.044L285.966 257.674ZM318.605 282.298C315.92 282.16 313.537 281.781 311.454 281.161C309.372 280.52 307.621 279.671 306.202 278.615C304.805 277.539 303.759 276.268 303.066 274.801C302.395 273.314 302.107 271.654 302.201 269.822C302.298 267.947 302.756 266.304 303.577 264.894C304.419 263.463 305.591 262.285 307.091 261.358C308.614 260.411 310.443 259.736 312.579 259.334C314.715 258.91 317.126 258.767 319.81 258.905C322.495 259.044 324.878 259.434 326.96 260.075C329.042 260.695 330.782 261.554 332.178 262.651C333.575 263.727 334.619 265.02 335.31 266.529C336.003 268.018 336.301 269.699 336.204 271.574C336.11 273.406 335.642 275.027 334.8 276.436C333.959 277.824 332.789 278.981 331.289 279.908C329.789 280.813 327.971 281.478 325.835 281.902C323.699 282.305 321.289 282.437 318.605 282.298ZM310.478 270.248C310.386 272.038 311.071 273.462 312.533 274.52C313.995 275.578 316.122 276.178 318.913 276.322C321.704 276.466 323.881 276.087 325.444 275.185C327.007 274.283 327.835 272.937 327.927 271.147C328.022 269.294 327.34 267.827 325.879 266.748C324.419 265.648 322.293 265.025 319.502 264.881C316.711 264.738 314.533 265.138 312.968 266.083C311.404 267.006 310.574 268.395 310.478 270.248ZM375.147 262.27L373.994 284.64L366.132 284.235L366.532 276.469L352.855 275.764L352.454 283.53L344.593 283.125L345.746 260.755L353.607 261.16L353.161 269.82L366.839 270.525L367.285 261.865L375.147 262.27ZM385.959 262.827L401.81 263.644L409.989 286.495L401.105 286.037L399.669 281.573L386.278 280.883L384.391 285.176L375.539 284.72L385.959 262.827ZM397.932 276.101L393.958 263.688L393.83 263.681L388.6 275.62L397.932 276.101ZM417.404 275.694C417.304 277.633 418.026 279.155 419.571 280.26C421.117 281.365 423.413 281.996 426.459 282.153C428.057 282.235 429.672 282.201 431.303 282.05C432.935 281.878 434.499 281.585 435.994 281.17L436.213 286.885C434.697 287.277 433.102 287.558 431.427 287.728C429.752 287.898 428.094 287.941 426.454 287.856C423.556 287.707 421.002 287.319 418.791 286.692C416.581 286.066 414.734 285.223 413.25 284.164C411.789 283.084 410.702 281.8 409.988 280.311C409.274 278.821 408.966 277.139 409.063 275.264C409.16 273.368 409.641 271.716 410.504 270.308C411.367 268.9 412.58 267.734 414.144 266.811C415.73 265.888 417.654 265.229 419.918 264.833C422.181 264.437 424.762 264.314 427.659 264.463C429.214 264.543 430.816 264.754 432.465 265.095C434.114 265.437 435.703 265.892 437.233 266.463L436.459 272.158C435.12 271.598 433.638 271.148 432.01 270.808C430.405 270.447 428.761 270.224 427.078 270.137C424.032 269.98 421.683 270.382 420.031 271.344C418.38 272.284 417.505 273.734 417.404 275.694Z" fill="#222223"/>
<path d="M494.412 268.416L494.325 270.11C499.35 270.411 503.089 271.448 505.539 273.219C508.011 274.991 509.168 277.411 509.01 280.479C508.853 283.526 507.455 285.793 504.815 287.28C502.197 288.747 498.373 289.373 493.343 289.156L493.259 290.786L485.397 290.381L485.481 288.751C480.456 288.449 476.716 287.434 474.263 285.706C471.811 283.956 470.664 281.558 470.821 278.511C470.979 275.443 472.368 273.154 474.988 271.644C477.608 270.135 481.433 269.488 486.463 269.704L486.55 268.011L494.412 268.416ZM478.97 278.931C478.907 280.167 479.423 281.133 480.519 281.831C481.615 282.528 483.366 282.96 485.771 283.127L486.165 275.489C483.755 275.407 481.969 275.657 480.807 276.238C479.645 276.819 479.033 277.717 478.97 278.931ZM493.633 283.532C496.064 283.614 497.86 283.365 499.023 282.784C500.185 282.203 500.798 281.295 500.861 280.059C500.924 278.845 500.407 277.889 499.311 277.192C498.214 276.494 496.453 276.062 494.026 275.894L493.633 283.532ZM517.347 269.598L533.198 270.415L541.377 293.266L532.493 292.808L531.057 288.344L517.667 287.654L515.779 291.947L506.927 291.49L517.347 269.598ZM529.32 282.872L525.346 270.459L525.218 270.452L519.989 282.391L529.32 282.872ZM551.969 271.382L551.454 281.385L562.387 271.919L572.198 272.424L560.061 282.245L571.109 294.798L561.874 294.322L551.412 282.184L550.816 293.752L542.955 293.347L544.107 270.977L551.969 271.382ZM581.667 278.584L572.304 278.101L572.595 272.445L599.312 273.822L599.02 279.478L589.529 278.989L588.668 295.703L580.806 295.298L581.667 278.584ZM601.188 273.918L609.049 274.323L608.71 280.907L614.431 281.201C618.202 281.396 621.054 282.216 622.987 283.661C624.943 285.086 625.854 287.099 625.72 289.698C625.588 292.276 624.475 294.184 622.381 295.422C620.311 296.639 617.389 297.162 613.617 296.989L600.035 296.289L601.188 273.918ZM613.272 291.876C614.486 291.939 615.468 291.744 616.218 291.291C616.967 290.838 617.367 290.122 617.418 289.142C617.467 288.183 617.143 287.44 616.443 286.913C615.744 286.385 614.788 286.09 613.573 286.028L608.46 285.764L608.159 291.612L613.272 291.876ZM628.512 275.326L636.373 275.731L635.22 298.102L627.359 297.697L628.512 275.326ZM661.15 299.951C658.466 299.812 656.082 299.433 653.999 298.813C651.917 298.172 650.167 297.323 648.747 296.268C647.35 295.192 646.305 293.92 645.611 292.453C644.94 290.966 644.652 289.306 644.747 287.474C644.843 285.599 645.302 283.957 646.122 282.546C646.965 281.116 648.136 279.937 649.637 279.01C651.159 278.064 652.988 277.389 655.124 276.986C657.261 276.562 659.671 276.419 662.356 276.558C665.04 276.696 667.423 277.086 669.505 277.727C671.588 278.347 673.327 279.206 674.723 280.303C676.12 281.379 677.165 282.672 677.856 284.182C678.548 285.67 678.846 287.351 678.749 289.226C678.655 291.058 678.187 292.679 677.345 294.088C676.505 295.476 675.334 296.634 673.834 297.56C672.335 298.466 670.517 299.13 668.38 299.554C666.245 299.957 663.835 300.089 661.15 299.951ZM653.024 287.901C652.931 289.69 653.616 291.114 655.078 292.172C656.541 293.23 658.667 293.831 661.458 293.975C664.249 294.118 666.426 293.739 667.989 292.837C669.552 291.935 670.38 290.589 670.472 288.8C670.568 286.946 669.885 285.48 668.424 284.4C666.964 283.3 664.839 282.678 662.048 282.534C659.257 282.39 657.079 282.79 655.513 283.735C653.949 284.659 653.119 286.047 653.024 287.901ZM717.692 279.922L716.539 302.292L708.678 301.887L709.078 294.122L695.4 293.417L695 301.182L687.138 300.777L688.291 278.407L696.153 278.812L695.706 287.473L709.384 288.177L709.831 279.517L717.692 279.922ZM728.505 280.479L744.356 281.296L752.535 304.147L743.65 303.69L742.214 299.226L728.824 298.536L726.936 302.828L718.084 302.372L728.505 280.479ZM740.477 293.753L736.503 281.34L736.375 281.333L731.146 293.272L740.477 293.753ZM759.949 293.347C759.849 295.285 760.572 296.807 762.117 297.912C763.662 299.017 765.958 299.648 769.005 299.805C770.602 299.888 772.217 299.853 773.848 299.702C775.481 299.53 777.044 299.237 778.54 298.823L778.758 304.537C777.242 304.929 775.647 305.21 773.972 305.38C772.297 305.55 770.64 305.593 768.999 305.508C766.102 305.359 763.547 304.971 761.337 304.345C759.126 303.718 757.279 302.875 755.796 301.816C754.334 300.737 753.247 299.452 752.534 297.963C751.82 296.474 751.511 294.792 751.608 292.917C751.706 291.021 752.186 289.368 753.049 287.96C753.912 286.552 755.126 285.386 756.69 284.463C758.275 283.541 760.2 282.882 762.463 282.486C764.727 282.09 767.307 281.966 770.205 282.116C771.76 282.196 773.362 282.406 775.01 282.748C776.659 283.089 778.248 283.545 779.778 284.115L779.004 289.811C777.666 289.25 776.183 288.8 774.556 288.46C772.951 288.099 771.307 287.876 769.624 287.789C766.577 287.632 764.228 288.034 762.576 288.996C760.926 289.936 760.05 291.387 759.949 293.347Z" fill="#222223"/>
<path d="M836.958 286.068L836.87 287.762C841.896 288.064 845.634 289.1 848.085 290.871C850.557 292.643 851.714 295.064 851.556 298.131C851.399 301.178 850 303.445 847.36 304.933C844.743 306.4 840.919 307.025 835.889 306.809L835.805 308.438L827.943 308.033L828.027 306.404C823.001 306.102 819.262 305.087 816.809 303.358C814.357 301.608 813.21 299.21 813.367 296.163C813.525 293.096 814.914 290.807 817.534 289.297C820.153 287.787 823.978 287.14 829.009 287.357L829.096 285.663L836.958 286.068ZM821.516 296.583C821.452 297.819 821.968 298.786 823.065 299.483C824.161 300.18 825.912 300.612 828.317 300.779L828.711 293.141C826.301 293.06 824.515 293.309 823.353 293.89C822.191 294.471 821.578 295.369 821.516 296.583ZM836.179 301.184C838.61 301.267 840.406 301.017 841.568 300.437C842.73 299.856 843.343 298.947 843.407 297.712C843.469 296.497 842.953 295.541 841.856 294.844C840.76 294.147 838.999 293.714 836.572 293.546L836.179 301.184ZM859.893 287.25L875.744 288.067L883.923 310.918L875.039 310.46L873.602 305.997L860.212 305.306L858.325 309.599L849.473 309.143L859.893 287.25ZM871.866 300.524L867.891 288.111L867.764 288.104L862.534 300.043L871.866 300.524ZM894.515 289.034L893.999 299.037L904.933 289.571L914.744 290.077L902.606 299.897L913.655 312.45L904.419 311.974L893.958 299.836L893.362 311.405L885.5 310.999L886.653 288.629L894.515 289.034ZM924.213 296.236L914.85 295.754L915.141 290.097L941.858 291.474L941.566 297.13L932.075 296.641L931.213 313.355L923.352 312.95L924.213 296.236ZM943.734 291.571L951.595 291.976L951.256 298.559L956.976 298.854C960.747 299.048 963.6 299.868 965.533 301.313C967.489 302.739 968.4 304.751 968.266 307.35C968.133 309.928 967.02 311.836 964.927 313.074C962.856 314.292 959.935 314.814 956.163 314.641L942.581 313.941L943.734 291.571ZM955.817 309.528C957.032 309.591 958.014 309.396 958.763 308.943C959.513 308.49 959.913 307.774 959.964 306.794C960.013 305.835 959.688 305.092 958.989 304.565C958.29 304.038 957.333 303.743 956.119 303.68L951.006 303.417L950.704 309.265L955.817 309.528ZM971.057 292.979L978.919 293.384L977.766 315.754L969.905 315.349L971.057 292.979ZM1003.7 317.603C1001.01 317.465 998.628 317.086 996.545 316.466C994.463 315.824 992.712 314.976 991.293 313.92C989.896 312.844 988.85 311.572 988.157 310.105C987.486 308.618 987.198 306.959 987.292 305.126C987.389 303.251 987.847 301.609 988.668 300.199C989.51 298.768 990.682 297.589 992.182 296.663C993.705 295.716 995.534 295.041 997.67 294.639C999.806 294.215 1002.22 294.072 1004.9 294.21C1007.59 294.348 1009.97 294.738 1012.05 295.38C1014.13 296 1015.87 296.858 1017.27 297.956C1018.67 299.032 1019.71 300.324 1020.4 301.834C1021.09 303.322 1021.39 305.004 1021.3 306.879C1021.2 308.711 1020.73 310.332 1019.89 311.741C1019.05 313.129 1017.88 314.286 1016.38 315.213C1014.88 316.118 1013.06 316.783 1010.93 317.207C1008.79 317.609 1006.38 317.741 1003.7 317.603ZM995.569 305.553C995.477 307.342 996.162 308.766 997.624 309.824C999.086 310.882 1001.21 311.483 1004 311.627C1006.79 311.771 1008.97 311.392 1010.53 310.49C1012.1 309.588 1012.93 308.242 1013.02 306.452C1013.11 304.599 1012.43 303.132 1010.97 302.053C1009.51 300.952 1007.38 300.33 1004.59 300.186C1001.8 300.042 999.624 300.443 998.059 301.387C996.495 302.311 995.665 303.699 995.569 305.553ZM1060.24 297.574L1059.08 319.945L1051.22 319.54L1051.62 311.774L1037.95 311.069L1037.55 318.835L1029.68 318.43L1030.84 296.059L1038.7 296.464L1038.25 305.125L1051.93 305.83L1052.38 297.169L1060.24 297.574ZM1071.05 298.132L1086.9 298.948L1095.08 321.8L1086.2 321.342L1084.76 316.878L1071.37 316.188L1069.48 320.481L1060.63 320.024L1071.05 298.132ZM1083.02 311.405L1079.05 298.992L1078.92 298.986L1073.69 310.925L1083.02 311.405ZM1102.49 310.999C1102.39 312.938 1103.12 314.46 1104.66 315.565C1106.21 316.67 1108.5 317.301 1111.55 317.458C1113.15 317.54 1114.76 317.506 1116.39 317.355C1118.03 317.182 1119.59 316.889 1121.09 316.475L1121.3 322.19C1119.79 322.582 1118.19 322.863 1116.52 323.033C1114.84 323.203 1113.19 323.245 1111.54 323.161C1108.65 323.012 1106.09 322.624 1103.88 321.997C1101.67 321.37 1099.82 320.527 1098.34 319.468C1096.88 318.389 1095.79 317.105 1095.08 315.615C1094.37 314.126 1094.06 312.444 1094.15 310.569C1094.25 308.673 1094.73 307.021 1095.59 305.613C1096.46 304.205 1097.67 303.039 1099.24 302.115C1100.82 301.193 1102.75 300.534 1105.01 300.138C1107.27 299.742 1109.85 299.619 1112.75 299.768C1114.31 299.848 1115.91 300.059 1117.56 300.4C1119.2 300.741 1120.79 301.197 1122.32 301.767L1121.55 307.463C1120.21 306.903 1118.73 306.452 1117.1 306.112C1115.5 305.752 1113.85 305.528 1112.17 305.441C1109.12 305.284 1106.77 305.687 1105.12 306.648C1103.47 307.589 1102.6 309.039 1102.49 310.999Z" fill="#222223"/>
<path d="M1179.5 303.721L1179.42 305.414C1184.44 305.716 1188.18 306.752 1190.63 308.524C1193.1 310.296 1194.26 312.716 1194.1 315.784C1193.94 318.83 1192.55 321.097 1189.91 322.585C1187.29 324.052 1183.46 324.678 1178.43 324.461L1178.35 326.091L1170.49 325.686L1170.57 324.056C1165.55 323.754 1161.81 322.739 1159.35 321.011C1156.9 319.261 1155.76 316.862 1155.91 313.816C1156.07 310.748 1157.46 308.459 1160.08 306.949C1162.7 305.439 1166.52 304.793 1171.55 305.009L1171.64 303.315L1179.5 303.721ZM1164.06 314.236C1164 315.471 1164.51 316.438 1165.61 317.135C1166.71 317.833 1168.46 318.265 1170.86 318.431L1171.26 310.793C1168.85 310.712 1167.06 310.962 1165.9 311.543C1164.74 312.124 1164.12 313.021 1164.06 314.236ZM1178.72 318.836C1181.15 318.919 1182.95 318.67 1184.11 318.089C1185.28 317.508 1185.89 316.6 1185.95 315.364C1186.01 314.149 1185.5 313.194 1184.4 312.496C1183.31 311.799 1181.54 311.366 1179.12 311.199L1178.72 318.836ZM1202.44 304.902L1218.29 305.719L1226.47 328.571L1217.58 328.113L1216.15 323.649L1202.76 322.959L1200.87 327.251L1192.02 326.795L1202.44 304.902ZM1214.41 318.176L1210.44 305.763L1210.31 305.757L1205.08 317.695L1214.41 318.176ZM1237.06 306.687L1236.54 316.689L1247.48 307.223L1257.29 307.729L1245.15 317.549L1256.2 330.103L1246.96 329.627L1236.5 317.488L1235.91 329.057L1228.05 328.652L1229.2 306.281L1237.06 306.687ZM1266.76 313.889L1257.39 313.406L1257.69 307.75L1284.4 309.126L1284.11 314.783L1274.62 314.294L1273.76 331.008L1265.9 330.602L1266.76 313.889ZM1286.28 309.223L1294.14 309.628L1293.8 316.211L1299.52 316.506C1303.29 316.701 1306.14 317.52 1308.08 318.966C1310.03 320.391 1310.95 322.403 1310.81 325.002C1310.68 327.58 1309.57 329.488 1307.47 330.726C1305.4 331.944 1302.48 332.466 1298.71 332.293L1285.13 331.593L1286.28 309.223ZM1298.36 327.181C1299.58 327.243 1300.56 327.048 1301.31 326.596C1302.06 326.143 1302.46 325.426 1302.51 324.446C1302.56 323.488 1302.23 322.745 1301.53 322.217C1300.84 321.69 1299.88 321.395 1298.66 321.332L1293.55 321.069L1293.25 326.917L1298.36 327.181ZM1313.6 310.631L1321.46 311.036L1320.31 333.407L1312.45 333.001L1313.6 310.631ZM1346.24 335.255C1343.56 335.117 1341.17 334.738 1339.09 334.118C1337.01 333.477 1335.26 332.628 1333.84 331.572C1332.44 330.496 1331.4 329.225 1330.7 327.758C1330.03 326.271 1329.74 324.611 1329.84 322.779C1329.93 320.904 1330.39 319.261 1331.21 317.851C1332.06 316.42 1333.23 315.242 1334.73 314.315C1336.25 313.368 1338.08 312.693 1340.22 312.291C1342.35 311.867 1344.76 311.724 1347.45 311.862C1350.13 312.001 1352.51 312.391 1354.6 313.032C1356.68 313.652 1358.42 314.511 1359.81 315.608C1361.21 316.684 1362.26 317.977 1362.95 319.486C1363.64 320.975 1363.94 322.656 1363.84 324.531C1363.75 326.363 1363.28 327.984 1362.44 329.393C1361.6 330.781 1360.43 331.938 1358.93 332.865C1357.43 333.77 1355.61 334.435 1353.47 334.859C1351.34 335.262 1348.93 335.394 1346.24 335.255ZM1338.11 323.205C1338.02 324.995 1338.71 326.419 1340.17 327.477C1341.63 328.535 1343.76 329.136 1346.55 329.279C1349.34 329.423 1351.52 329.044 1353.08 328.142C1354.64 327.24 1355.47 325.894 1355.56 324.104C1355.66 322.251 1354.98 320.784 1353.52 319.705C1352.06 318.605 1349.93 317.982 1347.14 317.839C1344.35 317.695 1342.17 318.095 1340.6 319.04C1339.04 319.963 1338.21 321.352 1338.11 323.205ZM1402.78 315.227L1401.63 337.597L1393.77 337.192L1394.17 329.426L1380.49 328.721L1380.09 336.487L1372.23 336.082L1373.38 313.712L1381.24 314.117L1380.8 322.777L1394.48 323.482L1394.92 314.822L1402.78 315.227ZM1413.6 315.784L1429.45 316.601L1437.63 339.452L1428.74 338.994L1427.31 334.53L1413.91 333.84L1412.03 338.133L1403.18 337.677L1413.6 315.784ZM1425.57 329.058L1421.59 316.645L1421.47 316.638L1416.24 328.577L1425.57 329.058ZM1445.04 328.651C1444.94 330.59 1445.66 332.112 1447.21 333.217C1448.75 334.322 1451.05 334.953 1454.1 335.11C1455.69 335.192 1457.31 335.158 1458.94 335.007C1460.57 334.835 1462.14 334.542 1463.63 334.127L1463.85 339.842C1462.33 340.234 1460.74 340.515 1459.06 340.685C1457.39 340.855 1455.73 340.898 1454.09 340.813C1451.19 340.664 1448.64 340.276 1446.43 339.649C1444.22 339.023 1442.37 338.18 1440.89 337.121C1439.43 336.041 1438.34 334.757 1437.62 333.268C1436.91 331.778 1436.6 330.096 1436.7 328.221C1436.8 326.325 1437.28 324.673 1438.14 323.265C1439 321.857 1440.22 320.691 1441.78 319.768C1443.37 318.845 1445.29 318.186 1447.55 317.79C1449.82 317.394 1452.4 317.271 1455.3 317.42C1456.85 317.5 1458.45 317.711 1460.1 318.052C1461.75 318.394 1463.34 318.849 1464.87 319.42L1464.1 325.115C1462.76 324.555 1461.27 324.105 1459.65 323.765C1458.04 323.404 1456.4 323.181 1454.71 323.094C1451.67 322.937 1449.32 323.339 1447.67 324.301C1446.02 325.241 1445.14 326.691 1445.04 328.651Z" fill="#222223"/>
<path d="M1522.05 321.373L1521.96 323.067C1526.99 323.368 1530.73 324.405 1533.18 326.176C1535.65 327.948 1536.8 330.368 1536.65 333.436C1536.49 336.483 1535.09 338.75 1532.45 340.237C1529.83 341.704 1526.01 342.33 1520.98 342.113L1520.9 343.743L1513.03 343.338L1513.12 341.708C1508.09 341.407 1504.35 340.391 1501.9 338.663C1499.45 336.913 1498.3 334.515 1498.46 331.468C1498.62 328.4 1500 326.111 1502.62 324.602C1505.24 323.092 1509.07 322.445 1514.1 322.661L1514.19 320.968L1522.05 321.373ZM1506.61 331.888C1506.54 333.124 1507.06 334.09 1508.16 334.788C1509.25 335.485 1511 335.917 1513.41 336.084L1513.8 328.446C1511.39 328.364 1509.61 328.614 1508.44 329.195C1507.28 329.776 1506.67 330.674 1506.61 331.888ZM1521.27 336.489C1523.7 336.571 1525.5 336.322 1526.66 335.741C1527.82 335.16 1528.43 334.252 1528.5 333.016C1528.56 331.802 1528.04 330.846 1526.95 330.149C1525.85 329.451 1524.09 329.019 1521.66 328.851L1521.27 336.489ZM1544.98 322.555L1560.83 323.372L1569.01 346.223L1560.13 345.765L1558.69 341.301L1545.3 340.611L1543.42 344.904L1534.56 344.448L1544.98 322.555ZM1556.96 335.829L1552.98 323.416L1552.85 323.409L1547.63 335.348L1556.96 335.829ZM1579.61 324.339L1579.09 334.342L1590.02 324.876L1599.83 325.381L1587.7 335.202L1598.75 347.755L1589.51 347.279L1579.05 335.141L1578.45 346.709L1570.59 346.304L1571.74 323.934L1579.61 324.339ZM1609.3 331.541L1599.94 331.058L1600.23 325.402L1626.95 326.779L1626.66 332.435L1617.17 331.946L1616.3 348.66L1608.44 348.255L1609.3 331.541ZM1628.82 326.875L1636.69 327.28L1636.35 333.864L1642.07 334.159C1645.84 334.353 1648.69 335.173 1650.62 336.618C1652.58 338.043 1653.49 340.056 1653.36 342.655C1653.22 345.233 1652.11 347.141 1650.02 348.379C1647.95 349.596 1645.03 350.119 1641.25 349.946L1627.67 349.246L1628.82 326.875ZM1640.91 344.833C1642.12 344.896 1643.1 344.701 1643.85 344.248C1644.6 343.795 1645 343.079 1645.05 342.099C1645.1 341.14 1644.78 340.397 1644.08 339.87C1643.38 339.342 1642.42 339.047 1641.21 338.985L1636.1 338.721L1635.8 344.57L1640.91 344.833ZM1656.15 328.283L1664.01 328.689L1662.86 351.059L1655 350.654L1656.15 328.283ZM1688.79 352.908C1686.1 352.769 1683.72 352.39 1681.64 351.77C1679.55 351.129 1677.8 350.28 1676.38 349.225C1674.99 348.149 1673.94 346.877 1673.25 345.41C1672.58 343.923 1672.29 342.263 1672.38 340.431C1672.48 338.556 1672.94 336.914 1673.76 335.503C1674.6 334.073 1675.77 332.894 1677.27 331.967C1678.8 331.021 1680.62 330.346 1682.76 329.943C1684.9 329.519 1687.31 329.376 1689.99 329.515C1692.68 329.653 1695.06 330.043 1697.14 330.684C1699.22 331.304 1700.96 332.163 1702.36 333.26C1703.76 334.336 1704.8 335.629 1705.49 337.139C1706.18 338.627 1706.48 340.308 1706.39 342.183C1706.29 344.016 1705.82 345.636 1704.98 347.045C1704.14 348.433 1702.97 349.591 1701.47 350.517C1699.97 351.423 1698.15 352.087 1696.02 352.511C1693.88 352.914 1691.47 353.046 1688.79 352.908ZM1680.66 340.858C1680.57 342.647 1681.25 344.071 1682.71 345.129C1684.18 346.187 1686.3 346.788 1689.09 346.932C1691.89 347.076 1694.06 346.696 1695.63 345.794C1697.19 344.892 1698.02 343.546 1698.11 341.757C1698.2 339.903 1697.52 338.437 1696.06 337.357C1694.6 336.257 1692.48 335.635 1689.68 335.491C1686.89 335.347 1684.72 335.747 1683.15 336.692C1681.59 337.616 1680.76 339.004 1680.66 340.858ZM1745.33 332.879L1744.18 355.249L1736.31 354.844L1736.71 347.079L1723.04 346.374L1722.64 354.139L1714.77 353.734L1715.93 331.364L1723.79 331.769L1723.34 340.43L1737.02 341.134L1737.47 332.474L1745.33 332.879ZM1756.14 333.436L1771.99 334.253L1780.17 357.104L1771.29 356.647L1769.85 352.183L1756.46 351.493L1754.57 355.785L1745.72 355.329L1756.14 333.436ZM1768.11 346.71L1764.14 334.297L1764.01 334.291L1758.78 346.229L1768.11 346.71ZM1787.59 346.304C1787.49 348.242 1788.21 349.764 1789.75 350.869C1791.3 351.974 1793.59 352.605 1796.64 352.762C1798.24 352.845 1799.85 352.81 1801.48 352.659C1803.12 352.487 1804.68 352.194 1806.18 351.78L1806.39 357.494C1804.88 357.886 1803.28 358.167 1801.61 358.337C1799.93 358.507 1798.28 358.55 1796.64 358.466C1793.74 358.316 1791.18 357.928 1788.97 357.302C1786.76 356.675 1784.92 355.832 1783.43 354.773C1781.97 353.694 1780.88 352.409 1780.17 350.92C1779.46 349.431 1779.15 347.749 1779.24 345.874C1779.34 343.978 1779.82 342.326 1780.69 340.917C1781.55 339.509 1782.76 338.344 1784.33 337.42C1785.91 336.498 1787.84 335.839 1790.1 335.443C1792.36 335.047 1794.94 334.923 1797.84 335.073C1799.4 335.153 1801 335.363 1802.65 335.705C1804.3 336.046 1805.88 336.502 1807.41 337.072L1806.64 342.768C1805.3 342.207 1803.82 341.757 1802.19 341.417C1800.59 341.056 1798.94 340.833 1797.26 340.746C1794.21 340.589 1791.86 340.991 1790.21 341.953C1788.56 342.893 1787.69 344.344 1787.59 346.304Z" fill="#222223"/>
<path d="M1864.59 339.025L1864.51 340.719C1869.53 341.021 1873.27 342.057 1875.72 343.828C1878.19 345.6 1879.35 348.021 1879.19 351.089C1879.04 354.135 1877.64 356.402 1875 357.89C1872.38 359.357 1868.56 359.982 1863.52 359.766L1863.44 361.396L1855.58 360.99L1855.66 359.361C1850.64 359.059 1846.9 358.044 1844.45 356.315C1841.99 354.565 1840.85 352.167 1841 349.121C1841.16 346.053 1842.55 343.764 1845.17 342.254C1847.79 340.744 1851.61 340.097 1856.64 340.314L1856.73 338.62L1864.59 339.025ZM1849.15 349.54C1849.09 350.776 1849.6 351.743 1850.7 352.44C1851.8 353.137 1853.55 353.569 1855.95 353.736L1856.35 346.098C1853.94 346.017 1852.15 346.266 1850.99 346.847C1849.83 347.428 1849.21 348.326 1849.15 349.54ZM1863.81 354.141C1866.25 354.224 1868.04 353.975 1869.2 353.394C1870.37 352.813 1870.98 351.904 1871.04 350.669C1871.11 349.454 1870.59 348.498 1869.49 347.801C1868.4 347.104 1866.63 346.671 1864.21 346.503L1863.81 354.141ZM1887.53 340.207L1903.38 341.024L1911.56 363.875L1902.67 363.417L1901.24 358.954L1887.85 358.263L1885.96 362.556L1877.11 362.1L1887.53 340.207ZM1899.5 353.481L1895.53 341.068L1895.4 341.061L1890.17 353L1899.5 353.481ZM1922.15 341.991L1921.64 351.994L1932.57 342.528L1942.38 343.034L1930.24 352.854L1941.29 365.407L1932.06 364.931L1921.59 352.793L1921 364.362L1913.14 363.956L1914.29 341.586L1922.15 341.991ZM1951.85 349.193L1942.49 348.711L1942.78 343.054L1969.49 344.431L1969.2 350.087L1959.71 349.598L1958.85 366.312L1950.99 365.907L1951.85 349.193ZM1971.37 344.528L1979.23 344.933L1978.89 351.516L1984.61 351.811C1988.38 352.005 1991.24 352.825 1993.17 354.27C1995.13 355.696 1996.04 357.708 1995.9 360.307C1995.77 362.885 1994.66 364.793 1992.56 366.031C1990.49 367.249 1987.57 367.771 1983.8 367.598L1970.22 366.898L1971.37 344.528ZM1983.45 362.485C1984.67 362.548 1985.65 362.353 1986.4 361.9C1987.15 361.448 1987.55 360.731 1987.6 359.751C1987.65 358.792 1987.32 358.049 1986.63 357.522C1985.93 356.995 1984.97 356.7 1983.76 356.637L1978.64 356.374L1978.34 362.222L1983.45 362.485ZM1998.69 345.936L2006.56 346.341L2005.4 368.711L1997.54 368.306L1998.69 345.936ZM2031.33 370.56C2028.65 370.422 2026.26 370.043 2024.18 369.423C2022.1 368.781 2020.35 367.933 2018.93 366.877C2017.53 365.801 2016.49 364.529 2015.79 363.062C2015.12 361.575 2014.83 359.916 2014.93 358.083C2015.03 356.209 2015.48 354.566 2016.3 353.156C2017.15 351.725 2018.32 350.546 2019.82 349.62C2021.34 348.673 2023.17 347.998 2025.31 347.596C2027.44 347.172 2029.85 347.029 2032.54 347.167C2035.22 347.305 2037.61 347.695 2039.69 348.337C2041.77 348.957 2043.51 349.815 2044.91 350.913C2046.3 351.989 2047.35 353.281 2048.04 354.791C2048.73 356.279 2049.03 357.961 2048.93 359.836C2048.84 361.668 2048.37 363.289 2047.53 364.698C2046.69 366.086 2045.52 367.243 2044.02 368.17C2042.52 369.075 2040.7 369.74 2038.56 370.164C2036.43 370.566 2034.02 370.698 2031.33 370.56ZM2023.21 358.51C2023.11 360.3 2023.8 361.723 2025.26 362.781C2026.72 363.839 2028.85 364.44 2031.64 364.584C2034.43 364.728 2036.61 364.349 2038.17 363.447C2039.73 362.545 2040.56 361.199 2040.65 359.409C2040.75 357.556 2040.07 356.089 2038.61 355.01C2037.15 353.909 2035.02 353.287 2032.23 353.143C2029.44 352.999 2027.26 353.4 2025.7 354.345C2024.13 355.268 2023.3 356.656 2023.21 358.51ZM2087.87 350.531L2086.72 372.902L2078.86 372.497L2079.26 364.731L2065.58 364.026L2065.18 371.792L2057.32 371.387L2058.47 349.016L2066.33 349.421L2065.89 358.082L2079.57 358.787L2080.01 350.126L2087.87 350.531ZM2098.69 351.089L2114.54 351.906L2122.72 374.757L2113.83 374.299L2112.4 369.835L2099.01 369.145L2097.12 373.438L2088.27 372.981L2098.69 351.089ZM2110.66 364.362L2106.68 351.949L2106.56 351.943L2101.33 363.882L2110.66 364.362ZM2130.13 363.956C2130.03 365.895 2130.75 367.417 2132.3 368.522C2133.84 369.627 2136.14 370.258 2139.19 370.415C2140.78 370.497 2142.4 370.463 2144.03 370.312C2145.66 370.139 2147.23 369.846 2148.72 369.432L2148.94 375.147C2147.42 375.539 2145.83 375.82 2144.15 375.99C2142.48 376.16 2140.82 376.202 2139.18 376.118C2136.28 375.969 2133.73 375.581 2131.52 374.954C2129.31 374.327 2127.46 373.485 2125.98 372.425C2124.52 371.346 2123.43 370.062 2122.72 368.572C2122 367.083 2121.69 365.401 2121.79 363.526C2121.89 361.63 2122.37 359.978 2123.23 358.57C2124.09 357.162 2125.31 355.996 2126.87 355.072C2128.46 354.15 2130.38 353.491 2132.65 353.095C2134.91 352.699 2137.49 352.576 2140.39 352.725C2141.94 352.805 2143.54 353.016 2145.19 353.357C2146.84 353.698 2148.43 354.154 2149.96 354.724L2149.19 360.42C2147.85 359.86 2146.36 359.409 2144.74 359.069C2143.13 358.709 2141.49 358.485 2139.81 358.399C2136.76 358.242 2134.41 358.644 2132.76 359.605C2131.11 360.546 2130.23 361.996 2130.13 363.956Z" fill="#222223"/>
<rect width="2452" height="110" transform="translate(-254.816 478.572) rotate(-10.66)" fill="white"/>
<path d="M-170.562 505.044L-170.248 506.71C-165.292 505.821 -161.415 505.949 -158.616 507.093C-155.797 508.234 -154.103 510.314 -153.534 513.333C-152.97 516.331 -153.796 518.863 -156.012 520.93C-158.211 522.972 -161.78 524.48 -166.72 525.453L-166.418 527.057L-174.154 528.513L-174.456 526.909C-179.412 527.799 -183.285 527.692 -186.076 526.589C-188.871 525.466 -190.55 523.405 -191.115 520.407C-191.683 517.388 -190.871 514.836 -188.68 512.752C-186.489 510.668 -182.924 509.14 -177.984 508.167L-178.298 506.5L-170.562 505.044ZM-183.095 518.897C-182.866 520.113 -182.137 520.931 -180.908 521.351C-179.678 521.771 -177.875 521.779 -175.498 521.375L-176.913 513.859C-179.274 514.346 -180.951 515.009 -181.944 515.848C-182.936 516.686 -183.32 517.702 -183.095 518.897ZM-167.762 519.918C-165.38 519.427 -163.692 518.762 -162.699 517.924C-161.707 517.085 -161.325 516.058 -161.554 514.842C-161.779 513.647 -162.506 512.84 -163.735 512.42C-164.965 512 -166.779 511.994 -169.177 512.402L-167.762 519.918ZM-147.992 500.795L-132.394 497.859L-119.068 518.144L-127.81 519.79L-130.256 515.789L-143.433 518.27L-144.257 522.886L-152.968 524.525L-147.992 500.795ZM-133.232 510.879L-140.016 499.75L-140.142 499.774L-142.415 512.608L-133.232 510.879ZM-113.923 494.383L-112.07 504.226L-103.671 492.453L-94.0164 490.636L-103.502 503.036L-89.8099 512.637L-98.8983 514.348L-111.922 505.012L-109.779 516.396L-117.515 517.852L-121.659 495.839L-113.923 494.383ZM-83.3636 494.394L-92.5777 496.128L-93.6255 490.562L-67.3352 485.613L-66.2874 491.18L-75.6274 492.938L-72.5316 509.385L-80.2677 510.841L-83.3636 494.394ZM-65.4891 485.266L-57.7529 483.81L-56.5335 490.288L-50.9044 489.228C-47.1936 488.53 -44.2285 488.656 -42.0091 489.605C-39.7728 490.53 -38.4139 492.272 -37.9324 494.83C-37.4549 497.366 -38.0877 499.483 -39.8308 501.178C-41.5569 502.849 -44.2733 504.044 -47.9802 504.764L-61.3455 507.279L-65.4891 485.266ZM-49.5189 499.876C-48.3239 499.651 -47.4154 499.23 -46.7933 498.614C-46.1713 497.998 -45.951 497.207 -46.1325 496.243C-46.3101 495.299 -46.8007 494.654 -47.6043 494.306C-48.4078 493.958 -49.4071 493.896 -50.6022 494.121L-55.6338 495.068L-54.5505 500.823L-49.5189 499.876ZM-38.6013 480.205L-30.8651 478.749L-26.7215 500.762L-34.4577 502.218L-38.6013 480.205ZM-1.08487 496.458C-3.72648 496.955 -6.13242 497.147 -8.30268 497.035C-10.4769 496.901 -12.3781 496.488 -14.0062 495.796C-15.6173 495.079 -16.9324 494.09 -17.9516 492.827C-18.9537 491.539 -19.6244 489.994 -19.9638 488.191C-20.3111 486.346 -20.252 484.642 -19.7866 483.078C-19.3041 481.489 -18.4428 480.068 -17.2026 478.815C-15.9455 477.536 -14.3265 476.45 -12.3456 475.556C-10.3687 474.641 -8.05947 473.935 -5.41785 473.438C-2.77624 472.941 -0.368333 472.759 1.80587 472.892C3.97614 473.005 5.86879 473.43 7.48384 474.168C9.09495 474.885 10.414 475.896 11.4411 477.2C12.4641 478.484 13.1493 480.048 13.4966 481.893C13.836 483.696 13.7625 485.381 13.2761 486.949C12.7857 488.496 11.9205 489.896 10.6803 491.15C9.4362 492.382 7.8257 493.456 5.84881 494.371C3.86797 495.265 1.55674 495.96 -1.08487 496.458ZM-11.8188 486.658C-11.4874 488.419 -10.4866 489.642 -8.81653 490.326C-7.14648 491.01 -4.93823 491.094 -2.19179 490.577C0.554644 490.06 2.58136 489.179 3.88836 487.935C5.19536 486.69 5.68312 485.187 5.35163 483.426C5.00831 481.602 3.99965 480.337 2.32565 479.632C0.647699 478.906 -1.56449 478.802 -4.31093 479.319C-7.05737 479.835 -9.08014 480.737 -10.3792 482.024C-11.6823 483.289 -12.1622 484.834 -11.8188 486.658ZM49.1564 463.686L53.3 485.7L45.5638 487.156L44.1254 479.514L30.6658 482.048L32.1042 489.689L24.368 491.146L20.2245 469.132L27.9606 467.676L29.5648 476.198L43.0244 473.665L41.4203 465.143L49.1564 463.686ZM59.7965 461.684L75.3946 458.748L88.7209 479.033L79.9785 480.678L77.5322 476.678L64.3556 479.158L63.5313 483.774L54.8203 485.414L59.7965 461.684ZM74.5566 471.767L67.7728 460.638L67.647 460.662L65.3738 473.496L74.5566 471.767ZM93.3856 466.79C93.7447 468.698 94.8052 470.007 96.567 470.718C98.3288 471.428 100.709 471.501 103.707 470.937C105.279 470.641 106.84 470.227 108.39 469.697C109.936 469.145 111.387 468.492 112.743 467.738L114.3 473.241C112.919 473.978 111.435 474.627 109.847 475.186C108.259 475.746 106.658 476.177 105.043 476.481C102.192 477.018 99.6185 477.242 97.3225 477.153C95.0264 477.064 93.0329 476.68 91.3418 475.999C89.6678 475.294 88.3088 474.302 87.2648 473.022C86.2207 471.743 85.525 470.18 85.1778 468.335C84.8266 466.469 84.9046 464.751 85.412 463.179C85.9194 461.607 86.8246 460.189 88.1276 458.923C89.4516 457.654 91.167 456.56 93.2736 455.643C95.3802 454.725 97.8592 453.998 100.71 453.461C102.241 453.173 103.847 453.001 105.53 452.945C107.213 452.889 108.865 452.958 110.486 453.152L111.074 458.87C109.641 458.64 108.094 458.551 106.432 458.604C104.788 458.631 103.137 458.801 101.481 459.112C98.483 459.677 96.2945 460.62 94.9155 461.944C93.5325 463.246 93.0226 464.862 93.3856 466.79Z" fill="#121215"/>
<path d="M166.519 441.595L166.833 443.262C171.788 442.373 175.665 442.5 178.464 443.645C181.284 444.786 182.978 446.866 183.546 449.885C184.11 452.883 183.285 455.415 181.069 457.482C178.87 459.524 175.3 461.032 170.361 462.005L170.662 463.609L162.926 465.065L162.624 463.461C157.669 464.351 153.796 464.244 151.005 463.141C148.21 462.017 146.53 459.956 145.966 456.958C145.398 453.939 146.209 451.388 148.4 449.304C150.591 447.22 154.157 445.692 159.096 444.718L158.783 443.052L166.519 441.595ZM153.985 455.449C154.214 456.665 154.943 457.483 156.173 457.903C157.402 458.322 159.206 458.33 161.583 457.926L160.168 450.41C157.807 450.898 156.13 451.561 155.137 452.399C154.144 453.237 153.76 454.254 153.985 455.449ZM169.319 456.47C171.701 455.978 173.388 455.313 174.381 454.475C175.374 453.637 175.756 452.61 175.527 451.394C175.302 450.199 174.575 449.392 173.345 448.972C172.116 448.552 170.302 448.546 167.904 448.954L169.319 456.47ZM189.089 437.347L204.687 434.411L218.013 454.696L209.27 456.342L206.824 452.341L193.648 454.821L192.823 459.438L184.112 461.077L189.089 437.347ZM203.849 447.431L197.065 436.302L196.939 436.325L194.666 449.159L203.849 447.431ZM223.158 430.934L225.011 440.777L233.41 429.005L243.064 427.187L233.578 439.588L247.271 449.189L238.182 450.9L225.159 441.564L227.301 452.948L219.565 454.404L215.422 432.39L223.158 430.934ZM253.717 430.946L244.503 432.68L243.455 427.114L269.745 422.165L270.793 427.731L261.453 429.489L264.549 445.937L256.813 447.393L253.717 430.946ZM271.591 421.818L279.328 420.362L280.547 426.84L286.176 425.78C289.887 425.082 292.852 425.207 295.071 426.157C297.308 427.082 298.667 428.824 299.148 431.381C299.626 433.918 298.993 436.034 297.25 437.73C295.524 439.401 292.807 440.596 289.1 441.315L275.735 443.831L271.591 421.818ZM287.562 436.428C288.757 436.203 289.665 435.782 290.287 435.166C290.909 434.549 291.13 433.759 290.948 432.795C290.77 431.851 290.28 431.205 289.476 430.857C288.673 430.509 287.673 430.448 286.478 430.673L281.447 431.62L282.53 437.375L287.562 436.428ZM298.479 416.757L306.215 415.3L310.359 437.314L302.623 438.77L298.479 416.757ZM335.996 433.009C333.354 433.507 330.948 433.699 328.778 433.586C326.604 433.453 324.703 433.04 323.074 432.348C321.463 431.631 320.148 430.641 319.129 429.379C318.127 428.091 317.456 426.546 317.117 424.743C316.769 422.898 316.829 421.194 317.294 419.63C317.776 418.041 318.638 416.62 319.878 415.366C321.135 414.088 322.754 413.001 324.735 412.108C326.712 411.193 329.021 410.487 331.663 409.99C334.304 409.492 336.712 409.31 338.886 409.444C341.057 409.556 342.949 409.982 344.564 410.72C346.176 411.437 347.495 412.447 348.522 413.752C349.545 415.035 350.23 416.6 350.577 418.445C350.917 420.248 350.843 421.933 350.357 423.501C349.866 425.047 349.001 426.448 347.761 427.701C346.517 428.934 344.906 430.008 342.929 430.923C340.949 431.817 338.637 432.512 335.996 433.009ZM325.262 423.21C325.593 424.971 326.594 426.193 328.264 426.878C329.934 427.562 332.142 427.646 334.889 427.129C337.635 426.612 339.662 425.731 340.969 424.486C342.276 423.242 342.764 421.739 342.432 419.978C342.089 418.154 341.08 416.889 339.406 416.184C337.728 415.458 335.516 415.353 332.77 415.87C330.023 416.387 328 417.289 326.701 418.575C325.398 419.841 324.918 421.386 325.262 423.21ZM386.237 400.238L390.381 422.252L382.644 423.708L381.206 416.066L367.746 418.599L369.185 426.241L361.449 427.697L357.305 405.684L365.041 404.228L366.645 412.75L380.105 410.217L378.501 401.694L386.237 400.238ZM396.877 398.235L412.475 395.299L425.802 415.584L417.059 417.23L414.613 413.229L401.436 415.71L400.612 420.326L391.901 421.965L396.877 398.235ZM411.637 408.319L404.853 397.19L404.728 397.213L402.454 410.047L411.637 408.319ZM430.466 403.342C430.825 405.25 431.886 406.559 433.648 407.269C435.409 407.98 437.789 408.053 440.787 407.488C442.36 407.192 443.921 406.779 445.471 406.249C447.017 405.697 448.468 405.044 449.824 404.29L451.38 409.793C450 410.53 448.515 411.179 446.927 411.738C445.339 412.297 443.738 412.729 442.124 413.033C439.273 413.57 436.699 413.794 434.403 413.705C432.107 413.616 430.113 413.231 428.422 412.551C426.748 411.846 425.389 410.854 424.345 409.574C423.301 408.294 422.606 406.732 422.258 404.887C421.907 403.021 421.985 401.302 422.493 399.731C423 398.159 423.905 396.741 425.208 395.475C426.532 394.205 428.248 393.112 430.354 392.194C432.461 391.277 434.94 390.55 437.791 390.013C439.321 389.725 440.928 389.553 442.611 389.497C444.293 389.44 445.945 389.509 447.566 389.704L448.154 395.421C446.722 395.192 445.175 395.103 443.513 395.155C441.868 395.183 440.218 395.352 438.562 395.664C435.564 396.228 433.375 397.172 431.996 398.495C430.613 399.798 430.103 401.413 430.466 403.342Z" fill="#121215"/>
<path d="M503.599 378.147L503.913 379.814C508.869 378.925 512.746 379.052 515.545 380.197C518.364 381.338 520.058 383.418 520.627 386.437C521.191 389.435 520.365 391.967 518.149 394.034C515.95 396.076 512.381 397.584 507.441 398.557L507.743 400.161L500.007 401.617L499.705 400.013C494.749 400.902 490.876 400.796 488.085 399.693C485.29 398.569 483.611 396.508 483.047 393.51C482.478 390.491 483.29 387.94 485.481 385.856C487.672 383.772 491.237 382.243 496.177 381.27L495.863 379.603L503.599 378.147ZM491.066 392.001C491.295 393.217 492.024 394.035 493.253 394.454C494.483 394.874 496.286 394.882 498.663 394.478L497.248 386.962C494.887 387.45 493.21 388.113 492.218 388.951C491.225 389.789 490.841 390.806 491.066 392.001ZM506.399 393.022C508.781 392.53 510.469 391.865 511.462 391.027C512.454 390.189 512.836 389.162 512.608 387.946C512.383 386.751 511.655 385.944 510.426 385.524C509.196 385.104 507.383 385.098 504.985 385.506L506.399 393.022ZM526.169 373.899L541.767 370.963L555.094 391.248L546.351 392.893L543.905 388.893L530.728 391.373L529.904 395.989L521.193 397.629L526.169 373.899ZM540.929 383.983L534.145 372.853L534.02 372.877L531.746 385.711L540.929 383.983ZM560.238 367.486L562.091 377.329L570.49 365.556L580.145 363.739L570.659 376.14L584.351 385.741L575.263 387.451L562.239 378.115L564.382 389.5L556.646 390.956L552.502 368.942L560.238 367.486ZM590.798 367.497L581.583 369.232L580.536 363.666L606.826 358.717L607.874 364.283L598.534 366.041L601.63 382.488L593.893 383.945L590.798 367.497ZM608.672 358.369L616.408 356.913L617.628 363.392L623.257 362.332C626.968 361.633 629.933 361.759 632.152 362.709C634.388 363.634 635.747 365.375 636.229 367.933C636.706 370.47 636.073 372.586 634.33 374.282C632.604 375.953 629.888 377.148 626.181 377.867L612.816 380.383L608.672 358.369ZM624.642 372.979C625.837 372.754 626.746 372.334 627.368 371.717C627.99 371.101 628.21 370.311 628.029 369.346C627.851 368.403 627.36 367.757 626.557 367.409C625.753 367.061 624.754 367 623.559 367.224L618.527 368.172L619.611 373.927L624.642 372.979ZM635.56 353.308L643.296 351.852L647.44 373.866L639.703 375.322L635.56 353.308ZM673.076 369.561C670.435 370.058 668.029 370.251 665.858 370.138C663.684 370.005 661.783 369.592 660.155 368.9C658.544 368.183 657.229 367.193 656.21 365.93C655.207 364.643 654.537 363.098 654.197 361.295C653.85 359.45 653.909 357.745 654.375 356.182C654.857 354.593 655.718 353.172 656.958 351.918C658.216 350.639 659.835 349.553 661.816 348.659C663.792 347.745 666.102 347.039 668.743 346.541C671.385 346.044 673.793 345.862 675.967 345.996C678.137 346.108 680.03 346.533 681.645 347.271C683.256 347.988 684.575 348.999 685.602 350.304C686.625 351.587 687.31 353.151 687.658 354.996C687.997 356.799 687.924 358.485 687.437 360.052C686.947 361.599 686.082 362.999 684.841 364.253C683.597 365.486 681.987 366.56 680.01 367.474C678.029 368.368 675.718 369.064 673.076 369.561ZM662.342 359.762C662.674 361.523 663.675 362.745 665.345 363.429C667.015 364.114 669.223 364.197 671.969 363.68C674.716 363.163 676.742 362.283 678.049 361.038C679.356 359.793 679.844 358.291 679.513 356.53C679.169 354.706 678.161 353.441 676.487 352.736C674.809 352.01 672.597 351.905 669.85 352.422C667.104 352.939 665.081 353.841 663.782 355.127C662.479 356.393 661.999 357.938 662.342 359.762ZM723.318 336.79L727.461 358.803L719.725 360.259L718.287 352.618L704.827 355.151L706.265 362.793L698.529 364.249L694.386 342.236L702.122 340.78L703.726 349.302L717.186 346.768L715.581 338.246L723.318 336.79ZM733.958 334.787L749.556 331.851L762.882 352.136L754.14 353.782L751.693 349.781L738.517 352.261L737.692 356.877L728.981 358.517L733.958 334.787ZM748.718 344.871L741.934 333.742L741.808 333.765L739.535 346.599L748.718 344.871ZM767.547 339.894C767.906 341.802 768.966 343.111 770.728 343.821C772.49 344.532 774.87 344.605 777.868 344.04C779.44 343.744 781.001 343.331 782.551 342.8C784.097 342.249 785.548 341.596 786.904 340.841L788.461 346.344C787.08 347.082 785.596 347.73 784.008 348.29C782.42 348.849 780.819 349.281 779.205 349.585C776.353 350.121 773.78 350.345 771.484 350.256C769.188 350.168 767.194 349.783 765.503 349.103C763.829 348.398 762.47 347.405 761.426 346.126C760.382 344.846 759.686 343.284 759.339 341.439C758.988 339.573 759.066 337.854 759.573 336.283C760.08 334.711 760.986 333.292 762.289 332.027C763.613 330.757 765.328 329.664 767.435 328.746C769.541 327.829 772.02 327.102 774.872 326.565C776.402 326.277 778.009 326.105 779.691 326.048C781.374 325.992 783.026 326.061 784.647 326.255L785.235 331.973C783.802 331.744 782.255 331.655 780.594 331.707C778.949 331.735 777.298 331.904 775.642 332.216C772.644 332.78 770.456 333.724 769.077 335.047C767.694 336.35 767.184 337.965 767.547 339.894Z" fill="#121215"/>
<path d="M840.68 314.698L840.994 316.365C845.949 315.476 849.827 315.603 852.625 316.748C855.445 317.889 857.139 319.969 857.707 322.988C858.272 325.986 857.446 328.518 855.23 330.585C853.031 332.627 849.462 334.135 844.522 335.108L844.824 336.712L837.087 338.168L836.786 336.564C831.83 337.454 827.957 337.347 825.166 336.244C822.371 335.12 820.692 333.059 820.127 330.061C819.559 327.042 820.37 324.491 822.561 322.407C824.752 320.323 828.318 318.795 833.258 317.821L832.944 316.155L840.68 314.698ZM828.146 328.552C828.375 329.768 829.104 330.586 830.334 331.006C831.564 331.425 833.367 331.433 835.744 331.029L834.329 323.513C831.968 324.001 830.291 324.664 829.298 325.502C828.305 326.34 827.921 327.357 828.146 328.552ZM843.48 329.573C845.862 329.081 847.549 328.416 848.542 327.578C849.535 326.74 849.917 325.713 849.688 324.497C849.463 323.302 848.736 322.495 847.506 322.075C846.277 321.655 844.463 321.649 842.065 322.057L843.48 329.573ZM863.25 310.45L878.848 307.514L892.174 327.799L883.432 329.445L880.985 325.444L867.809 327.924L866.984 332.541L858.273 334.18L863.25 310.45ZM878.01 320.534L871.226 309.405L871.1 309.428L868.827 322.262L878.01 320.534ZM897.319 304.037L899.172 313.88L907.571 302.108L917.225 300.29L907.74 312.691L921.432 322.292L912.343 324.003L899.32 314.667L901.462 326.051L893.726 327.507L889.583 305.494L897.319 304.037ZM927.878 304.049L918.664 305.783L917.616 300.217L943.907 295.268L944.954 300.834L935.614 302.593L938.71 319.04L930.974 320.496L927.878 304.049ZM945.753 294.921L953.489 293.465L954.708 299.943L960.337 298.883C964.048 298.185 967.013 298.31 969.233 299.26C971.469 300.185 972.828 301.927 973.309 304.484C973.787 307.021 973.154 309.137 971.411 310.833C969.685 312.504 966.968 313.699 963.261 314.418L949.896 316.934L945.753 294.921ZM961.723 309.531C962.918 309.306 963.826 308.885 964.448 308.269C965.07 307.652 965.291 306.862 965.109 305.898C964.932 304.954 964.441 304.308 963.637 303.96C962.834 303.612 961.835 303.551 960.64 303.776L955.608 304.723L956.691 310.478L961.723 309.531ZM972.64 289.86L980.377 288.403L984.52 310.417L976.784 311.873L972.64 289.86ZM1010.16 306.112C1007.52 306.61 1005.11 306.802 1002.94 306.689C1000.76 306.556 998.864 306.143 997.236 305.451C995.624 304.734 994.309 303.744 993.29 302.482C992.288 301.194 991.617 299.649 991.278 297.846C990.931 296.001 990.99 294.297 991.455 292.733C991.938 291.144 992.799 289.723 994.039 288.469C995.296 287.191 996.915 286.104 998.896 285.211C1000.87 284.296 1003.18 283.59 1005.82 283.093C1008.47 282.595 1010.87 282.413 1013.05 282.547C1015.22 282.659 1017.11 283.085 1018.73 283.823C1020.34 284.54 1021.66 285.55 1022.68 286.855C1023.71 288.139 1024.39 289.703 1024.74 291.548C1025.08 293.351 1025 295.036 1024.52 296.604C1024.03 298.15 1023.16 299.551 1021.92 300.804C1020.68 302.037 1019.07 303.111 1017.09 304.026C1015.11 304.92 1012.8 305.615 1010.16 306.112ZM999.423 296.313C999.754 298.074 1000.76 299.297 1002.43 299.981C1004.1 300.665 1006.3 300.749 1009.05 300.232C1011.8 299.715 1013.82 298.834 1015.13 297.589C1016.44 296.345 1016.92 294.842 1016.59 293.081C1016.25 291.257 1015.24 289.992 1013.57 289.287C1011.89 288.561 1009.68 288.456 1006.93 288.973C1004.18 289.49 1002.16 290.392 1000.86 291.679C999.559 292.944 999.08 294.489 999.423 296.313ZM1060.4 273.341L1064.54 295.355L1056.81 296.811L1055.37 289.169L1041.91 291.702L1043.35 299.344L1035.61 300.8L1031.47 278.787L1039.2 277.331L1040.81 285.853L1054.27 283.32L1052.66 274.797L1060.4 273.341ZM1071.04 271.338L1086.64 268.402L1099.96 288.687L1091.22 290.333L1088.77 286.332L1075.6 288.813L1074.77 293.429L1066.06 295.068L1071.04 271.338ZM1085.8 281.422L1079.01 270.293L1078.89 270.317L1076.62 283.151L1085.8 281.422ZM1104.63 276.445C1104.99 278.353 1106.05 279.662 1107.81 280.372C1109.57 281.083 1111.95 281.156 1114.95 280.591C1116.52 280.296 1118.08 279.882 1119.63 279.352C1121.18 278.8 1122.63 278.147 1123.98 277.393L1125.54 282.896C1124.16 283.633 1122.68 284.282 1121.09 284.841C1119.5 285.4 1117.9 285.832 1116.29 286.136C1113.43 286.673 1110.86 286.897 1108.56 286.808C1106.27 286.719 1104.27 286.334 1102.58 285.654C1100.91 284.949 1099.55 283.957 1098.51 282.677C1097.46 281.397 1096.77 279.835 1096.42 277.99C1096.07 276.124 1096.15 274.405 1096.65 272.834C1097.16 271.262 1098.07 269.844 1099.37 268.578C1100.69 267.309 1102.41 266.215 1104.52 265.297C1106.62 264.38 1109.1 263.653 1111.95 263.116C1113.48 262.828 1115.09 262.656 1116.77 262.6C1118.45 262.543 1120.11 262.612 1121.73 262.807L1122.32 268.524C1120.88 268.295 1119.34 268.206 1117.67 268.258C1116.03 268.286 1114.38 268.455 1112.72 268.767C1109.72 269.331 1107.54 270.275 1106.16 271.599C1104.77 272.901 1104.26 274.516 1104.63 276.445Z" fill="#121215"/>
<path d="M1177.76 251.25L1178.07 252.917C1183.03 252.028 1186.91 252.155 1189.71 253.3C1192.53 254.441 1194.22 256.521 1194.79 259.54C1195.35 262.538 1194.53 265.07 1192.31 267.137C1190.11 269.179 1186.54 270.687 1181.6 271.66L1181.9 273.264L1174.17 274.72L1173.87 273.116C1168.91 274.005 1165.04 273.899 1162.25 272.796C1159.45 271.672 1157.77 269.611 1157.21 266.613C1156.64 263.594 1157.45 261.043 1159.64 258.959C1161.83 256.875 1165.4 255.346 1170.34 254.373L1170.02 252.706L1177.76 251.25ZM1165.23 265.104C1165.46 266.32 1166.19 267.138 1167.41 267.557C1168.64 267.977 1170.45 267.985 1172.82 267.581L1171.41 260.065C1169.05 260.553 1167.37 261.216 1166.38 262.054C1165.39 262.892 1165 263.909 1165.23 265.104ZM1180.56 266.125C1182.94 265.633 1184.63 264.968 1185.62 264.13C1186.62 263.292 1187 262.265 1186.77 261.049C1186.54 259.854 1185.82 259.047 1184.59 258.627C1183.36 258.207 1181.54 258.201 1179.15 258.609L1180.56 266.125ZM1200.33 247.002L1215.93 244.066L1229.25 264.351L1220.51 265.996L1218.07 261.996L1204.89 264.476L1204.07 269.092L1195.35 270.732L1200.33 247.002ZM1215.09 257.086L1208.31 245.956L1208.18 245.98L1205.91 258.814L1215.09 257.086ZM1234.4 240.589L1236.25 250.432L1244.65 238.659L1254.31 236.842L1244.82 249.243L1258.51 258.844L1249.42 260.554L1236.4 251.218L1238.54 262.603L1230.81 264.059L1226.66 242.045L1234.4 240.589ZM1264.96 240.6L1255.74 242.335L1254.7 236.769L1280.99 231.82L1282.03 237.386L1272.69 239.144L1275.79 255.591L1268.05 257.048L1264.96 240.6ZM1282.83 231.472L1290.57 230.016L1291.79 236.495L1297.42 235.435C1301.13 234.736 1304.09 234.862 1306.31 235.812C1308.55 236.737 1309.91 238.478 1310.39 241.036C1310.87 243.573 1310.23 245.689 1308.49 247.385C1306.77 249.056 1304.05 250.251 1300.34 250.97L1286.98 253.486L1282.83 231.472ZM1298.8 246.082C1300 245.858 1300.91 245.437 1301.53 244.82C1302.15 244.204 1302.37 243.414 1302.19 242.449C1302.01 241.506 1301.52 240.86 1300.72 240.512C1299.91 240.164 1298.92 240.103 1297.72 240.328L1292.69 241.275L1293.77 247.03L1298.8 246.082ZM1309.72 226.411L1317.46 224.955L1321.6 246.969L1313.86 248.425L1309.72 226.411ZM1347.24 242.664C1344.6 243.161 1342.19 243.354 1340.02 243.241C1337.85 243.108 1335.94 242.695 1334.32 242.003C1332.7 241.286 1331.39 240.296 1330.37 239.033C1329.37 237.746 1328.7 236.201 1328.36 234.398C1328.01 232.553 1328.07 230.848 1328.54 229.285C1329.02 227.696 1329.88 226.275 1331.12 225.021C1332.38 223.742 1334 222.656 1335.98 221.762C1337.95 220.848 1340.26 220.142 1342.9 219.644C1345.55 219.147 1347.95 218.965 1350.13 219.099C1352.3 219.211 1354.19 219.636 1355.81 220.374C1357.42 221.091 1358.74 222.102 1359.76 223.407C1360.79 224.69 1361.47 226.255 1361.82 228.099C1362.16 229.902 1362.08 231.588 1361.6 233.156C1361.11 234.702 1360.24 236.102 1359 237.356C1357.76 238.589 1356.15 239.663 1354.17 240.577C1352.19 241.471 1349.88 242.167 1347.24 242.664ZM1336.5 232.865C1336.83 234.626 1337.84 235.848 1339.51 236.532C1341.18 237.217 1343.38 237.3 1346.13 236.783C1348.88 236.266 1350.9 235.386 1352.21 234.141C1353.52 232.896 1354.01 231.394 1353.67 229.633C1353.33 227.809 1352.32 226.544 1350.65 225.839C1348.97 225.113 1346.76 225.008 1344.01 225.525C1341.26 226.042 1339.24 226.944 1337.94 228.23C1336.64 229.496 1336.16 231.041 1336.5 232.865ZM1397.48 209.893L1401.62 231.906L1393.89 233.362L1392.45 225.721L1378.99 228.254L1380.43 235.896L1372.69 237.352L1368.55 215.339L1376.28 213.883L1377.89 222.405L1391.35 219.871L1389.74 211.349L1397.48 209.893ZM1408.12 207.89L1423.72 204.954L1437.04 225.239L1428.3 226.885L1425.85 222.884L1412.68 225.364L1411.85 229.98L1403.14 231.62L1408.12 207.89ZM1422.88 217.974L1416.1 206.845L1415.97 206.868L1413.7 219.702L1422.88 217.974ZM1441.71 212.997C1442.07 214.905 1443.13 216.214 1444.89 216.924C1446.65 217.635 1449.03 217.708 1452.03 217.143C1453.6 216.847 1455.16 216.434 1456.71 215.904C1458.26 215.352 1459.71 214.699 1461.07 213.945L1462.62 219.448C1461.24 220.185 1459.76 220.833 1458.17 221.393C1456.58 221.952 1454.98 222.384 1453.37 222.688C1450.51 223.224 1447.94 223.448 1445.64 223.36C1443.35 223.271 1441.36 222.886 1439.66 222.206C1437.99 221.501 1436.63 220.508 1435.59 219.229C1434.54 217.949 1433.85 216.387 1433.5 214.542C1433.15 212.676 1433.23 210.957 1433.73 209.386C1434.24 207.814 1435.15 206.395 1436.45 205.13C1437.77 203.86 1439.49 202.767 1441.6 201.849C1443.7 200.932 1446.18 200.205 1449.03 199.668C1450.56 199.38 1452.17 199.208 1453.85 199.151C1455.53 199.095 1457.19 199.164 1458.81 199.358L1459.4 205.076C1457.96 204.847 1456.42 204.758 1454.75 204.81C1453.11 204.838 1451.46 205.007 1449.8 205.319C1446.81 205.883 1444.62 206.827 1443.24 208.15C1441.85 209.453 1441.34 211.068 1441.71 212.997Z" fill="#121215"/>
<path d="M1514.84 187.802L1515.15 189.469C1520.11 188.579 1523.99 188.707 1526.79 189.852C1529.61 190.992 1531.3 193.072 1531.87 196.091C1532.43 199.089 1531.61 201.622 1529.39 203.689C1527.19 205.731 1523.62 207.238 1518.68 208.212L1518.98 209.815L1511.25 211.272L1510.95 209.668C1505.99 210.557 1502.12 210.45 1499.33 209.348C1496.53 208.224 1494.85 206.163 1494.29 203.165C1493.72 200.146 1494.53 197.595 1496.72 195.511C1498.91 193.427 1502.48 191.898 1507.42 190.925L1507.11 189.258L1514.84 187.802ZM1502.31 201.656C1502.54 202.871 1503.27 203.689 1504.5 204.109C1505.72 204.529 1507.53 204.537 1509.9 204.133L1508.49 196.617C1506.13 197.105 1504.45 197.768 1503.46 198.606C1502.47 199.444 1502.08 200.46 1502.31 201.656ZM1517.64 202.677C1520.02 202.185 1521.71 201.52 1522.7 200.682C1523.7 199.844 1524.08 198.817 1523.85 197.601C1523.62 196.406 1522.9 195.598 1521.67 195.179C1520.44 194.759 1518.62 194.753 1516.23 195.161L1517.64 202.677ZM1537.41 183.554L1553.01 180.618L1566.34 200.903L1557.59 202.548L1555.15 198.548L1541.97 201.028L1541.15 205.644L1532.43 207.284L1537.41 183.554ZM1552.17 193.637L1545.39 182.508L1545.26 182.532L1542.99 195.366L1552.17 193.637ZM1571.48 177.141L1573.33 186.984L1581.73 175.211L1591.39 173.394L1581.9 185.795L1595.59 195.395L1586.5 197.106L1573.48 187.77L1575.62 199.154L1567.89 200.61L1563.74 178.597L1571.48 177.141ZM1602.04 177.152L1592.83 178.887L1591.78 173.32L1618.07 168.372L1619.12 173.938L1609.78 175.696L1612.87 192.143L1605.14 193.599L1602.04 177.152ZM1619.91 168.024L1627.65 166.568L1628.87 173.046L1634.5 171.987C1638.21 171.288 1641.17 171.414 1643.39 172.364C1645.63 173.289 1646.99 175.03 1647.47 177.588C1647.95 180.125 1647.32 182.241 1645.57 183.937C1643.85 185.607 1641.13 186.802 1637.42 187.522L1624.06 190.038L1619.91 168.024ZM1635.88 182.634C1637.08 182.409 1637.99 181.989 1638.61 181.372C1639.23 180.756 1639.45 179.965 1639.27 179.001C1639.09 178.058 1638.6 177.412 1637.8 177.064C1636.99 176.716 1636 176.654 1634.8 176.879L1629.77 177.826L1630.85 183.581L1635.88 182.634ZM1646.8 162.963L1654.54 161.507L1658.68 183.52L1650.95 184.977L1646.8 162.963ZM1684.32 179.216C1681.68 179.713 1679.27 179.905 1677.1 179.793C1674.93 179.66 1673.02 179.247 1671.4 178.555C1669.79 177.838 1668.47 176.848 1667.45 175.585C1666.45 174.298 1665.78 172.752 1665.44 170.949C1665.09 169.104 1665.15 167.4 1665.62 165.836C1666.1 164.248 1666.96 162.827 1668.2 161.573C1669.46 160.294 1671.08 159.208 1673.06 158.314C1675.03 157.399 1677.34 156.693 1679.98 156.196C1682.63 155.699 1685.03 155.517 1687.21 155.65C1689.38 155.763 1691.27 156.188 1692.89 156.926C1694.5 157.643 1695.82 158.654 1696.84 159.958C1697.87 161.242 1698.55 162.806 1698.9 164.651C1699.24 166.454 1699.17 168.14 1698.68 169.707C1698.19 171.254 1697.32 172.654 1696.08 173.908C1694.84 175.141 1693.23 176.214 1691.25 177.129C1689.27 178.023 1686.96 178.719 1684.32 179.216ZM1673.58 169.416C1673.92 171.177 1674.92 172.4 1676.59 173.084C1678.26 173.768 1680.46 173.852 1683.21 173.335C1685.96 172.818 1687.98 171.937 1689.29 170.693C1690.6 169.448 1691.09 167.945 1690.75 166.184C1690.41 164.36 1689.4 163.096 1687.73 162.391C1686.05 161.664 1683.84 161.56 1681.09 162.077C1678.35 162.594 1676.32 163.496 1675.02 164.782C1673.72 166.048 1673.24 167.592 1673.58 169.416ZM1734.56 146.445L1738.7 168.458L1730.97 169.914L1729.53 162.272L1716.07 164.806L1717.51 172.448L1709.77 173.904L1705.63 151.89L1713.36 150.434L1714.97 158.957L1728.43 156.423L1726.82 147.901L1734.56 146.445ZM1745.2 144.442L1760.8 141.506L1774.12 161.791L1765.38 163.436L1762.94 159.436L1749.76 161.916L1748.93 166.532L1740.22 168.172L1745.2 144.442ZM1759.96 154.526L1753.18 143.396L1753.05 143.42L1750.78 156.254L1759.96 154.526ZM1778.79 149.549C1779.15 151.456 1780.21 152.766 1781.97 153.476C1783.73 154.186 1786.11 154.259 1789.11 153.695C1790.68 153.399 1792.24 152.986 1793.79 152.455C1795.34 151.904 1796.79 151.251 1798.15 150.496L1799.7 155.999C1798.32 156.737 1796.84 157.385 1795.25 157.945C1793.66 158.504 1792.06 158.936 1790.45 159.239C1787.59 159.776 1785.02 160 1782.73 159.911C1780.43 159.822 1778.44 159.438 1776.74 158.758C1775.07 158.052 1773.71 157.06 1772.67 155.78C1771.62 154.501 1770.93 152.939 1770.58 151.094C1770.23 149.228 1770.31 147.509 1770.81 145.937C1771.32 144.366 1772.23 142.947 1773.53 141.682C1774.85 140.412 1776.57 139.319 1778.68 138.401C1780.78 137.483 1783.26 136.756 1786.11 136.22C1787.64 135.932 1789.25 135.759 1790.93 135.703C1792.62 135.647 1794.27 135.716 1795.89 135.91L1796.48 141.628C1795.04 141.398 1793.5 141.31 1791.84 141.362C1790.19 141.389 1788.54 141.559 1786.88 141.871C1783.89 142.435 1781.7 143.379 1780.32 144.702C1778.94 146.004 1778.43 147.62 1778.79 149.549Z" fill="#121215"/>
<path d="M1851.92 124.354L1852.24 126.02C1857.19 125.131 1861.07 125.259 1863.87 126.403C1866.69 127.544 1868.38 129.624 1868.95 132.643C1869.51 135.641 1868.69 138.174 1866.47 140.24C1864.27 142.282 1860.7 143.79 1855.76 144.763L1856.07 146.367L1848.33 147.823L1848.03 146.219C1843.07 147.109 1839.2 147.002 1836.41 145.899C1833.61 144.776 1831.93 142.715 1831.37 139.717C1830.8 136.698 1831.61 134.146 1833.8 132.062C1835.99 129.978 1839.56 128.45 1844.5 127.477L1844.19 125.81L1851.92 124.354ZM1839.39 138.207C1839.62 139.423 1840.35 140.241 1841.58 140.661C1842.81 141.081 1844.61 141.089 1846.99 140.685L1845.57 133.169C1843.21 133.657 1841.53 134.319 1840.54 135.158C1839.55 135.996 1839.16 137.012 1839.39 138.207ZM1854.72 139.228C1857.1 138.737 1858.79 138.072 1859.78 137.234C1860.78 136.396 1861.16 135.368 1860.93 134.152C1860.7 132.957 1859.98 132.15 1858.75 131.73C1857.52 131.31 1855.7 131.305 1853.31 131.712L1854.72 139.228ZM1874.49 120.105L1890.09 117.169L1903.42 137.454L1894.67 139.1L1892.23 135.099L1879.05 137.58L1878.23 142.196L1869.52 143.835L1874.49 120.105ZM1889.25 130.189L1882.47 119.06L1882.34 119.084L1880.07 131.918L1889.25 130.189ZM1908.56 113.693L1910.41 123.536L1918.81 111.763L1928.47 109.946L1918.98 122.346L1932.67 131.947L1923.59 133.658L1910.56 124.322L1912.7 135.706L1904.97 137.162L1900.82 115.149L1908.56 113.693ZM1939.12 113.704L1929.91 115.438L1928.86 109.872L1955.15 104.923L1956.2 110.49L1946.86 112.248L1949.95 128.695L1942.22 130.151L1939.12 113.704ZM1956.99 104.576L1964.73 103.12L1965.95 109.598L1971.58 108.538C1975.29 107.84 1978.25 107.966 1980.47 108.916C1982.71 109.841 1984.07 111.582 1984.55 114.14C1985.03 116.676 1984.4 118.793 1982.65 120.488C1980.93 122.159 1978.21 123.354 1974.5 124.074L1961.14 126.589L1956.99 104.576ZM1972.96 119.186C1974.16 118.961 1975.07 118.54 1975.69 117.924C1976.31 117.308 1976.53 116.517 1976.35 115.553C1976.17 114.609 1975.68 113.964 1974.88 113.616C1974.08 113.268 1973.08 113.206 1971.88 113.431L1966.85 114.378L1967.93 120.133L1972.96 119.186ZM1983.88 99.5149L1991.62 98.0588L1995.76 120.072L1988.03 121.528L1983.88 99.5149ZM2021.4 115.768C2018.76 116.265 2016.35 116.457 2014.18 116.345C2012.01 116.211 2010.11 115.799 2008.48 115.106C2006.87 114.389 2005.55 113.4 2004.53 112.137C2003.53 110.849 2002.86 109.304 2002.52 107.501C2002.17 105.656 2002.23 103.952 2002.7 102.388C2003.18 100.8 2004.04 99.3783 2005.28 98.1246C2006.54 96.846 2008.16 95.7598 2010.14 94.8659C2012.11 93.9511 2014.42 93.2451 2017.07 92.7479C2019.71 92.2506 2022.12 92.0687 2024.29 92.2022C2026.46 92.3147 2028.35 92.7399 2029.97 93.4779C2031.58 94.1949 2032.9 95.2057 2033.92 96.5102C2034.95 97.7938 2035.63 99.358 2035.98 101.203C2036.32 103.006 2036.25 104.691 2035.76 106.259C2035.27 107.806 2034.4 109.206 2033.16 110.46C2031.92 111.692 2030.31 112.766 2028.33 113.681C2026.35 114.575 2024.04 115.27 2021.4 115.768ZM2010.66 105.968C2011 107.729 2012 108.952 2013.67 109.636C2015.34 110.32 2017.55 110.404 2020.29 109.887C2023.04 109.37 2025.06 108.489 2026.37 107.245C2027.68 106 2028.17 104.497 2027.84 102.736C2027.49 100.912 2026.48 99.6475 2024.81 98.9424C2023.13 98.2162 2020.92 98.1116 2018.17 98.6286C2015.43 99.1455 2013.4 100.047 2012.1 101.334C2010.8 102.599 2010.32 104.144 2010.66 105.968ZM2071.64 82.9964L2075.78 105.01L2068.05 106.466L2066.61 98.8242L2053.15 101.358L2054.59 108.999L2046.85 110.456L2042.71 88.4422L2050.44 86.9861L2052.05 95.5084L2065.51 92.9749L2063.9 84.4526L2071.64 82.9964ZM2082.28 80.9936L2097.88 78.0576L2111.2 98.3426L2102.46 99.9882L2100.02 95.9876L2086.84 98.4678L2086.01 103.084L2077.3 104.724L2082.28 80.9936ZM2097.04 91.0773L2090.26 79.9481L2090.13 79.9718L2087.86 92.8058L2097.04 91.0773ZM2115.87 86.1004C2116.23 88.0082 2117.29 89.3173 2119.05 90.0277C2120.81 90.7381 2123.19 90.8111 2126.19 90.2468C2127.76 89.9508 2129.32 89.5375 2130.87 89.007C2132.42 88.4555 2133.87 87.8025 2135.23 87.048L2136.78 92.551C2135.4 93.2885 2133.92 93.9369 2132.33 94.4963C2130.74 95.0557 2129.14 95.4873 2127.53 95.7912C2124.68 96.3279 2122.1 96.5518 2119.81 96.463C2117.51 96.3742 2115.52 95.9897 2113.83 95.3094C2112.15 94.6042 2110.79 93.6118 2109.75 92.3322C2108.7 91.0526 2108.01 89.4903 2107.66 87.6454C2107.31 85.7795 2107.39 84.0607 2107.9 82.4891C2108.4 80.9174 2109.31 79.4988 2110.61 78.2333C2111.94 76.9638 2113.65 75.8703 2115.76 74.9528C2117.86 74.0352 2120.34 73.3081 2123.19 72.7714C2124.72 72.4834 2126.33 72.3112 2128.01 72.255C2129.7 72.1988 2131.35 72.2677 2132.97 72.4618L2133.56 78.1798C2132.12 77.9501 2130.58 77.8615 2128.92 77.9137C2127.27 77.9411 2125.62 78.1107 2123.96 78.4224C2120.97 78.9867 2118.78 79.9305 2117.4 81.2538C2116.02 82.5561 2115.51 84.1716 2115.87 86.1004Z" fill="#121215"/>
</svg>
