<svg width="995" height="169" viewBox="0 0 995 169" fill="none" xmlns="http://www.w3.org/2000/svg">
<path d="M116.528 169L73.748 169L73.748 77.302L43.43 77.302L43.43 169H0.65L0.65 38.8L116.528 38.8L116.528 169ZM147.562 38.8L227.542 38.8L255.07 169H209.872L206.152 147.238H168.952L165.232 169H120.22L147.562 38.8ZM200.572 114.874L187.924 41.776H187.366L174.718 114.874H200.572ZM258.761 38.8L301.541 38.8L314.561 38.986C332.293 39.11 345.995 43.512 355.667 52.192C365.463 60.748 370.361 72.776 370.361 88.276C370.361 104.024 365.463 116.238 355.667 124.918C345.995 133.598 332.293 137.938 314.561 137.938H301.541V169L258.761 169V38.8ZM312.701 103.714C317.041 103.714 320.451 102.474 322.931 99.994C325.411 97.514 326.651 93.98 326.651 89.392C326.651 84.804 325.411 81.27 322.931 78.79C320.451 76.186 317.041 74.884 312.701 74.884H301.541V103.714L312.701 103.714ZM406.194 77.302H373.644V38.8L482.268 38.8V77.302L448.974 77.302V169L406.194 169V77.302ZM605.185 38.8V169H562.405V123.802H530.227V169H487.447V38.8L530.227 38.8V85.3H562.405V38.8L605.185 38.8ZM627.62 16.108C627.62 11.148 629.17 7.30399 632.27 4.57599C635.37 1.84799 639.71 0.483997 645.29 0.483997C650.87 0.483997 655.148 1.84799 658.124 4.57599C661.224 7.30399 662.774 11.148 662.774 16.108C662.774 21.068 661.224 24.912 658.124 27.64C655.148 30.368 650.87 31.732 645.29 31.732C639.71 31.732 635.37 30.368 632.27 27.64C629.17 24.912 627.62 21.068 627.62 16.108ZM665.564 16.108C665.564 11.148 667.114 7.30399 670.214 4.57599C673.314 1.84799 677.654 0.483997 683.234 0.483997C688.814 0.483997 693.092 1.84799 696.068 4.57599C699.168 7.30399 700.718 11.148 700.718 16.108C700.718 21.068 699.168 24.912 696.068 27.64C693.092 30.368 688.814 31.732 683.234 31.732C677.654 31.732 673.314 30.368 670.214 27.64C667.114 24.912 665.564 21.068 665.564 16.108ZM713.924 38.8V77.302H657.194V88.834H696.812V119.152L657.194 119.152V130.498H715.784V169L614.414 169V38.8L713.924 38.8ZM722.308 38.8L765.088 38.8L778.108 38.986C795.84 39.11 809.542 43.512 819.214 52.192C829.01 60.748 833.908 72.776 833.908 88.276C833.908 104.024 829.01 116.238 819.214 124.918C809.542 133.598 795.84 137.938 778.108 137.938H765.088V169H722.308V38.8ZM776.248 103.714C780.588 103.714 783.998 102.474 786.478 99.994C788.958 97.514 790.198 93.98 790.198 89.392C790.198 84.804 788.958 81.27 786.478 78.79C783.998 76.186 780.588 74.884 776.248 74.884L765.088 74.884V103.714H776.248ZM839.466 38.8L882.246 38.8V69.862H889.686C897.994 69.862 905.496 70.978 912.192 73.21C918.888 75.442 924.53 78.728 929.118 83.068C933.83 87.284 937.426 92.492 939.906 98.692C942.386 104.768 943.626 111.712 943.626 119.524C943.626 127.212 942.386 134.094 939.906 140.17C937.426 146.246 933.83 151.392 929.118 155.608C924.53 159.824 918.888 163.048 912.192 165.28C905.496 167.512 897.994 168.69 889.686 168.814H882.246V169H839.466V38.8ZM951.996 38.8L994.776 38.8V169L951.996 169V38.8ZM887.826 132.916C891.794 132.916 894.77 131.676 896.754 129.196C898.862 126.592 899.916 122.996 899.916 118.408C899.916 113.82 898.862 110.286 896.754 107.806C894.77 105.326 891.794 104.086 887.826 104.086H882.246V132.916H887.826Z" fill="#222223"/>
</svg>
