<svg width="1191" height="138" viewBox="0 0 1191 138" fill="none" xmlns="http://www.w3.org/2000/svg">
<path d="M116.613 134L73.833 134L73.833 42.302L43.515 42.302L43.515 134H0.734961L0.734961 3.79999L116.613 3.79999L116.613 134ZM190.799 137.348C180.259 137.348 170.773 135.86 162.341 132.884C154.033 129.908 147.027 125.568 141.323 119.864C135.619 114.036 131.217 106.906 128.117 98.474C125.141 90.042 123.653 80.37 123.653 69.458C123.653 58.546 125.141 48.812 128.117 40.256C131.217 31.7 135.619 24.508 141.323 18.68C147.027 12.728 154.033 8.20199 162.341 5.102C170.773 2.00199 180.259 0.45199 190.799 0.45199C201.339 0.45199 210.701 2.00199 218.885 5.102C227.193 8.20199 234.199 12.728 239.903 18.68C245.731 24.508 250.133 31.7 253.109 40.256C256.209 48.812 257.759 58.546 257.759 69.458C257.759 80.37 256.209 90.042 253.109 98.474C250.133 106.906 245.731 114.036 239.903 119.864C234.199 125.568 227.193 129.908 218.885 132.884C210.701 135.86 201.339 137.348 190.799 137.348ZM167.363 69.458C167.363 78.138 169.409 84.958 173.501 89.918C177.593 94.754 183.359 97.172 190.799 97.172C198.115 97.172 203.757 94.754 207.725 89.918C211.817 84.958 213.863 78.138 213.863 69.458C213.863 60.902 211.817 54.206 207.725 49.37C203.757 44.41 198.115 41.93 190.799 41.93C183.359 41.93 177.593 44.41 173.501 49.37C169.409 54.206 167.363 60.902 167.363 69.458ZM264.84 3.79999L307.62 3.79999L320.64 3.98599C338.372 4.10999 352.074 8.512 361.746 17.192C371.542 25.748 376.44 37.776 376.44 53.276C376.44 69.024 371.542 81.238 361.746 89.918C352.074 98.598 338.372 102.938 320.64 102.938H307.62V134H264.84V3.79999ZM318.78 68.714C323.12 68.714 326.53 67.474 329.01 64.994C331.49 62.514 332.73 58.98 332.73 54.392C332.73 49.804 331.49 46.27 329.01 43.79C326.53 41.186 323.12 39.884 318.78 39.884H307.62V68.714H318.78ZM412.273 42.302H379.723V3.79999L488.347 3.79999V42.302L455.053 42.302V134L412.273 134V42.302ZM584.71 3.79999V15.332C592.522 15.456 599.714 16.758 606.286 19.238C612.982 21.718 618.748 25.252 623.584 29.84C628.42 34.428 632.202 40.07 634.93 46.766C637.658 53.338 639.022 60.902 639.022 69.458C639.022 77.766 637.658 85.144 634.93 91.592C632.326 98.04 628.606 103.558 623.77 108.146C618.934 112.61 613.168 116.082 606.472 118.562C599.9 120.918 592.646 122.22 584.71 122.468V134H543.79V122.468C535.854 122.22 528.538 120.918 521.842 118.562C515.27 116.082 509.566 112.61 504.73 108.146C499.894 103.558 496.112 98.04 493.384 91.592C490.78 85.144 489.478 77.766 489.478 69.458C489.478 60.902 490.842 53.338 493.57 46.766C496.298 40.07 500.08 34.428 504.916 29.84C509.752 25.252 515.456 21.718 522.028 19.238C528.724 16.758 535.978 15.456 543.79 15.332V3.79999L584.71 3.79999ZM529.468 69.458C529.468 74.914 530.708 79.254 533.188 82.478C535.792 85.578 539.326 87.376 543.79 87.872V51.23C539.326 51.726 535.792 53.71 533.188 57.182C530.708 60.654 529.468 64.746 529.468 69.458ZM584.71 87.872C589.174 87.376 592.646 85.578 595.126 82.478C597.73 79.254 599.032 74.914 599.032 69.458C599.032 64.746 597.73 60.654 595.126 57.182C592.646 53.71 589.174 51.726 584.71 51.23V87.872ZM711.018 137.348C700.478 137.348 690.992 135.86 682.56 132.884C674.252 129.908 667.246 125.568 661.542 119.864C655.838 114.036 651.436 106.906 648.336 98.474C645.36 90.042 643.872 80.37 643.872 69.458C643.872 58.546 645.36 48.812 648.336 40.256C651.436 31.7 655.838 24.508 661.542 18.68C667.246 12.728 674.252 8.20199 682.56 5.102C690.992 2.00199 700.478 0.45199 711.018 0.45199C721.558 0.45199 730.92 2.00199 739.104 5.102C747.412 8.20199 754.418 12.728 760.122 18.68C765.95 24.508 770.352 31.7 773.328 40.256C776.428 48.812 777.978 58.546 777.978 69.458C777.978 80.37 776.428 90.042 773.328 98.474C770.352 106.906 765.95 114.036 760.122 119.864C754.418 125.568 747.412 129.908 739.104 132.884C730.92 135.86 721.558 137.348 711.018 137.348ZM687.582 69.458C687.582 78.138 689.628 84.958 693.72 89.918C697.812 94.754 703.578 97.172 711.018 97.172C718.334 97.172 723.976 94.754 727.944 89.918C732.036 84.958 734.082 78.138 734.082 69.458C734.082 60.902 732.036 54.206 727.944 49.37C723.976 44.41 718.334 41.93 711.018 41.93C703.578 41.93 697.812 44.41 693.72 49.37C689.628 54.206 687.582 60.902 687.582 69.458ZM794.917 134.744C793.057 134.744 791.073 134.682 788.965 134.558C786.981 134.434 784.935 134.248 782.827 134V95.498C784.935 95.87 786.733 96.056 788.221 96.056C791.197 96.056 793.615 94.94 795.475 92.708C797.459 90.352 799.071 85.826 800.311 79.13C801.551 72.434 802.543 63.072 803.287 51.044C804.031 39.016 804.775 23.268 805.519 3.79999L905.587 3.79999V134H862.807V42.116L844.765 42.116C843.897 57.616 842.781 71.194 841.417 82.85C840.053 94.382 837.697 103.992 834.349 111.68C831.001 119.368 826.227 125.134 820.027 128.978C813.951 132.822 805.581 134.744 794.917 134.744ZM1049.22 134H1009.23V5.846H1008.12L996.4 134L914.932 134V3.79999L955.108 3.79999V130.838H956.41L967.942 3.79999L1049.22 3.79999V134ZM1123.52 137.348C1112.98 137.348 1103.5 135.86 1095.07 132.884C1086.76 129.908 1079.75 125.568 1074.05 119.864C1068.34 114.036 1063.94 106.906 1060.84 98.474C1057.87 90.042 1056.38 80.37 1056.38 69.458C1056.38 58.546 1057.87 48.812 1060.84 40.256C1063.94 31.7 1068.34 24.508 1074.05 18.68C1079.75 12.728 1086.76 8.20199 1095.07 5.102C1103.5 2.00199 1112.98 0.45199 1123.52 0.45199C1134.06 0.45199 1143.43 2.00199 1151.61 5.102C1159.92 8.20199 1166.92 12.728 1172.63 18.68C1178.46 24.508 1182.86 31.7 1185.83 40.256C1188.93 48.812 1190.48 58.546 1190.48 69.458C1190.48 80.37 1188.93 90.042 1185.83 98.474C1182.86 106.906 1178.46 114.036 1172.63 119.864C1166.92 125.568 1159.92 129.908 1151.61 132.884C1143.43 135.86 1134.06 137.348 1123.52 137.348ZM1100.09 69.458C1100.09 78.138 1102.13 84.958 1106.23 89.918C1110.32 94.754 1116.08 97.172 1123.52 97.172C1130.84 97.172 1136.48 94.754 1140.45 89.918C1144.54 84.958 1146.59 78.138 1146.59 69.458C1146.59 60.902 1144.54 54.206 1140.45 49.37C1136.48 44.41 1130.84 41.93 1123.52 41.93C1116.08 41.93 1110.32 44.41 1106.23 49.37C1102.13 54.206 1100.09 60.902 1100.09 69.458Z" fill="#222223"/>
</svg>
