<svg width="39" height="39" viewBox="0 0 39 39" fill="none" xmlns="http://www.w3.org/2000/svg">
<circle cx="19.5" cy="19.5" r="19.5" fill="#CBEE4C"/>
<path fill-rule="evenodd" clip-rule="evenodd" d="M15.8057 5.73787L15.6865 5.74871L15.4333 5.78092L15.18 5.81313L14.9119 5.86044L14.6437 5.90778L14.5161 5.94809L14.3884 5.9884H14.3443H14.3003L14.2485 6.01492L14.1968 6.04146L13.9734 6.10856L13.7499 6.17568L13.7216 6.20122L13.6933 6.22675H13.6528H13.6122L13.2459 6.40429L12.8796 6.58183L12.6444 6.72788L12.4092 6.8739L12.2602 6.9738L12.1113 7.07373L12.0777 7.10459L12.0441 7.13546L11.9781 7.18015L11.912 7.22484L11.8478 7.27892L11.7835 7.33299L11.622 7.47258L11.4605 7.61216L11.2191 7.85051L10.9777 8.08886L10.8093 8.28252L10.6409 8.47618L10.5286 8.62515L10.4164 8.77412L10.3998 8.78901L10.3832 8.80391L10.3534 8.85101L10.3236 8.89812L10.2119 9.06559L10.1002 9.23306V9.26428V9.29551H10.0724H10.0446L10.0237 9.36254L10.0028 9.42958L9.98443 9.4445L9.96611 9.45943L9.91046 9.56368L9.85477 9.66793L9.765 9.84669L9.67524 10.0255L9.63668 10.1148L9.5981 10.2042L9.5546 10.3085L9.5111 10.4128L9.4368 10.6362L9.36252 10.8597L9.31604 11.0235L9.26959 11.1874L9.23768 11.3066L9.20581 11.4258L9.17393 11.6045L9.14208 11.7833L9.09616 12.1408L9.05025 12.4983L9.03685 15.731L9.02344 18.9636L9.0569 19.1274L9.09035 19.2913L9.152 19.4626L9.21364 19.6339H9.2398H9.26596V19.678V19.7221L9.48196 19.9389L9.69797 20.1557L9.85084 20.2342L10.0037 20.3127L10.2499 20.3658L10.496 20.419L10.7494 20.3664L11.0028 20.3137L11.1697 20.2242L11.3366 20.1348L11.5047 19.9633L11.6727 19.7918L11.7834 19.5616L11.8942 19.3315L11.9198 19.1326L11.9455 18.9338L11.9464 15.8862L11.9474 12.8386L11.9784 12.5493L12.0093 12.26L12.0562 12.0514L12.1031 11.8429L12.1772 11.6194L12.2513 11.396L12.3771 11.1427L12.5028 10.8895L12.5454 10.815L12.588 10.7405L12.6699 10.6319L12.7518 10.5234V10.4929V10.4624L12.7742 10.4525L12.7965 10.4426L12.9141 10.2936L13.0317 10.1446L13.2568 9.92117L13.4818 9.69772L13.6009 9.59741L13.7201 9.49709L13.8393 9.41891L13.9585 9.34076L13.9734 9.32339L13.9883 9.30605L14.033 9.28561L14.0776 9.26521L14.1819 9.20172L14.2862 9.13823L14.4799 9.03824L14.6735 8.93828L14.7112 8.93813L14.7488 8.93798L14.8006 8.91084L14.8523 8.88367L14.9864 8.83928L15.1204 8.79488L15.3141 8.74888L15.5077 8.70288L15.7312 8.67228L15.9547 8.64171L16.3122 8.62396L16.6697 8.60623L16.8038 8.56288L16.9378 8.51953L17.0892 8.44206L17.2406 8.36457L17.3444 8.27141L17.4481 8.17824L17.5367 8.05907L17.6253 7.93989L17.6807 7.82072L17.7361 7.70154L17.762 7.6491L17.7879 7.59664L17.8228 7.37205L17.8577 7.14747L17.8203 6.92497L17.7829 6.70244L17.7404 6.62101L17.6979 6.53959L17.6978 6.50234L17.6976 6.4651H17.6713H17.6449L17.6275 6.41296L17.6099 6.36082L17.5718 6.30124L17.5337 6.24165L17.4112 6.12247L17.2887 6.0033L17.0984 5.91135L16.9081 5.81941L16.8038 5.78101L16.6995 5.74257L16.3122 5.7348L15.9249 5.72705L15.8057 5.73787ZM21.4665 11.266L21.2579 11.2918L20.9749 11.3413L20.6919 11.3908L20.4684 11.4483L20.245 11.5058L20.1258 11.5345L20.0066 11.5633L19.9783 11.5913L19.95 11.6194L19.8889 11.6196L19.8278 11.6198L19.7425 11.6643L19.6571 11.7088H19.601H19.5448V11.7386V11.7684H19.5121H19.4793L19.3705 11.8155L19.2618 11.8626L19.0681 11.9548L18.8744 12.047L18.6634 12.1758L18.4523 12.3047H18.4201H18.3878L18.3779 12.3284L18.3679 12.3522L18.1594 12.4916L17.9508 12.631L17.8702 12.7062L17.7896 12.7814H17.7744H17.7592L17.6724 12.8633L17.5857 12.9452L17.4256 13.084L17.2656 13.2228L17.1315 13.3532L16.9974 13.4836L16.8038 13.706L16.6101 13.9284L16.5878 13.9384L16.5654 13.9483V13.9769V14.0055L16.4911 14.0857L16.4167 14.1659L16.3048 14.3302L16.193 14.4945L16.1707 14.5044L16.1483 14.5144V14.5433V14.5723L16.0351 14.7419L15.9218 14.9116L15.8191 15.1202L15.7163 15.3287L15.694 15.3387L15.6716 15.3486V15.3786V15.4085L15.5872 15.5921L15.5028 15.7756L15.4118 16.0438L15.3209 16.3119L15.2728 16.4718L15.2247 16.6316V16.6977V16.7638L15.2024 16.786L15.18 16.8082L15.1432 17.0219L15.1065 17.2355L15.0615 17.5782L15.0165 17.9208L14.9976 18.323L14.9788 18.7252L15.014 19.0827L15.0492 19.4403L15.0744 19.6488L15.0997 19.8574L15.1459 20.0808L15.1922 20.3043L15.2251 20.4533L15.258 20.6022L15.2814 20.6618L15.3049 20.7214L15.4035 21.0193L15.5021 21.3173L15.5869 21.5009L15.6716 21.6844V21.7144V21.7443L15.694 21.7543L15.7163 21.7642L15.7885 21.9132L15.8607 22.0621L16.0045 22.2927L16.1483 22.5233V22.5534V22.5835L16.1707 22.5843L16.193 22.5851L16.266 22.7035L16.3391 22.8219H16.3629H16.3867L16.3868 22.8591L16.3869 22.8963L16.4762 22.9916L16.5654 23.0868V23.1V23.1132L16.6772 23.2405L16.7889 23.3677L17.1017 23.6832L17.4145 23.9987L17.5345 24.103L17.6545 24.2073L17.8027 24.3259L17.9508 24.4446L17.9608 24.4675L17.9707 24.4903H18.0104H18.0501L18.0601 24.5164L18.07 24.5426L18.3382 24.7174L18.6063 24.8921L18.6957 24.944L18.7851 24.9958L18.9489 25.0782L19.1128 25.1607L19.1227 25.183L19.1327 25.2054H19.1616H19.1905L19.3304 25.2671L19.4703 25.3289L19.5597 25.3675L19.6491 25.4062L19.8576 25.4812L20.0662 25.5561L20.245 25.6056L20.4237 25.6551L20.528 25.6837L20.6323 25.7122L20.8557 25.7555L21.0792 25.7988L21.4069 25.8373L21.7346 25.8757H22.3454H22.9562L23.2392 25.8365L23.5223 25.7972L23.7904 25.7408L24.0585 25.6845L24.1926 25.6522L24.3267 25.6199L24.5501 25.5448L24.7736 25.4698L24.8675 25.427L24.9614 25.3841H25.0072H25.0531L25.0701 25.3566L25.0871 25.3291L25.1761 25.3096L25.2652 25.29V25.2626V25.2352L25.3024 25.236L25.3397 25.2368L25.6227 25.0944L25.9058 24.9521L25.9207 24.9338L25.9356 24.9155L26.0026 24.8945L26.0696 24.8736V24.8458V24.818H26.1017H26.1337L26.3475 24.6803L26.5612 24.5425L26.5711 24.5164L26.5811 24.4903H26.6135H26.6459L26.7015 24.44L26.757 24.3898L26.7459 25.4903L26.7349 26.5908L26.6893 26.7993L26.6437 27.0079L26.5646 27.2462L26.4855 27.4846L26.4116 27.6418L26.3378 27.7991V27.8121V27.8251L26.1978 28.0571L26.0577 28.289L26.0339 28.2989L26.01 28.3089V28.3511V28.3933H25.9822H25.9545L25.9375 28.4469L25.9205 28.5004L25.8014 28.6281L25.6823 28.7558V28.7695V28.7832L25.4494 29.0128L25.2164 29.2424L25.0888 29.3467L24.9612 29.451L24.7333 29.6097L24.5055 29.7684L24.2969 29.8654L24.0883 29.9623L23.9543 30.0156L23.8202 30.0689L23.7606 30.0937L23.701 30.1185L23.5818 30.1525L23.4627 30.1864L23.2541 30.2326L23.0456 30.2788L22.3901 30.2914L21.7346 30.304L21.4814 30.2552L21.2281 30.2065L21.109 30.1753L20.9898 30.1441L20.7217 30.0535L20.4535 29.963L20.2054 29.833L19.9572 29.7031L19.7287 29.5341L19.5001 29.3651L19.3834 29.259L19.2667 29.153L19.2046 29.082L19.1426 29.011L19.1122 28.9778L19.0818 28.9445L18.9632 28.7955L18.8446 28.6465L18.8297 28.6316L18.8149 28.6167L18.6733 28.4011L18.5318 28.1855V28.1578V28.1301L18.5095 28.1202L18.4871 28.1102L18.3679 27.872L18.2488 27.6337L18.0551 27.4378L17.8615 27.2419L17.698 27.1599L17.5346 27.078L17.4001 27.049L17.2656 27.02L17.1278 27.0031L16.99 26.9861L16.7852 27.0354L16.5803 27.0847L16.3679 27.1901L16.1554 27.2955L16.0103 27.4378L15.8653 27.5801L15.7669 27.7707L15.6685 27.9613L15.6348 28.0805L15.6009 28.1996L15.601 28.4678L15.601 28.7359L15.6358 28.8595L15.6705 28.9831L15.83 29.2915L15.9895 29.5999L16.1174 29.8085L16.2454 30.017L16.3309 30.1256L16.4165 30.2342V30.2647V30.2951L16.4388 30.3051L16.4611 30.315L16.58 30.464L16.6988 30.6129L16.7885 30.7151L16.8783 30.8172L17.1623 31.1024L17.4464 31.3876L17.5447 31.462L17.6432 31.5365L17.6864 31.577L17.7295 31.6174L17.8998 31.7427L18.07 31.8679L18.2488 31.9844L18.4275 32.1008L18.4772 32.1315L18.5269 32.1622L18.6113 32.2109L18.6957 32.2597L19.0516 32.4418L19.4075 32.624H19.4439H19.4804L19.5796 32.6737L19.6789 32.7235L19.7306 32.7482L19.7823 32.773H19.8155H19.8486L19.9425 32.8137L20.0364 32.8545L20.2003 32.9025L20.3641 32.9505L20.5131 32.9924L20.6621 33.0343L20.8259 33.0691L20.9898 33.1039L21.1984 33.1334L21.4069 33.1629L21.8734 33.1955L22.3398 33.2281L22.8268 33.1957L23.3137 33.1633L23.5818 33.119L23.85 33.0747L23.9841 33.0468L24.1181 33.0188L24.2924 32.9712L24.4667 32.9237L24.5754 32.8884L24.6842 32.8532L24.7781 32.8131L24.872 32.773H24.9051H24.9383L24.99 32.7446L25.0417 32.7163L25.1609 32.6674L25.2801 32.6185L25.4886 32.5162L25.6972 32.4138L25.8313 32.3416L25.9653 32.2693L25.9968 32.2455L26.0282 32.2218L26.0862 32.1837L26.1441 32.1456L26.1962 32.1281L26.2484 32.1106V32.0842V32.0579H26.2885H26.3287L26.4002 31.9989L26.4718 31.9398L26.5016 31.9167L26.5314 31.8936L26.6208 31.8368L26.7102 31.7799L26.7802 31.7178L26.8503 31.6557L26.9008 31.611L26.9513 31.5663L27.1281 31.4174L27.305 31.2684L27.5141 31.0586L27.7232 30.8489L27.9264 30.6117L28.1296 30.3746L28.1822 30.315L28.2347 30.2554L28.2914 30.166L28.3481 30.0766L28.3783 30.0404L28.4084 30.0042L28.4395 29.966L28.4706 29.9277L28.634 29.6595L28.7974 29.3914L28.8561 29.2722L28.9149 29.153L28.9373 29.1431L28.9596 29.1332V29.1046V29.0761L29.0493 28.8762L29.1391 28.6763L29.1834 28.592L29.2278 28.5076V28.4664V28.4251L29.2695 28.3273L29.3113 28.2294L29.3631 28.0507L29.4149 27.8719L29.4394 27.8123L29.4641 27.7527L29.4964 27.5889L29.5287 27.425L29.5741 27.1568L29.6193 26.8887L29.6449 26.561L29.6705 26.2332L29.6707 22.2111L29.6709 18.1889L29.6427 17.8463L29.6146 17.5037L29.5776 17.2602L29.5406 17.0167L29.5183 16.9945L29.4959 16.9724V16.8914V16.8104L29.4519 16.6654L29.4079 16.5205L29.3491 16.3268L29.2904 16.1332L29.2092 15.9097L29.128 15.6863L29.1034 15.6763L29.0788 15.6664V15.6241V15.5818L29.0192 15.4706L28.9596 15.3594V15.3242V15.289L28.9373 15.2791L28.9149 15.2692L28.8559 15.15L28.7969 15.0308L28.6235 14.7443L28.4501 14.4578L28.392 14.3955L28.3339 14.3332V14.3152V14.2974L28.2371 14.1725L28.1403 14.0476L28.1247 14.0327L28.1092 14.0178L27.9609 13.8408L27.8126 13.6637L27.5593 13.4078L27.3061 13.1518L27.0807 12.9592L26.8553 12.7665L26.7824 12.7069L26.7094 12.6473L26.5983 12.5728L26.4872 12.4983L26.4869 12.476L26.4867 12.4536H26.442H26.3974V12.4258V12.3981L26.3303 12.3772L26.2633 12.3562L26.2484 12.3364L26.2335 12.3166L26.0845 12.2281L25.9356 12.1396L25.8164 12.0806L25.6972 12.0216L25.682 12.0016L25.6668 11.9817L25.5852 11.9612L25.5035 11.9407V11.9141V11.8876H25.4721H25.4407L25.3008 11.8258L25.1609 11.7641L25.0715 11.7249L24.9822 11.6858L24.7885 11.6181L24.5948 11.5504L24.5055 11.5273L24.4161 11.5041L24.1926 11.4463L23.9692 11.3885L23.6861 11.3412L23.4031 11.294L23.1647 11.2628L22.9264 11.2317L22.3007 11.2359L21.675 11.2402L21.4665 11.266ZM22.837 14.1533L23.0754 14.185L23.2988 14.2323L23.5223 14.2796L23.6161 14.32L23.71 14.3604H23.7708H23.8316L23.848 14.3869L23.8643 14.4134L23.9466 14.4331L24.0288 14.4527L24.2299 14.5481L24.431 14.6435V14.6658V14.6882H24.4597H24.4884L24.7055 14.821L24.9226 14.9538L25.0091 15.0295L25.0957 15.1053H25.1186H25.1414L25.4358 15.3958L25.7302 15.6863L25.8685 15.8682L26.0069 16.0501L26.1657 16.3151L26.3246 16.5801L26.3593 16.6546L26.3941 16.729L26.4505 16.8631L26.5068 16.9972L26.5841 17.2504L26.6613 17.5037L26.7081 17.7427L26.7549 17.9818L26.7545 18.562L26.7541 19.1423L26.6979 19.4105L26.6418 19.6786L26.5641 19.917L26.4864 20.1553L26.4537 20.2298L26.4209 20.3043L26.3729 20.4086L26.3249 20.5128L26.1659 20.7778L26.0069 21.0428L25.8709 21.2195L25.735 21.3962L25.4418 21.6919L25.1485 21.9876L25.1249 21.9878L25.1013 21.9879L25.0061 22.0772L24.9109 22.1664H24.882H24.8531L24.8431 22.1911L24.8332 22.2159L24.6697 22.3252L24.5063 22.4345H24.4711H24.4359L24.426 22.4569L24.4161 22.4792L24.2224 22.5717L24.0288 22.6642L23.8798 22.7164L23.7308 22.7686L23.6712 22.7922L23.6116 22.8158L23.418 22.8621L23.2243 22.9084L22.8912 22.9545L22.558 23.0006L22.3251 23.0001L22.0922 22.9995L21.7048 22.9418L21.3175 22.8841L21.1686 22.8402L21.0196 22.7964L20.9004 22.7613L20.7812 22.7263L20.5337 22.6102L20.2861 22.4941H20.2735H20.2609L20.0189 22.3303L19.7768 22.1664H19.7676H19.7584L19.6761 22.0994L19.5937 22.0323L19.2632 21.7046L18.9326 21.3769L18.8737 21.3023L18.8149 21.2277L18.718 21.1043L18.6212 20.981V20.9505V20.92L18.5958 20.9101L18.5705 20.9002L18.4926 20.7661L18.4147 20.632L18.3368 20.4682L18.2589 20.3043L18.2315 20.2373L18.2041 20.1702L18.1767 20.1032L18.1494 20.0361L18.1139 19.9319L18.0785 19.8276L18.0353 19.6488L17.9921 19.4701L17.9468 19.1572L17.9015 18.8444L17.9184 18.4124L17.9354 17.9804L17.9629 17.8016L17.9905 17.6229L18.0345 17.4441L18.0785 17.2653L18.1139 17.1611L18.1494 17.0568L18.1799 16.9823L18.2104 16.9078L18.2549 16.8035L18.2994 16.6992L18.348 16.595L18.3965 16.4907L18.4853 16.3417L18.5741 16.1928L18.5977 16.1828L18.6212 16.1729V16.1424V16.112L18.7176 15.9885L18.814 15.865L18.8442 15.8303L18.8744 15.7957L18.941 15.7085L19.0075 15.6214L19.1372 15.49L19.2669 15.3585L19.3984 15.2378L19.5299 15.117L19.7534 14.951L19.9768 14.7849L20.1556 14.6865L20.3343 14.5881L20.4088 14.5489L20.4833 14.5098L20.5205 14.5096L20.5578 14.5094V14.4796V14.4498H20.6054H20.6531L20.7469 14.4102L20.8408 14.3706L20.9898 14.3237L21.1388 14.2769L21.3622 14.2301L21.5857 14.1833L21.7793 14.1569L21.973 14.1304L22.2858 14.1261L22.5987 14.1217L22.837 14.1533Z" fill="#121215"/>
</svg>
